<svg xmlns="http://www.w3.org/2000/svg" viewBox="0 0 663.94 441.07"><title>Монтажная область 68</title><g id="УШИ_2" data-name="УШИ 2"><path d="M529.83,436.27l.3,4.8,19.28-.09s-.35-6.41-8.06-3.49l-2.15-.19Z" style="fill:#a74d4b"/><polygon points="544.15 318.16 553.22 329.19 547.8 331.19 548.77 337.94 538.87 339.18 534.31 339.45 528.19 321.25 526.03 317.28 541.34 311.33 543.84 308.78 546.2 307.92 547.51 313.86 544.15 318.16" style="fill:#ffddb0"/><polygon points="541.31 341.21 531.92 340.79 528.1 349.18 527.23 384.28 549.41 384.28 549.8 340.72 541.31 341.21" style="fill:#34495e"/><polygon points="532.74 321.22 534.14 327.08 531.07 329.82 528.18 321.49 526.03 317.28 541.33 311.38 543.83 308.79 546.19 307.89 547.57 313.87 532.74 321.22" style="fill:#4c300f"/><polygon points="529.84 384.28 529.84 436.27 539.2 437.3 547.57 383.8 529.84 384.28" style="fill:#2d95bf"/><path d="M654.61,436.27l-.3,4.8L635,441s.35-6.41,8.07-3.49l2.14-.19Z" style="fill:#999"/><polygon points="640.29 318.16 631.22 329.19 636.64 331.19 635.67 337.94 645.58 339.18 650.13 339.45 656.25 321.25 658.42 317.28 643.1 311.33 640.6 308.78 638.24 307.92 636.93 313.86 640.29 318.16" style="fill:#ffddb0"/><polygon points="643.14 341.21 652.52 340.79 656.35 349.18 657.22 384.28 635.03 384.28 634.64 340.72 643.14 341.21" style="fill:#63bcb8"/><polygon points="651.7 321.22 650.3 327.08 653.38 329.82 656.27 321.49 658.42 317.28 643.12 311.38 640.62 308.79 638.25 307.89 636.88 313.87 651.7 321.22" style="fill:#f39c12"/><polygon points="654.61 384.28 654.61 436.27 647.65 437.04 636.88 383.8 654.61 384.28" style="fill:#ffddb0"/><polygon points="654.61 384.28 654.61 407.6 639.04 407.6 636.88 383.8 654.61 384.28" style="fill:#287572"/><path d="M596.67,318.73c.08,4.18,3.33,8.38,8.21,9.81,1.7.22,3.75,1.24,6,1,1,.4,2.29-.37,3.4-.32,4.25,1,7.84,4.48,7.83,4.76a42.29,42.29,0,0,1-1.08-7.71c2.41-2.08,4.22-4.35,4-7.54a11.26,11.26,0,0,0-3.58-7.19,13.24,13.24,0,0,0-10.58-3.63,11.43,11.43,0,0,0-5.27.78" style="fill:none;stroke:#002b53;stroke-linecap:round;stroke-linejoin:round;stroke-width:1.6px"/><path d="M559.91,309.84a13.7,13.7,0,0,1,5.33-10.69c4.24-2.71,9.16-5.61,15.75-5.4,11.62-.74,21.28,7,21.09,16.09.34,7.23-5,11.43-12.22,14.6-2.54,1.33-5.83,1.35-8.87,1.49-2-.75-3.79,0-5.07-.47-5.9,2.14-12,7-11.64,7.08a62.36,62.36,0,0,0,1.61-11.48C561.79,317.88,560.2,314.64,559.91,309.84Z" style="fill:none;stroke:#002b53;stroke-linecap:round;stroke-linejoin:round;stroke-width:1.6px"/><path d="M630.09,366.63s-2.75,12.78,1.07,14l3.06,0,3.58-11.18Z" style="fill:#ccc"/><path d="M633.34,377.63s-2-2.6.32-9.28l-.77.09s-2,5.86-.45,9.29Z" style="fill:#b3b3b3"/><path d="M632.77,376.51l2.86.59,2.89-8.14L635,367.21s-1.79-.64-2.29,3.29A25.72,25.72,0,0,0,632.77,376.51Z" style="fill:#999"/><path d="M631.16,380.59l26.37,4.73,1.76-6.35-24-11.62c.31.49,3.35,1.39-.91,10.16A10,10,0,0,1,631.16,380.59Z" style="fill:#f2f2f2"/><polygon points="636.05 380.29 637.81 376.05 642.64 377.8 641.02 381.37 636.05 380.29" style="fill:#666"/><polygon points="638.3 374.69 638.41 373.58 639.85 374 639.73 375.18 638.3 374.69" style="fill:#666"/><polygon points="638.5 372.63 638.61 371.55 640.02 372.24 639.92 373.23 638.5 372.63" style="fill:#666"/><polygon points="638.66 371.1 638.77 370.01 640.18 370.7 640.08 371.7 638.66 371.1" style="fill:#666"/><path d="M640.71,375.28s.71-.77.7-4.22l.56.05s.27,2.67-.84,4.21Z" style="fill:#666"/><path d="M641.82,376.06s.71-.76.7-4.22l.56.06s.27,2.67-.84,4.2Z" style="fill:#666"/><path d="M643.1,376.58s.71-.76.7-4.22l.56.06s.27,2.67-.84,4.2Z" style="fill:#666"/><path d="M642.25,381.69s2.89-1.6,3.33-8.67l.67.39s-.43,6.18-3.21,8.73Z" style="fill:#666"/><path d="M644.18,382.27s2.89-1.6,3.32-8.67l.68.39s-.43,6.18-3.21,8.73Z" style="fill:#666"/><path d="M631.48,377.44s-2-2.6.32-9.28l-.78.09s-2,5.87-.44,9.3Z" style="fill:#b3b3b3"/><path d="M646.37,382.18s2.85-1.19,3.13-6.73l.68.31s-.3,4.85-3,6.79Z" style="fill:#666"/><path d="M647.9,382.72s2.85-1.19,3.13-6.73l.68.31s-.3,4.85-3,6.79Z" style="fill:#666"/><path d="M650,383.23s2.82-1,3-5.6l.69.28s-.22,4.06-2.9,5.64Z" style="fill:#666"/><rect x="522.35" y="389.44" width="24.74" height="18.16" style="fill:#dda036"/><path d="M531.29,389.44s-.56-4.07,2.81-3.82c0,0,3.86-.57,3.83,1.09v3.5l-1.54.38s.21-4-1-3.5c0,0-1,0-1.8,0,0,0-1.08-.52-.83,1l.17,1.86Z" style="fill:#a74d4b"/><polygon points="522.35 389.44 534.73 398.84 547.1 389.44 522.35 389.44" style="fill:#996a44"/><path d="M532.41,397.93a3.58,3.58,0,0,1,4.91,0s-.25,2.47-1.27,2.35h-2.48S532.71,400.17,532.41,397.93Z" style="fill:#f9c82e"/><polygon points="531.05 387.71 530.84 382.72 537.76 379.88 539.82 386.94 531.05 387.71" style="fill:#ffddb0"/><path d="M529.83,384.28l8.87-3.69.92-36.9-7.6-3.48s-3.5,7.59-3.93,9Z" style="fill:#e67e22"/><polygon points="654.61 385.53 654.22 379.86 647.65 380.59 645.23 386.97 654.61 385.53" style="fill:#ffddb0"/><path d="M655.07,380.3l-10,3.11-.26-39.72,7.61-3.48s3.49,7.59,3.92,9Z" style="fill:#287572"/><polygon points="131.4 232.17 130.78 231.59 130.16 231.01 128.62 230.65 126.9 232.49 128.52 234 130.14 235.51 131.85 233.68 131.4 232.17" style="fill:#e67e22"/><rect x="128.44" y="231.59" width="0.54" height="4.43" transform="translate(-130.05 168.41) rotate(-46.99)" style="fill:#7f8c8d"/><polygon points="130.14 235.51 128.5 234.02 126.9 232.49 117.95 238.66 119.43 239.1 119.43 240.41 121.05 240.6 121.08 241.96 122.44 241.9 122.74 243.51 124.05 243.41 124.58 244.86 130.14 235.51" style="fill:#f1c40f"/><polygon points="77.79 238.08 65.94 235.51 55.74 242.08 51.67 260.87 58.24 271.06 60.89 280.34 54.64 307.55 56.37 308.37 58.28 308.34 63.65 280.94 70.1 273.63 80.29 267.06 84.36 248.28 77.79 238.08" style="fill:none;stroke:#002b53;stroke-linecap:round;stroke-linejoin:round;stroke-width:1.6px"/><polygon points="59.84 268.74 54.45 260.36 58.06 243.69 66.44 238.29 76.18 240.4 81.58 248.78 77.97 265.45 69.59 270.85 64.03 272.99 59.84 268.74" style="fill:none;stroke:#002b53;stroke-linecap:round;stroke-linejoin:round;stroke-width:1.6px"/><path d="M47.3,433l3.49,1c8.21-2.43,9.33,4.49,9.33,4.49H34.47l1.11-4.9Z" style="fill:#34495e"/><polygon points="5.51 331.86 25.69 341.91 30.11 339.46 34.47 327.8 30.05 323.85 32.9 317.69 16.2 316.05 15.44 309.69 9.41 305.84 4.39 307.03 8.17 308.51 8.21 312.71 0.42 330.36 5.51 331.86" style="fill:#ffd89b"/><polygon points="71.17 327.48 58.06 338.98 45.85 339.46 44.24 351.44 60.26 350.76 63.83 349.9 79.65 336.34 71.17 327.48" style="fill:#34495e"/><polygon points="16.3 423.35 28.95 391.33 24.22 384.72 17.94 384.76 3.93 419.91 15.81 426.26 16.3 423.35" style="fill:#2d95bf"/><polygon points="47.3 434.53 51.3 407.84 51.55 404.85 51.81 400.66 39.92 383.46 46.27 336.34 45.87 336.43 58.06 312.43 50.45 300.54 25.96 347.4 24.99 358.83 24.99 358.83 17.94 384.76 24.22 384.72 37.59 403.43 35.58 433.59 47.3 434.53" style="fill:#2d95bf"/><polygon points="39.92 383.46 46.27 336.34 45.87 336.43 58.06 312.43 50.45 300.54 25.96 347.4 24.99 358.83 24.99 358.83 17.94 384.76 24.22 384.72 39.92 383.46" style="fill:#34495e"/><polygon points="73.09 329.15 77.13 322.46 80.78 322.46 84.36 330.01 78.61 334.81 73.09 330.23 73.09 329.15" style="fill:#ffd89b"/><polygon points="15.33 309.78 8.69 327.86 14.57 331.69 14.17 336.46 5.05 331.74 0 330.15 8.06 312.67 8.09 308.48 4.34 306.93 9.38 305.83 15.33 309.78 15.33 309.78" style="fill:#c16800"/><path d="M14.13,426l2.15,2.91c8,3.13,4.61,9.28,4.61,9.28L.64,422.4l3.88-3.19Z" style="fill:#34495e"/><polygon points="50.18 300.58 54.02 295.17 58.99 300.58 60.68 304.86 55.43 310.16 50.18 300.58" style="fill:#ffd89b"/><path d="M162.79,356.14c-.19-.1,1.93-10.72,2-9.53.21,1,5.56-11,5.62-10.75-.26,1.15-5.67-19.72-5.75-18.34-.15.14-10.46-5.1-10.75-5.61-.28.48-11.55,3.47-11.57,3.62.14,1-5.7,9.92-5.62,10.75-.27.54,5.56,18.8,5.75,18.34-.15.23,10.44,5.8,10.74,5.62-.33.87,6.82,8.19,6.89,6.75.26-.92,7.77,26.8,8,26.75.12-.6,1.8.59,1.9-.14.18-1,2-.76,1.65-1C171.61,382.63,163,356.85,162.79,356.14Z" style="fill:none;stroke:#002b53;stroke-linecap:round;stroke-linejoin:round;stroke-width:1.6px"/><path d="M153.45,347.43c-.06-.38-8.88-4.57-8.84-4.62.1.49-5.24-16.1-5.1-16.28,0,0,4.51-8.59,4.62-8.83,0,.1,9.49-3.45,9.51-3a83.21,83.21,0,0,1,8.84,4.61c.14.41,4.89,16.43,5.1,16.28-.05.05-4.72,9.16-4.62,8.84s-4,5.12-3.78,4.6C159.3,348.89,153.39,346.76,153.45,347.43Z" style="fill:none;stroke:#002b53;stroke-linecap:round;stroke-linejoin:round;stroke-width:1.6px"/><polygon points="192.17 341.82 194.7 348.55 207.08 347.06 204.35 338.79 192.17 341.82" style="fill:#ffddb0"/><polygon points="181.77 317.07 180.92 310.04 184.16 306.06 183.84 310.07 187.57 311.93 206.69 312.58 205.84 317.77 206.1 340.12 200.99 341.58 189.72 341.88 188.11 336.23 181.38 336.11 187.11 320.5 181.77 317.07" style="fill:#ffddb0"/><polygon points="165.29 369.44 179.53 377.06 183.17 377.11 196.62 364.25 191.74 351.1 179.75 365.56 162.79 357.02 165.29 369.44" style="fill:#e67e22"/><polygon points="208.22 390.35 225.27 411.83 243.59 429.49 253.83 422.76 235.65 404 225.88 387.95 208.22 390.35" style="fill:#95a5a6"/><path d="M243.59,429.49l.16,4.18c-8.9,2.13-5.83,4.82-5.83,4.82h9l10-14.38-3.7-2Z" style="fill:#a74d4b"/><polygon points="170.85 433.01 182.25 434.53 196.92 412.79 218.55 401.63 218.55 398.88 211.12 390.2 187.18 402.24 184.94 405.73 183.37 408.27 170.85 433.01" style="fill:#95a5a6"/><path d="M170.85,433l-3.49,1c-8.21-2.43-9.33,4.49-9.33,4.49h25.65l-1.1-4.9Z" style="fill:#a74d4b"/><polygon points="189.66 345.35 207.08 392.23 228.6 387.58 213.7 359.62 207.63 341.88 199.56 345.47 189.66 345.35" style="fill:#a74d4b"/><polygon points="200.61 318.87 201.44 325.68 205.95 327.38 205.87 317.59 206.69 312.58 187.57 311.93 183.84 310.07 184.16 306.06 180.92 310.04 181.77 317.07 200.61 318.87" style="fill:#c16800"/><polygon points="217.36 402.24 218.7 403.56 217.57 402.13 217.36 402.24" style="fill:#95a5a6"/><polygon points="163.88 357.79 157.84 355.04 156.27 362.22 156.96 366.76 164.16 368.71 163.88 357.79" style="fill:#ffd89b"/><polygon points="444.79 343.9 448.56 325.2 450.74 326.75 463.61 350.26 465.59 355.21 470.67 376.85 458.62 379.13 454.11 359.41 444.79 343.9" style="fill:#e67e22"/><polygon points="469.33 377.1 470.67 384.12 461.1 387.85 461.1 378.67 469.33 377.1" style="fill:#ffddb0"/><polygon points="431.12 376.85 422.14 376.85 406.59 376.85 406.59 385.72 407.79 436.67 420.94 436.67 423.33 392.65 425.96 389.37 427.3 389.37 429.91 392.64 432.32 436.67 445.47 436.67 446.66 385.72 446.66 376.85 431.12 376.85" style="fill:#95a5a6"/><polygon points="416.11 303.21 415.08 302.65 414.14 302.93 414.14 307.53 417.15 310.35 416.11 303.21" style="fill:#ffddb0"/><polygon points="437.15 303.21 438.17 302.65 439.12 302.93 439.12 307.53 436.11 310.35 437.15 303.21" style="fill:#ffddb0"/><polygon points="415.08 296.07 429.55 290.44 432.17 287.15 435.56 290.9 438 297.05 436.58 318.68 426.63 321.43 416.67 318.92 415.08 296.07" style="fill:#ffddb0"/><polygon points="415.08 296.07 429.55 290.44 432.17 287.15 435.56 290.9 438 297.05 437.27 304.97 436.11 304.97 435.27 298.23 417.73 300.17 416.85 304.97 415.76 304.97 415.08 296.07" style="fill:#c16800"/><path d="M408.56,440.23h11.36s2.19-5-5.68-6.18C414.24,434.05,407.57,434.45,408.56,440.23Z" style="fill:#a74d4b"/><path d="M444.59,440.23H433.23s-2.2-5,5.68-6.18C438.91,434.05,445.58,434.45,444.59,440.23Z" style="fill:#a74d4b"/><polygon points="446.66 376.85 431.12 376.85 422.14 376.85 406.59 376.85 406.59 377.36 446.66 376.88 446.66 376.85" style="fill:#006db5"/><polygon points="419.5 318.23 419.5 325.2 426.54 328.62 433.59 325.2 433.59 318.68 419.5 318.23" style="fill:#ffddb0"/><polygon points="364.69 329.43 384.75 338.69 404.19 325.2 408.78 327 409.94 337.48 385.9 350.9 381.74 350.04 364.69 342.36 364.69 329.43" style="fill:#e67e22"/><polygon points="446.65 379.04 406.58 379.04 404.19 325.2 419.49 325.2 426.63 327.69 433.58 325.2 449.04 325.2 446.65 379.04" style="fill:#a74d4b"/><polygon points="277.47 369.04 279.15 368.73 281.53 368.33 301.37 381.35 299.79 386.23 297.45 388.38 279.71 375.85 265.76 388.38 263.73 385.36 277.47 369.04" style="fill:#ffddb0"/><polygon points="285.84 371.15 301.37 381.35 299.79 386.23 297.45 388.38 283.87 378.79 285.84 371.15" style="fill:#287572"/><polygon points="306.69 356.12 312.04 359.5 308.2 367.58 299.79 386.23 290.68 376.93 302.19 352.59 306.69 356.12" style="fill:#63bcb8"/><polygon points="306.79 337.99 308.63 334.5 311.37 333.72 309.96 335.45 311.07 337.48 319.59 343.84 317.56 345.95 310.58 356.23 307.78 355.27 302.48 352.78 303.6 348.74 303.02 344.83 305.36 343.97 307.22 340.11 306.79 337.99" style="fill:#ffddb0"/><polygon points="314.82 344.79 313.03 348.16 314.55 350.36 317.63 345.87 319.59 343.84 311.07 337.48 309.96 335.45 311.37 333.72 308.63 334.5 306.79 337.99 314.82 344.79" style="fill:#c16800"/><path d="M267.08,387.58l-2.58,1.95-7.61-8.29s3.42-2.63,5,1.94l.95.84Z" style="fill:#999"/><path d="M376.31,332.54c0-.74.14-47.45.14-48" style="fill:none;stroke:#002b53;stroke-linecap:round;stroke-linejoin:round;stroke-width:1.6px"/><path d="M364.68,288.49c0-2.29-.08,151.8,0,150.16-.09.53,11.25-2.45,11.31,0-.08,2,.33-91,.26-88.29" style="fill:none;stroke:#002b53;stroke-linecap:round;stroke-linejoin:round;stroke-width:1.6px"/><path d="M362.7,281.94c-.16-.2-4.73-8-4.6-8s6.33-10.71,6.12-10.59c.07-.37,12.13-.26,12.23,0-.15-.28,6.05,10.54,6.12,10.59-.15-.42-6.33,11-6.12,10.62-.14.33-9.38.18-9.45,0" style="fill:none;stroke:#002b53;stroke-linecap:round;stroke-linejoin:round;stroke-width:1.6px"/><polyline points="365.2 276.18 363.92 273.96 367.13 268.4 373.54 268.4 376.75 273.96 373.54 279.53 369.98 279.53" style="fill:none;stroke:#002b53;stroke-linecap:round;stroke-linejoin:round;stroke-width:1.6px"/><path d="M299,389.83s69.81-118,69.2-117.14c0,0,4.23,2.79,4.34,2.56,0,0-69.95,118.32-69.36,117.43" style="fill:none;stroke:#002b53;stroke-linecap:round;stroke-linejoin:round;stroke-width:1.6px"/><path d="M299.47,398.21s-25.92-16.65-25.53-17.09a9.19,9.19,0,0,0,1.59-2.41l5.11-.91s21.83,14.72,22.38,15C303,392.81,299,398.58,299.47,398.21Z" style="fill:none;stroke:#002b53;stroke-linecap:round;stroke-linejoin:round;stroke-width:1.6px"/><path d="M278.64,378.16s1.51-17.2,1.64-16.76c0,0,25.51,15.28,26,16.12" style="fill:none;stroke:#002b53;stroke-linecap:round;stroke-linejoin:round;stroke-width:1.6px"/><path d="M304.81,381.08s-21-12.68-21.36-13.26c0,0-1.63,11.5-1,10.53" style="fill:none;stroke:#002b53;stroke-linecap:round;stroke-linejoin:round;stroke-width:1.6px"/><rect x="358.1" y="434.8" width="24.46" height="5.61" style="fill:#7f8c8d"/><polygon points="283.72 367.71 280.32 366.34 281.37 361.18 285.33 363.73 283.72 367.71" style="fill:#ffddb0"/><polygon points="309.18 357.74 310.42 360.55 308.63 363.29 298.04 371.82 295.62 372.28 283.72 367.71 285.33 363.73 294.65 366.59 303.88 357.97 309.18 357.74" style="fill:#ffddb0"/><polygon points="309.18 357.74 310.42 360.55 308.63 363.29 303.97 367.04 299.21 362.34 303.88 357.97 309.18 357.74" style="fill:#63bcb8"/><polygon points="363.17 331.54 369.52 330.67 372.79 333.94 372.1 342.45 367.49 341.04 363.17 341.64 363.17 331.54" style="fill:#ffddb0"/><path d="M650,42.92c3.8,23.37-17.71,45.75-38.25,43.66C580,90,561.09,72,567.44,46,559.52,21,583.63,1.12,609.2.93,633.36-1,653.4,18.71,650,42.92Z" style="fill:none;stroke:#002b53;stroke-linecap:round;stroke-linejoin:round;stroke-width:1.6px"/><path d="M559.75,33.06c-9,4.61-103.22,11.19-95.42,5.47" style="fill:none;stroke:#002b53;stroke-linecap:round;stroke-linejoin:round;stroke-width:1.6px"/><path d="M555.4,66.87c1.59,8.56-70,54.94-69.67,51.69" style="fill:none;stroke:#002b53;stroke-linecap:round;stroke-linejoin:round;stroke-width:1.6px"/><path d="M600.61,102.33c2.41,2.21-32.7,67.18-36.05,65.19" style="fill:none;stroke:#002b53;stroke-linecap:round;stroke-linejoin:round;stroke-width:1.6px"/><path d="M634.89,98.86c4.11-5.11,32.88,77.36,27.61,81" style="fill:none;stroke:#002b53;stroke-linecap:round;stroke-linejoin:round;stroke-width:1.6px"/><path d="M593.62,38.68c9.21-4.47,18.58-8.62,27.23-14.15l-6-10.28c-12.4,9.25-28.47,13-39,24.87-4.28,4.87,1.19,13.08,7.22,9.35,9.2-5.68,18.72-11,29.06-14.32l-6.72-8.75C599.34,39.32,581.1,44.62,570,53.8c-5.45,4.52,1.49,12.25,7.21,9.35,13-6.59,25.36-14.44,38.26-21.27l-6-10.28C599.42,38,588.89,44.16,580.85,53.14c-3.67,4.09-.2,12.06,5.79,10,10.42-3.68,19.64-9.83,29.77-14.15l-8.15-8.14c-2.14,4.54-6.78,6.87-10.81,9.54-4.49,3-8.67,6.09-11.6,10.7-2.84,4.46,1.85,10.06,6.73,8.74,9.83-2.64,17.47-9.38,26.56-13.6L611,48c-4.42,6.91-11.53,11.75-16.42,18.36-3.88,5.24,3.38,10.46,8.15,8.15a38,38,0,0,0,8.51-6.31c2.2-2,4.64-4.69,7.79-4.92l-5.14-9c-2.83,5.08-7.19,9-10.2,14-3.43,5.65,4.88,12.46,9.35,7.22,2.58-3,6.16-8,10.29-8.76l-6.72-8.74c-3.19,5.58-8,9.74-10,16-1.35,4.17,3.08,8.8,7.32,7.33,6.88-2.4,12.52-6.82,18.1-11.37l-9.35-7.22a59.29,59.29,0,0,1-6.08,7.77c-3.75,4.17-.19,11.89,5.79,10,4-1.3,6.15-4,9.4-6.39L623,67.44c-.77,2.67-1.86,5.23-2.79,7.85-2.56,7.23,8.94,10.35,11.48,3.16.93-2.62,2-5.17,2.79-7.84,1.34-4.62-4.43-9.92-8.74-6.73-2,1.45-4.24,4.44-6.55,5.19L625,79a79,79,0,0,0,7.94-10.18c3.89-6.08-4.43-11.23-9.35-7.21-3.88,3.17-8.05,6.64-12.85,8.3l7.33,7.33c1.59-5,6.28-8.69,8.84-13.16,2.73-4.78-1.76-9.69-6.73-8.75-6.35,1.2-11.55,7.13-15.54,11.82L614,74.38c3-5,7.36-8.92,10.2-14,2.06-3.69-.47-9.31-5.14-9-10,.76-14.06,8.85-22.31,12.85l8.14,8.15c4.92-6.64,11.91-11.32,16.42-18.36,3.48-5.44-3.16-10.46-8.15-8.14-8.1,3.76-15,10.05-23.72,12.4l6.72,8.75c2.69-4.22,7.68-6.54,11.69-9.28,4.27-2.93,8.46-6.17,10.72-11,2.68-5.67-2.64-10.49-8.14-8.15-9.17,3.91-17.51,9.62-26.92,13l5.79,10c7.39-8.26,17-13.79,26.22-19.68,6.47-4.12.78-13.88-6-10.28-12.9,6.83-25.23,14.68-38.25,21.27l7.21,9.35c12.22-10.13,30.44-15.2,37.29-30.81,1.92-4.38-1.29-10.47-6.72-8.75-11.33,3.6-21.84,9.31-31.91,15.53l7.21,9.35c9.69-11,25-14.42,36.54-23,6-4.46.59-14.5-6-10.28-8.65,5.53-18,9.68-27.23,14.14-6.89,3.35-.86,13.62,6,10.29Z" style="fill:#ffce00"/><path d="M622.41,35.33a165.4,165.4,0,0,0-11.76,13.34c-3.41,4.38-.46,11.7,5.8,9.95,9-2.49,14.25-11.06,22.88-13.66L632,37.64c-1.33,5.74-6.92,10.07-10.08,14.88-2.93,4.45,1.9,10,6.72,8.74C635.86,59.32,640,53.31,646.39,50l-8.74-6.72a51.86,51.86,0,0,1-12.94,20.41l9.35,7.21a48.27,48.27,0,0,1,5.21-6l-9.95-5.79c-1,4.92-4.31,8.75-7.18,12.75-4.47,6.24,5.85,12.19,10.28,6,3.5-4.88,7.16-9.58,8.38-15.6,1.18-5.78-5.45-10-9.95-5.79a66.41,66.41,0,0,0-7.07,8.44c-4.24,5.49,4.64,11.74,9.35,7.22a64.18,64.18,0,0,0,16-25.67c1.64-5.22-4.35-9-8.75-6.72-5.27,2.7-9.14,8.48-14.91,10l6.73,8.75c3.88-5.91,9.62-10.55,11.28-17.72,1-4.29-2.81-8.69-7.32-7.33-8.81,2.66-14.2,11.25-22.88,13.66l5.79,10a167.27,167.27,0,0,1,11.76-13.35c5.33-5.5-3.08-13.93-8.42-8.41Z" style="fill:#ffce00"/><path d="M199.53,82.61c9.83-2.84,19.52-6.16,29.62-7.91L226,63.22c-11.18,4.22-23.05,6.17-33.79,11.57-6.54,3.29-1.55,11.79,4.58,10.88,12.66-1.86,24.91-6,37.65-7.38l-3-11.09c-4.12,2-8.6,3-12.3,5.79-5,3.77-2.42,13,4.59,10.89a318.71,318.71,0,0,1,31-7.84l-3.16-11.48c-4.83,1.8-9.86,3-14.35,5.6-6.8,4-.83,13.25,6,10.28a40.71,40.71,0,0,1,15.87-3.5l-3-11.09c-1.93,1.2-3.81,2.46-5.66,3.78-4.89,3.47-3,10.6,3,11.09,3.33.27,6.61-.66,9.82-1.41l-5.79-10c-.76.88-1.41,1.81-2.13,2.72-3.35,4.2-1.13,9.59,4.21,10.16,1.35.14,2.76.63,4.15.78L258,78.65l0,.88c-.64,7.64,11.27,7.6,11.9,0a10.31,10.31,0,0,0-.45-4c-.77-2.74-3.08-4.08-5.74-4.37-1.36-.14-2.75-.63-4.15-.78l4.21,10.17c.71-.9,1.38-1.86,2.13-2.72,3.86-4.46.19-11.35-5.79-10-2.25.52-4.35,1.17-6.66,1l3,11.1c1.85-1.32,3.73-2.57,5.66-3.78,4.94-3.11,3-11.06-3-11.1-7.54,0-15,2.16-21.88,5.13l6,10.28c3.58-2.07,7.65-3,11.5-4.4,7.16-2.66,4.42-13-3.16-11.48-10.48,2.08-20.82,4.72-31,7.83l4.59,10.89c3.66-2.78,8.2-3.82,12.3-5.8,5.16-2.49,2.84-11.73-3-11.09-13.83,1.5-27.08,5.78-40.81,7.8l4.59,10.88C208,80.16,219,78.54,229.15,74.7A6,6,0,0,0,226,63.22c-10.1,1.75-19.8,5.07-29.62,7.91-7.35,2.12-4.23,13.61,3.16,11.48Z" style="fill:#cdf1fc"/><path d="M123.8,92.22c9.2-11.33,20-19.27,36.89-18.81,8.74-.73,13.81,2.16,19.33,6.47,8.82-8.71,17-14.07,27-14.09,7.27.52,10.62,2.37,16.81,5.07,9.47-4,15.28-5.74,22.76-6.46,14.23.56,24.53,7.25,32.52,17.86C279.57,83.25,122.35,85.84,123.8,92.22Z" style="fill:none;stroke:#002b53;stroke-linecap:round;stroke-linejoin:round;stroke-width:1.7000000000000002px"/><path d="M62.12,200.48a5.51,5.51,0,0,0,.81,2.91,7.19,7.19,0,0,0,2.31,2.28,12.33,12.33,0,0,0,3.66,1.52,19.25,19.25,0,0,0,4.9.56,13.68,13.68,0,0,0,6.88-1.62A10.42,10.42,0,0,0,85,201.51a16,16,0,0,0,1.14-4.17,23.89,23.89,0,0,0,.17-4.23,34.71,34.71,0,0,0-.48-4.26c-.25-1.43-.51-2.86-.79-4.3s-.68-2.9-1-4.2-.65-2.5-.87-3.58a14.55,14.55,0,0,1-3.12,5,5.41,5.41,0,0,1-3.79,1.73,3.88,3.88,0,0,1-3.28-1.71,8,8,0,0,1-1.25-4.82,17.62,17.62,0,0,1,.69-5,14.45,14.45,0,0,1,1.83-4,9.1,9.1,0,0,1,2.66-2.66,5.85,5.85,0,0,1,3.18-1A4.26,4.26,0,0,1,83,165.38a3.41,3.41,0,0,1,.83,1.14,3.08,3.08,0,0,1,.29,1.31,2.61,2.61,0,0,1,0,.4,3.1,3.1,0,0,1-.06.39,1.74,1.74,0,0,1,.33-.08c.67,0,1,.59,1,1.79a7.93,7.93,0,0,1-.66,2.95c.08.66.25,1.57.5,2.7s.53,2.37.85,3.68.66,2.66,1,4,.68,2.62,1,3.79a30.89,30.89,0,0,1,.71,6.4,19.93,19.93,0,0,1-1,6.51,14.59,14.59,0,0,1-3,5.14,13.52,13.52,0,0,1-4.89,3.36,17.4,17.4,0,0,1-6.74,1.21,19.07,19.07,0,0,1-5.42-.71,13.78,13.78,0,0,1-4.16-1.91,8.62,8.62,0,0,1-2.66-2.87,7,7,0,0,1-.94-3.53,2,2,0,0,1,.4-1.25,1.86,1.86,0,0,1,.85-.71.73.73,0,0,1,.79.13C62.13,199.42,62.2,199.84,62.12,200.48Zm21-30.74a1,1,0,0,1-.92-.08,3.46,3.46,0,0,0-.16-1,3.29,3.29,0,0,0-.52-1,2.87,2.87,0,0,0-.88-.74,2.37,2.37,0,0,0-1.22-.3,3.51,3.51,0,0,0-2,.71,6.49,6.49,0,0,0-1.77,2,11.54,11.54,0,0,0-1.24,3,14.45,14.45,0,0,0-.48,3.83,7,7,0,0,0,.7,3.47,2.24,2.24,0,0,0,2,1.23c.89,0,1.89-.61,3-1.81a16,16,0,0,0,3-5.72,13.9,13.9,0,0,1,.14-2.06A7.41,7.41,0,0,1,83.16,169.74Z" style="fill:#002b53"/><path d="M107.9,171.49a13.26,13.26,0,0,1-1.2,3.18,10.19,10.19,0,0,1-1.67,2.27,7.1,7.1,0,0,1-2,1.41A7.67,7.67,0,0,1,101,179a7.44,7.44,0,0,1-2.39,3.39,5.56,5.56,0,0,1-3.44,1.18,4.84,4.84,0,0,1-4-2q-1.56-2-1.56-6A15.39,15.39,0,0,1,90,172a11,11,0,0,1,1.37-3.27,5.23,5.23,0,0,1,1.17-3,3.41,3.41,0,0,1,2.74-1.17,4.77,4.77,0,0,1,2.68.79,6.74,6.74,0,0,1,2,2.15,10.9,10.9,0,0,1,1.27,3.18,16.85,16.85,0,0,1,.44,3.91,13,13,0,0,1-.17,2.2,5.6,5.6,0,0,0,1.6-.58A5.46,5.46,0,0,0,104.6,175a9.94,9.94,0,0,0,1.31-2,22.57,22.57,0,0,0,1.2-3C107.89,170,108.15,170.46,107.9,171.49Zm-12.22,9.56a3.27,3.27,0,0,0,1.78-.52A4.23,4.23,0,0,0,98.88,179a7.45,7.45,0,0,1-2.27-.81,9.84,9.84,0,0,1-2-1.52,11,11,0,0,1-1.64-2.06,10.72,10.72,0,0,1-1.12-2.43,8.6,8.6,0,0,0-.23,1.33c0,.44-.06.9-.06,1.37a7.43,7.43,0,0,0,1.2,4.57A3.6,3.6,0,0,0,95.68,181.05ZM93.1,169.12a6.39,6.39,0,0,0,.58,2.64,9.71,9.71,0,0,0,1.5,2.37,9.09,9.09,0,0,0,2.08,1.79,6,6,0,0,0,2.41.89,8,8,0,0,0,.16-1.78,13.24,13.24,0,0,0-.39-3.31,9.58,9.58,0,0,0-1.06-2.58,5.63,5.63,0,0,0-1.54-1.66,3.19,3.19,0,0,0-1.83-.61,1.76,1.76,0,0,0-1.54.71.88.88,0,0,1,.46.5A6.2,6.2,0,0,0,93.1,169.12Z" style="fill:#002b53"/><path d="M112.27,183.67a6.2,6.2,0,0,1-2.48-.49,5.42,5.42,0,0,1-2-1.5,7.23,7.23,0,0,1-1.31-2.52,12,12,0,0,1-.48-3.59,15.05,15.05,0,0,1,.58-4.2,13.43,13.43,0,0,1,1.6-3.62,9.12,9.12,0,0,1,2.41-2.56,5.18,5.18,0,0,1,3-1,3.16,3.16,0,0,1,2.81,1.33,6.06,6.06,0,0,1,.89,3.41,8.57,8.57,0,0,1-.25,2.15,7.27,7.27,0,0,1-.64,1.68,3.62,3.62,0,0,1-.9,1.1,1.52,1.52,0,0,1-1,.4.93.93,0,0,1-.77-.42,2.26,2.26,0,0,1-.36-1.25,6.36,6.36,0,0,1,.44-2.66,5.74,5.74,0,0,1,1.48-2.24,2.65,2.65,0,0,0-.77-.94,2,2,0,0,0-1.23-.35,3.54,3.54,0,0,0-2,.66,6.06,6.06,0,0,0-1.66,1.81,10.61,10.61,0,0,0-1.14,2.66,11.36,11.36,0,0,0-.44,3.23,7.78,7.78,0,0,0,1.21,4.8,4,4,0,0,0,3.32,1.56,5.9,5.9,0,0,0,2.31-.48,6.51,6.51,0,0,0,2.27-1.73,15.84,15.84,0,0,0,2.22-3.41,40.52,40.52,0,0,0,2.23-5.57c.77,0,1,.51.79,1.54a30,30,0,0,1-2,5.84,15.7,15.7,0,0,1-2.5,3.77,7.87,7.87,0,0,1-2.78,2A7.66,7.66,0,0,1,112.27,183.67Z" style="fill:#002b53"/><path d="M125.2,183.51a3.57,3.57,0,0,1-1.73-.42,3.34,3.34,0,0,1-1.3-1.31,7.39,7.39,0,0,1-.86-2.33A16.4,16.4,0,0,1,121,176c0-.77,0-1.61.12-2.49s.21-1.77.36-2.64.34-1.73.56-2.56a15,15,0,0,1,.79-2.29,2.89,2.89,0,0,1,.73-1.12,1.35,1.35,0,0,1,.89-.33,1.52,1.52,0,0,1,.79.2,20.37,20.37,0,0,0-1.47,5.08,31.61,31.61,0,0,0-.44,5.11,16.06,16.06,0,0,0,.21,2.87,5.67,5.67,0,0,0,.56,1.77,2.39,2.39,0,0,0,.77.91,1.49,1.49,0,0,0,.83.27c.94,0,2-.89,3.08-2.68a34.88,34.88,0,0,0,3.28-8.34q.25-1.08,1.08-1.08a1.79,1.79,0,0,1,.83.21,13.65,13.65,0,0,0,.3,5q.61,2.64,1.53,5.6t1.73,6.21a28.52,28.52,0,0,1,.81,6.89,16,16,0,0,1-1,5.75,12.54,12.54,0,0,1-2.74,4.37,12.06,12.06,0,0,1-4.22,2.79,14.44,14.44,0,0,1-5.37,1,12.15,12.15,0,0,1-4.18-.7,11.94,11.94,0,0,1-3.36-1.85,8.92,8.92,0,0,1-2.25-2.58,5.9,5.9,0,0,1-.81-2.93,1.66,1.66,0,0,1,.48-1.33,1.17,1.17,0,0,1,1.18-.21,5.33,5.33,0,0,0,.75,2.68,8.22,8.22,0,0,0,2,2.33,10,10,0,0,0,2.93,1.62,10.36,10.36,0,0,0,3.54.6,10.7,10.7,0,0,0,7.9-2.86q2.86-2.88,2.86-8.11a28.36,28.36,0,0,0-.47-5.31c-.32-1.67-.7-3.28-1.12-4.82s-.86-3-1.27-4.49a29.6,29.6,0,0,1-.92-4.35,20.12,20.12,0,0,1-3.22,6.89Q127.16,183.51,125.2,183.51Z" style="fill:#002b53"/><path d="M146.49,164.25a3.7,3.7,0,0,1,2.37,1.44,3.41,3.41,0,0,1,.44,2.22,9.23,9.23,0,0,1-.75,2.62q-.6,1.38-1.23,2.67c-.36.72-.74,1.43-1.14,2.14a16,16,0,0,0-1,2,4.6,4.6,0,0,0-.43,2.5,1.36,1.36,0,0,0,.93,1.18,2.62,2.62,0,0,0,1.93-.39,9.25,9.25,0,0,0,2.56-2.25,20.32,20.32,0,0,0,2.27-3.41,29.22,29.22,0,0,0,2.1-5c.77,0,1,.51.79,1.54a25.5,25.5,0,0,1-2,5.51,16.34,16.34,0,0,1-2.54,3.66,9.42,9.42,0,0,1-2.6,2,5,5,0,0,1-5-.17,2.81,2.81,0,0,1-1.11-1.83,5.64,5.64,0,0,1,.23-2.52,13.62,13.62,0,0,1,1.25-2.84c.41-.72.85-1.51,1.31-2.35a19.31,19.31,0,0,0,1.14-2.48,6.39,6.39,0,0,0,.48-2.18,1.82,1.82,0,0,0-.64-1.52,4.27,4.27,0,0,0-2.21.33,5.84,5.84,0,0,0-1.89,1.5A13.51,13.51,0,0,0,140,171.3c-.55,1.1-1.13,2.39-1.74,3.89a1,1,0,0,1-.85-.37,1.39,1.39,0,0,1-.07-1.17q1.5-5,3.89-7.17A7.6,7.6,0,0,1,146.49,164.25Z" style="fill:#002b53"/><path d="M430.37,215.34a12.86,12.86,0,0,1-1.21,3.18,9.59,9.59,0,0,1-1.66,2.26,7.14,7.14,0,0,1-1.95,1.42,7.65,7.65,0,0,1-2.12.66,7.46,7.46,0,0,1-2.4,3.39,5.52,5.52,0,0,1-3.43,1.19,4.84,4.84,0,0,1-4-2q-1.56-2-1.56-6a14.81,14.81,0,0,1,.46-3.63,10.49,10.49,0,0,1,1.37-3.27,5.17,5.17,0,0,1,1.17-3,3.41,3.41,0,0,1,2.74-1.17,4.77,4.77,0,0,1,2.68.79,6.93,6.93,0,0,1,2,2.14,10.9,10.9,0,0,1,1.27,3.18,16.92,16.92,0,0,1,.43,3.91,13.23,13.23,0,0,1-.16,2.21,5.62,5.62,0,0,0,1.6-.59,5.23,5.23,0,0,0,1.45-1.18,9,9,0,0,0,1.31-2,20.59,20.59,0,0,0,1.21-3C430.36,213.8,430.62,214.31,430.37,215.34Zm-12.23,9.56a3.27,3.27,0,0,0,1.79-.52,4.18,4.18,0,0,0,1.42-1.52,7.19,7.19,0,0,1-2.27-.81,9,9,0,0,1-2-1.52,10.62,10.62,0,0,1-1.64-2.05,11,11,0,0,1-1.12-2.44,9,9,0,0,0-.23,1.33q-.06.67-.06,1.38a7.45,7.45,0,0,0,1.2,4.57A3.62,3.62,0,0,0,418.14,224.9ZM415.57,213a6.46,6.46,0,0,0,.58,2.64,9.71,9.71,0,0,0,1.5,2.37,9.29,9.29,0,0,0,2.07,1.79,6.09,6.09,0,0,0,2.42.89,8.11,8.11,0,0,0,.16-1.79,13.21,13.21,0,0,0-.39-3.3,9.32,9.32,0,0,0-1.06-2.58,5.8,5.8,0,0,0-1.54-1.67,3.17,3.17,0,0,0-1.83-.6,1.76,1.76,0,0,0-1.54.71.91.91,0,0,1,.46.5A5.82,5.82,0,0,0,415.57,213Z" style="fill:#002b53"/><path d="M446.71,215.34a13.26,13.26,0,0,1-1.2,3.18,9.54,9.54,0,0,1-1.67,2.24,7.83,7.83,0,0,1-1.95,1.42,7,7,0,0,1-2.12.68,7.25,7.25,0,0,1-2.39,3.41,5.6,5.6,0,0,1-3.43,1.17,4.87,4.87,0,0,1-4-2c-1-1.33-1.54-3.32-1.54-6a15.3,15.3,0,0,1,.46-3.63,10.73,10.73,0,0,1,1.37-3.27,5.17,5.17,0,0,1,1.17-3,3.41,3.41,0,0,1,2.74-1.17,4.46,4.46,0,0,1,.85.08,7.81,7.81,0,0,1,.77.21c-.77-1.19-1.55-2.39-2.32-3.6a21.89,21.89,0,0,1-1.9-3.59,10.88,10.88,0,0,1-.81-3.5,5.72,5.72,0,0,1,.92-3.32,7.29,7.29,0,0,1,2.37-2.31,17,17,0,0,1,3.37-1.64,24.69,24.69,0,0,1,3.82-1.06c1.33-.27,2.59-.47,3.79-.61s2.26-.21,3.2-.23a17.08,17.08,0,0,1,2.12.07.74.74,0,0,1,.66.21.77.77,0,0,1,.25.58,1.09,1.09,0,0,1-.2.62.79.79,0,0,1-.63.33c-.5.06-1.19.1-2.08.13s-1.88.09-3,.19-2.24.24-3.43.43a19.14,19.14,0,0,0-3.39.88,12.12,12.12,0,0,0-2.87,1.47,5.29,5.29,0,0,0-1.85,2.23,4.81,4.81,0,0,0-.6,3,9.26,9.26,0,0,0,.93,3A30.53,30.53,0,0,0,436,205c.74,1.13,1.44,2.32,2.1,3.58a24.82,24.82,0,0,1,1.71,4.1,15.73,15.73,0,0,1,.7,4.82,2,2,0,0,1,0,.42v.41c0,.42,0,.81,0,1.19a7.52,7.52,0,0,1-.12,1A5.62,5.62,0,0,0,442,220a5.42,5.42,0,0,0,1.46-1.18,9.75,9.75,0,0,0,1.31-2,21.86,21.86,0,0,0,1.2-3C446.7,213.8,447,214.31,446.71,215.34Zm-12.22,9.56a3.62,3.62,0,0,0,3.2-2,7.28,7.28,0,0,1-2.27-.81,9.11,9.11,0,0,1-2-1.49,11.65,11.65,0,0,1-1.65-2.06,11.43,11.43,0,0,1-1.14-2.46,11.32,11.32,0,0,0-.29,2.71,7.45,7.45,0,0,0,1.2,4.57A3.63,3.63,0,0,0,434.49,224.9ZM431.91,213a6.77,6.77,0,0,0,.56,2.64A8.65,8.65,0,0,0,434,218a9.55,9.55,0,0,0,2.12,1.79,6.19,6.19,0,0,0,2.39.89,7.38,7.38,0,0,0,.17-1.79,13.2,13.2,0,0,0-.4-3.3,9,9,0,0,0-1.06-2.58,5.66,5.66,0,0,0-1.54-1.67,3.17,3.17,0,0,0-1.83-.6,1.78,1.78,0,0,0-1.54.71,1.13,1.13,0,0,1,.46.5q-.21.21-.42.45A5,5,0,0,0,431.91,213Z" style="fill:#002b53"/><path d="M462.76,221.91a17.58,17.58,0,0,1-1.06,2.39,5.92,5.92,0,0,1-1.06,1.45,3.13,3.13,0,0,1-1.12.73,3.64,3.64,0,0,1-1.25.21,2.82,2.82,0,0,1-2.35-1.19,8.45,8.45,0,0,1-1.35-2.93,14.37,14.37,0,0,1-2.31,3.39,3.63,3.63,0,0,1-2.64,1.35,3.49,3.49,0,0,1-3-2,12.76,12.76,0,0,1-1.21-6.28c0-.92,0-1.84.13-2.77s.2-1.83.35-2.7.33-1.69.54-2.46a15.61,15.61,0,0,1,.69-2c.41-1,.94-1.5,1.58-1.5a1.46,1.46,0,0,1,.79.21,12,12,0,0,0-.65,1.85c-.2.76-.39,1.61-.56,2.54s-.3,1.89-.39,2.89a29,29,0,0,0-.15,2.91,17.31,17.31,0,0,0,.23,3,10.09,10.09,0,0,0,.56,2,3.09,3.09,0,0,0,.77,1.17,1.41,1.41,0,0,0,.9.37,2.65,2.65,0,0,0,1.85-1.12,14.63,14.63,0,0,0,2.05-3.62,3,3,0,0,1,0-.42v-1.25a14.94,14.94,0,0,1,.27-2.84,14.46,14.46,0,0,1,.69-2.48,7.36,7.36,0,0,1,.91-1.74c.34-.45.65-.67,1-.67.53,0,.79.42.79,1.25a16.54,16.54,0,0,1-.44,3.24,32.13,32.13,0,0,1-1.22,4.2,7.2,7.2,0,0,0,.87,3.72,2.19,2.19,0,0,0,1.75,1.19c.44,0,1-.33,1.54-1a13.41,13.41,0,0,0,1.91-3.49,2,2,0,0,1,0-.42v-1.25a14.78,14.78,0,0,1,.27-2.84,15.47,15.47,0,0,1,.68-2.48,7.28,7.28,0,0,1,.92-1.75c.33-.44.65-.66.95-.66.53,0,.79.41.79,1.25a18.87,18.87,0,0,1-.37,3.24,26.51,26.51,0,0,1-1.16,4.2,9.24,9.24,0,0,0,.77,3.87c.45.88,1,1.33,1.64,1.33a4.06,4.06,0,0,0,1.54-.38l.33-.16-.79-2.46a10.36,10.36,0,0,1-.46-1.91,3.67,3.67,0,0,1,.11-1.64,2.26,2.26,0,0,1,.85-1.19,3.41,3.41,0,0,1,1.74-.54,2.72,2.72,0,0,1,1.13.15,3.58,3.58,0,0,1,.87.46,2.56,2.56,0,0,1,.6.58,1.19,1.19,0,0,1,.27.56,6.21,6.21,0,0,1-.24,3.49,9.72,9.72,0,0,1-1.71,2.87.24.24,0,0,0-.06.09l-.06.08.62,1.62a12.87,12.87,0,0,1,.62,2.54,8.79,8.79,0,0,1,0,2.28,9.53,9.53,0,0,1-.93,3.85,9.62,9.62,0,0,1-5.74,5,10.87,10.87,0,0,1-4.26.5,6.56,6.56,0,0,1-3.43-1.21,5.39,5.39,0,0,1-1.83-2.24,4.45,4.45,0,0,1-.32-2.47,2.92,2.92,0,0,1,1.17-1.94,5.4,5.4,0,0,1,2.06-1.18,5.82,5.82,0,0,1,2.24-.27,4.69,4.69,0,0,1,2.06.64,4,4,0,0,1,1.5,1.52,2.15,2.15,0,0,1,.27,1.27,1,1,0,0,1-.42.64,1.35,1.35,0,0,1-.73.23,2.12,2.12,0,0,1-.66-.06,2.54,2.54,0,0,0-.29-1.56,2,2,0,0,0-1-.9,2.84,2.84,0,0,0-1.52-.08,4.19,4.19,0,0,0-1.72.83,2.23,2.23,0,0,0-.71,1.35,2.72,2.72,0,0,0,.25,1.6,3.4,3.4,0,0,0,1.25,1.38,4.36,4.36,0,0,0,2.28.62,7.3,7.3,0,0,0,3.66-.71,8.26,8.26,0,0,0,2.64-2,8.85,8.85,0,0,0,1.6-2.64,7.43,7.43,0,0,0,.54-2.62,8.8,8.8,0,0,0-.37-3c-.08-.3-.17-.59-.25-.85s-.15-.54-.21-.81a1.47,1.47,0,0,0-.39.21l-.4.25a4.84,4.84,0,0,1-2.24.7,2.14,2.14,0,0,1-1.29-.39,3.62,3.62,0,0,1-.92-1,6.54,6.54,0,0,1-.62-1.46A15.63,15.63,0,0,1,462.76,221.91Zm8.24-1.25a4.08,4.08,0,0,0,0-2.45.86.86,0,0,0-.83-.56,1,1,0,0,0-.84.43,1,1,0,0,0-.31,1,11.22,11.22,0,0,0,.44,1.79l.25.71c.08.25.18.51.29.79A4.22,4.22,0,0,0,471,220.66Z" style="fill:#002b53"/><path d="M487.88,213.8c.78,0,1,.51.79,1.54a25.25,25.25,0,0,1-2,5.4,17,17,0,0,1-2.58,3.79,9.92,9.92,0,0,1-2.89,2.22,6.52,6.52,0,0,1-2.87.73,5,5,0,0,1-4.16-2q-1.57-2-1.58-6a16,16,0,0,1,.6-4.47,12.92,12.92,0,0,1,1.56-3.51,8,8,0,0,1,2.21-2.29,4.61,4.61,0,0,1,2.57-.83,3.13,3.13,0,0,1,1.54.35,3.18,3.18,0,0,1,1,1,4.1,4.1,0,0,1,.61,1.41,8.05,8.05,0,0,1,.18,1.73,7.68,7.68,0,0,1-1.72,4.91,5.67,5.67,0,0,1-1.75,1.41,4.34,4.34,0,0,1-2,.5,4.83,4.83,0,0,1-1.68-.31,2.84,2.84,0,0,1-1.31-.9v.34a7.74,7.74,0,0,0,1.18,4.65,3.64,3.64,0,0,0,3,1.59,5.22,5.22,0,0,0,2.23-.57,7.91,7.91,0,0,0,2.39-1.87,17.46,17.46,0,0,0,2.37-3.45A32.67,32.67,0,0,0,487.88,213.8Zm-8.9-3.29a2.21,2.21,0,0,0-1.25.44,5.33,5.33,0,0,0-1.18,1.19,8.76,8.76,0,0,0-1,1.74,10.56,10.56,0,0,0-.71,2.12,2.34,2.34,0,0,0,1,1.17,2.93,2.93,0,0,0,1.52.41,2.73,2.73,0,0,0,1.16-.27,3,3,0,0,0,1.06-.83,4.65,4.65,0,0,0,.79-1.37,5.2,5.2,0,0,0,.31-1.89,4.25,4.25,0,0,0-.41-1.9A1.33,1.33,0,0,0,479,210.51Z" style="fill:#002b53"/><path d="M489.88,216.33l-.09.42H490a12.62,12.62,0,0,1,1.62-.25c.61-.05,1.26-.08,2-.08s1.33,0,1.91,0c.41,0,.79.07,1.12.12.06-.36.11-.7.17-1,.11-.69.24-1.35.39-2a12.45,12.45,0,0,1,.48-1.62,4.79,4.79,0,0,1,.71-1.19,1.2,1.2,0,0,1,.95-.43,1.22,1.22,0,0,1,.88.33,23.18,23.18,0,0,0-1,4.14,28.68,28.68,0,0,0-.31,4.26,9.26,9.26,0,0,0,.6,3.87,1.78,1.78,0,0,0,1.56,1.2,1.56,1.56,0,0,0,1-.46,5.86,5.86,0,0,0,1.14-1.62,26.13,26.13,0,0,0,1.37-3.16q.75-2,1.75-5.07c.78,0,1,.51.79,1.54a55.5,55.5,0,0,1-1.64,5.44,19.18,19.18,0,0,1-1.65,3.54,6.14,6.14,0,0,1-1.7,1.91,3.14,3.14,0,0,1-4.59-1.08c-.74-1.11-1.11-3-1.11-5.57v-1H496c-.58,0-1.22,0-1.92,0h-4.32a5.66,5.66,0,0,1,0,.75c0,1.22.1,2.43.23,3.64s.27,2.28.44,3.22a5,5,0,0,0,.5,1.75.85.85,0,0,1-.38.43,1.3,1.3,0,0,1-.75.19,1.43,1.43,0,0,1-.85-.29,2.07,2.07,0,0,1-.64-1,11.88,11.88,0,0,1-.48-2.29c-.13-.94-.22-1.92-.29-3s-.1-2-.09-3,.07-1.81.15-2.47a20.59,20.59,0,0,1,.27-2.18,12.87,12.87,0,0,1,.39-1.73,2.07,2.07,0,0,1,.65-1,1.43,1.43,0,0,1,.85-.29,1.3,1.3,0,0,1,.75.19.83.83,0,0,1,.37.43,5.14,5.14,0,0,0-.52,1.58C490.17,214.26,490,215.23,489.88,216.33Z" style="fill:#002b53"/><path d="M524.35,213.8c.77,0,1,.51.79,1.54q-.84,3.24-1.6,5.42a21.52,21.52,0,0,1-1.54,3.5,5.59,5.59,0,0,1-1.62,1.87,3.21,3.21,0,0,1-1.77.56,2.82,2.82,0,0,1-2.35-1.19,8.27,8.27,0,0,1-1.35-2.93A14.37,14.37,0,0,1,512.6,226a3.65,3.65,0,0,1-2.64,1.35,3.49,3.49,0,0,1-3-2c-.81-1.36-1.21-3.46-1.21-6.28a30.5,30.5,0,0,1,.5-5.47,22.38,22.38,0,0,1,1.21-4.47c.41-1,.94-1.5,1.58-1.5a1.48,1.48,0,0,1,.79.21,11.05,11.05,0,0,0-.65,1.85c-.21.76-.39,1.61-.56,2.54s-.3,1.89-.39,2.89a29,29,0,0,0-.15,2.91,17.31,17.31,0,0,0,.23,3,10.09,10.09,0,0,0,.56,2,3.09,3.09,0,0,0,.77,1.17,1.41,1.41,0,0,0,.89.37,2.63,2.63,0,0,0,1.85-1.12,14.6,14.6,0,0,0,2.06-3.62,7.81,7.81,0,0,1,0-.83v-.84a14.94,14.94,0,0,1,.27-2.84,14.46,14.46,0,0,1,.69-2.48,7,7,0,0,1,.91-1.74c.33-.45.65-.67,1-.67.52,0,.79.42.79,1.25a16.54,16.54,0,0,1-.44,3.24,30.74,30.74,0,0,1-1.23,4.2,7.29,7.29,0,0,0,.88,3.72A2.18,2.18,0,0,0,519,224a1.56,1.56,0,0,0,1-.4,5.19,5.19,0,0,0,1.13-1.51,29.71,29.71,0,0,0,1.41-3.12C523.05,217.67,523.66,215.93,524.35,213.8Z" style="fill:#002b53"/><path d="M538.61,213.8c.78,0,1,.51.79,1.54a24.72,24.72,0,0,1-2,5.4,17,17,0,0,1-2.58,3.79,9.79,9.79,0,0,1-2.89,2.22,6.52,6.52,0,0,1-2.87.73,5,5,0,0,1-4.16-2q-1.57-2-1.58-6A16,16,0,0,1,524,215a13.56,13.56,0,0,1,1.56-3.51,8.08,8.08,0,0,1,2.21-2.29,4.62,4.62,0,0,1,2.58-.83,2.9,2.9,0,0,1,2.57,1.31,4.1,4.1,0,0,1,.61,1.41,8.05,8.05,0,0,1,.18,1.73,7.76,7.76,0,0,1-.47,2.74,7.53,7.53,0,0,1-1.25,2.17,5.67,5.67,0,0,1-1.75,1.41,4.33,4.33,0,0,1-2,.5,4.84,4.84,0,0,1-1.69-.31,2.9,2.9,0,0,1-1.31-.9v.34a7.66,7.66,0,0,0,1.19,4.65,3.61,3.61,0,0,0,3,1.59,5.15,5.15,0,0,0,2.23-.57,7.91,7.91,0,0,0,2.39-1.87,17.46,17.46,0,0,0,2.37-3.45A32.67,32.67,0,0,0,538.61,213.8Zm-8.9-3.29a2.16,2.16,0,0,0-1.24.44,5.36,5.36,0,0,0-1.19,1.19,9.85,9.85,0,0,0-1,1.74,10.54,10.54,0,0,0-.7,2.12,2.32,2.32,0,0,0,1,1.17,3,3,0,0,0,1.52.41,2.69,2.69,0,0,0,1.16-.27,3,3,0,0,0,1.06-.83,4.67,4.67,0,0,0,.8-1.37,5.42,5.42,0,0,0,.31-1.89,4.12,4.12,0,0,0-.42-1.9A1.33,1.33,0,0,0,529.71,210.51Z" style="fill:#002b53"/></g></svg>