<svg xmlns="http://www.w3.org/2000/svg" xmlns:xlink="http://www.w3.org/1999/xlink" viewBox="0 0 688.21 527.26"><defs><clipPath id="clip-path"><polyline points="316.8 427.25 310 407.17 319.5 391.6 297.38 326.33 292.39 341.06 275.27 290.52 259.32 337.58 255.5 326.33 239.33 374.06 237.88 378.33 233.39 391.6 233.86 392.38 236.36 396.46 242.89 407.17 242.72 407.68 239.22 417.99 238.45 420.28 233.39 435.22 236.15 439.76 239.97 446.01 244.87 454.04 255.5 471.44 265.38 455.26 270.65 463.88 275.27 471.44 279.88 463.88 286.32 453.33 297.38 471.44 302 463.88" style="fill:none"/></clipPath><clipPath id="clip-path-2"><path d="M233.37,452.43l-4.85-7.95-4.15-6.8-.83-1.36.83-2.45,6.15-18.14s1.87-5.87,2-5.93l.53-1.54-6.84-11.18-2.67-4.38.85-2.51,2.41-7.12,6.58-19.42a19.86,19.86,0,0,0-32.88,19,15.51,15.51,0,0,0-3.88-.5,16,16,0,0,0-10.07,28.35A22.2,22.2,0,1,0,203.67,451a23.3,23.3,0,0,0,16.21,6.58A23.35,23.35,0,0,0,233.72,453Z" style="fill:none"/></clipPath></defs><title>Монтажная область 69</title><g id="УШИ_2" data-name="УШИ 2"><polygon points="686.23 405.25 687.32 399.58 679.58 396.57 679.58 403.99 686.23 405.25" style="fill:#ffddb0"/><polygon points="544.82 391.37 545.66 385.66 553.95 385.34 551.52 392.36 544.82 391.37" style="fill:#ffddb0"/><polygon points="655.05 437.04 655.63 453.23 677.8 428.44 680.15 424.56 688.21 405.15 677.6 403.53 671.1 419.45 655.05 437.04" style="fill:#f0c419"/><polygon points="602.52 406.1 604.53 404.92 604.53 399.75 607.2 401.87 611.02 401.87 613.45 399.75 613.45 405.14 615.26 406.1 613.45 408.91 608.89 418.57 602.52 406.1" style="fill:#ffddb0"/><polygon points="599.13 500.73 600.3 495.21 604.89 495.21 605.78 500.73 602.18 501.6 599.13 500.73" style="fill:gray"/><polygon points="606.1 467.79 604.8 497.3 605.78 500.73 599.22 502.63 599.13 500.73 600.49 497.3 597.69 467.79 606.1 467.79" style="fill:#edc89a"/><polygon points="605.78 500.73 603.99 500.04 602.46 500.04 600.91 500.04 599.13 500.73 598.97 503.16 602.46 503.16 605.94 503.16 605.78 500.73" style="fill:#559994"/><polygon points="618.47 500.73 617.3 495.21 612.7 495.21 611.81 500.73 615.41 501.6 618.47 500.73" style="fill:gray"/><polygon points="611.49 467.79 612.79 497.3 611.81 500.73 618.38 502.63 618.47 500.73 617.1 497.3 619.9 467.79 611.49 467.79" style="fill:#edc89a"/><polygon points="611.81 500.73 613.6 500.04 615.14 500.04 616.68 500.04 618.47 500.73 618.63 503.16 615.14 503.16 611.65 503.16 611.81 500.73" style="fill:#559994"/><polygon points="589.56 421.28 586.22 428.27 579.9 432.41 580.7 438.26 590.72 433.64 598.14 422.11 589.56 421.28" style="fill:#ffddb0"/><polygon points="627.63 421.28 630.97 428.27 637.28 432.41 636.5 437.86 626.46 433.64 619.04 422.11 627.63 421.28" style="fill:#ffddb0"/><polygon points="599.86 386.34 598.96 385.85 598.14 386.1 598.14 390.13 600.77 392.6 599.86 386.34" style="fill:#ffddb0"/><polygon points="617.6 386.34 618.5 385.85 619.32 386.1 619.32 390.13 616.69 392.6 617.6 386.34" style="fill:#ffddb0"/><polygon points="599.46 384.79 611.75 379.48 615.24 378.83 618.32 383.33 616.05 397.81 610.88 402.31 607.07 402.31 601.39 397.81 599.46 384.79" style="fill:#ffddb0"/><polygon points="615.24 378.83 610.01 383.63 603.94 386.68 600.06 388.85 598.14 384.79 600.77 378.61 610.77 374.47 615.24 378.83" style="fill:#736357"/><polygon points="599.21 391.14 597.59 409.16 604.39 405.17 604.39 400.19 601.39 397.81 600.59 392.43 599.21 391.14" style="fill:#736357"/><polygon points="618.28 391.14 619.9 409.16 613.31 405.39 613.31 400.19 616.1 397.81 616.9 392.43 618.28 391.14" style="fill:#736357"/><polygon points="611.88 381.9 616.96 388.2 617.87 386.2 618.32 383.33 615.24 378.83 611.88 381.9" style="fill:#736357"/><path d="M600.77,392.46a1.32,1.32,0,1,1-1.31-1.32A1.31,1.31,0,0,1,600.77,392.46Z" style="fill:#65c8d0"/><path d="M619.32,392.46a1.32,1.32,0,1,1-1.31-1.32A1.31,1.31,0,0,1,619.32,392.46Z" style="fill:#65c8d0"/><polygon points="599.34 437.08 596.15 446.04 595.56 450.15 597.59 472.08 619.9 472.08 621.56 450.83 620.86 445.34 618.17 437.08 599.34 437.08" style="fill:#287572"/><path d="M627.63,421.28l-6.07-13.08-6.44-1.85c-1.41-.88-6.53,11.59-6.53,11.59s-5.12-12.47-6.52-11.59L595,408.12l-5.46,13.16,8.58.83,1.19,15h18.52l1.19-15Z" style="fill:#287572"/><polygon points="598.88 431.36 618.32 431.36 617.85 437.08 599.34 437.08 598.88 431.36" style="fill:#f56462"/><polygon points="629.66 416.33 628.76 415.83 627.93 416.08 627.93 420.16 630.59 422.65 629.66 416.33" style="fill:#edc89a"/><polygon points="648.29 416.33 649.2 415.83 650.03 416.08 650.03 420.16 647.37 422.65 648.29 416.33" style="fill:#edc89a"/><polygon points="628.76 410.02 641.57 405.03 643.89 402.12 646.88 405.44 649.05 410.88 647.79 430.03 638.98 432.46 630.16 430.24 628.76 410.02" style="fill:#edc89a"/><polygon points="628.76 410.02 641.57 405.03 643.89 402.12 646.88 405.44 649.05 410.88 648.39 417.89 647.37 417.89 646.63 411.93 631.1 413.64 630.33 417.89 629.36 417.89 628.76 410.02" style="fill:#c16800"/><polygon points="656.71 481.51 642.95 481.51 635 481.51 621.24 481.51 621.24 481.96 656.71 481.54 656.71 481.51" style="fill:#006db5"/><polygon points="631.19 435.8 647.37 435.8 638.9 449.83 631.19 435.8" style="fill:#f0c419"/><polygon points="656.7 483.44 621.24 483.44 619.12 435.8 631.19 435.8 632.66 435.8 638.97 446.86 645.13 435.8 646.62 435.8 658.82 435.8 656.7 483.44" style="fill:#63bcb8"/><polygon points="632.67 429.63 632.67 435.8 638.98 437.22 645.14 435.8 645.14 430.03 632.67 429.63" style="fill:#edc89a"/><polygon points="570.58 426.1 570.58 432.21 576.75 433.04 582.92 432.21 582.92 426.49 570.58 426.1" style="fill:#edc89a"/><polygon points="567.52 412.42 566.62 411.92 565.8 412.17 565.8 416.2 568.43 418.67 567.52 412.42" style="fill:#edc89a"/><polygon points="585.92 412.35 586.82 411.86 587.65 412.1 587.65 416.13 585.01 418.6 585.92 412.35" style="fill:#edc89a"/><polygon points="586.88 406.16 574.2 401.22 571.91 398.34 568.94 401.63 566.8 407.01 568.04 425.97 576.77 428.38 585.5 426.18 586.88 406.16" style="fill:#edc89a"/><polygon points="586.88 406.16 574.2 401.22 571.91 398.34 568.94 401.63 566.8 407.01 567.45 413.96 568.46 413.96 569.2 408.05 584.57 409.75 585.34 413.96 586.29 413.96 586.88 406.16" style="fill:#865d41"/><polygon points="594.3 476.94 580.67 476.94 572.8 476.94 559.18 476.94 559.18 477.39 594.3 476.97 594.3 476.94" style="fill:#006db5"/><polygon points="594.28 478.86 559.17 478.86 557.07 431.69 567.22 431.69 576.94 433.5 586.28 431.69 596.38 431.69 594.28 478.86" style="fill:#95a5a6"/><polygon points="576.75 433.04 567.22 431.69 576.75 460.65 576.75 433.04" style="fill:#f0c419"/><polygon points="576.75 433.04 586.28 431.69 576.75 460.65 576.75 433.04" style="fill:#f0c419"/><polygon points="564.62 431.83 558.86 446.98 545.84 416.37 544.87 411.94 543.48 390.97 554.05 392.86 555.08 410.02 564.62 431.83" style="fill:#95a5a6"/><polygon points="590.87 447.8 596.63 432.65 609.65 463.25 610.62 467.69 612.01 488.65 601.44 486.77 600.41 469.61 590.87 447.8" style="fill:#95a5a6"/><polygon points="622.9 452.35 619.57 435.8 617.63 437.17 606.25 457.98 607.12 464.93 622.76 467.57 622.59 458.14 617.23 457.91 622.9 452.35" style="fill:#f0c419"/><path d="M647.52,481.86H631l-8.25-14.29L631,453.28h16.5l8.26,14.29Zm-13.93-4.46H645l5.68-9.83L645,457.74H633.59l-5.67,9.83Z" style="fill:#7c8889"/><rect x="548.88" y="502.45" width="19.89" height="21.33" style="fill:#666"/><rect x="554.55" y="501.98" width="9.06" height="21.8" style="fill:#999"/><rect x="551.11" y="505.24" width="15.48" height="1.58" style="fill:#999"/><rect x="551.11" y="508.72" width="15.48" height="1.58" style="fill:#999"/><rect x="551.11" y="512.21" width="15.48" height="1.58" style="fill:#999"/><rect x="551.11" y="515.69" width="15.48" height="1.58" style="fill:#999"/><rect x="551.11" y="519.18" width="15.48" height="1.58" style="fill:#999"/><rect x="551.11" y="522.67" width="15.48" height="1.11" style="fill:#999"/><rect x="649.09" y="502.45" width="19.89" height="21.33" style="fill:#666"/><rect x="654.25" y="501.98" width="9.06" height="21.8" style="fill:#999"/><rect x="651.27" y="505.24" width="15.48" height="1.58" style="fill:#999"/><rect x="651.27" y="508.72" width="15.48" height="1.58" style="fill:#999"/><rect x="651.27" y="512.21" width="15.48" height="1.58" style="fill:#999"/><rect x="651.27" y="515.69" width="15.48" height="1.58" style="fill:#999"/><rect x="651.27" y="519.18" width="15.48" height="1.58" style="fill:#999"/><rect x="651.27" y="522.67" width="15.48" height="1.11" style="fill:#999"/><rect x="541.62" y="469.22" width="134.61" height="35.32" style="fill:#d35400"/><polygon points="555.48 498.31 548.88 486.88 555.48 475.45 568.68 475.45 575.28 486.88 568.68 498.31 555.48 498.31" style="fill:#f1c40f"/><polygon points="649.18 498.31 642.58 486.88 649.18 475.45 662.38 475.45 668.98 486.88 662.38 498.31 649.18 498.31" style="fill:#f1c40f"/><polygon points="557.26 495.21 552.45 486.88 557.26 478.55 566.89 478.55 571.7 486.88 566.89 495.21 557.26 495.21" style="fill:#ecf0f1"/><polygon points="651.02 495.13 646.26 486.88 651.02 478.63 660.54 478.63 665.31 486.88 660.54 495.13 651.02 495.13" style="fill:#ecf0f1"/><polygon points="604.13 475.45 578.58 475.45 588.5 498.31 604.13 498.31 629.36 498.31 639.27 475.45 604.13 475.45" style="fill:#bdc3c7"/><rect x="585.77" y="478.79" width="21.97" height="1.67" style="fill:#7f8c8d"/><rect x="587.68" y="483.63" width="20.07" height="1.67" style="fill:#7f8c8d"/><rect x="589.55" y="488.46" width="18.2" height="1.67" style="fill:#7f8c8d"/><rect x="591.26" y="493.3" width="16.48" height="1.67" style="fill:#7f8c8d"/><rect x="610.11" y="478.79" width="21.97" height="1.67" style="fill:#7f8c8d"/><rect x="610.11" y="483.63" width="20.07" height="1.67" style="fill:#7f8c8d"/><rect x="610.11" y="488.46" width="18.2" height="1.67" style="fill:#7f8c8d"/><rect x="610.11" y="493.3" width="16.48" height="1.67" style="fill:#7f8c8d"/><path d="M660.8,433.84H557.06L544.78,469.7H673.07ZM551,465.24l10.66-26.94h94.48l10.66,26.94H551Z" style="fill:#d35400"/><polygon points="622.17 465.24 628.63 465.24 630.65 457.1 622.59 458.14 622.17 465.24" style="fill:#ffddb0"/><path d="M193.17,383.52s1.17-296.88,0-290c0,0-87.93.11-88.1,0a39.51,39.51,0,0,0,0-10.53s-6.78-5-6.34,0c0,0-.27,16.19,0,10.53,0,0-56.15,6.09-55.43,0,0,0-1-9.82,0-12.63,0,0,17.4,9,19.21,0,0,0-1.32-5.37,0-4.61,0,0-19.81-1.87-19.21,0,0,0-14,2-12.68,0,0,0-18.8-2.52-19.21,0,0,0,1.8-4.3,0,4.61,0,0,19.05,4.74,19.21,0,0,0-.37,13.66,0,12.63,0,0-29.37,0-29.28,0S.24,529.77,1.34,526c0,0,193.27-3.32,191.83,0,0,0,1.07-63.3,0-68.93" style="fill:none;stroke:#002b53;stroke-linecap:round;stroke-linejoin:round;stroke-width:1.7000000000000002px"/><path d="M45.21,301.09s-25.85.56-26.09,0c0,0-.15-34.16,0-33.71,0,0,26-.05,26.09,0S45,300.61,45.21,301.09Z" style="fill:none;stroke:#002b53;stroke-miterlimit:10;stroke-width:2px"/><path d="M132,301.09s-25.89.16-26.09,0c0,0,0-33.55,0-33.71,0,0,25.94.31,26.09,0C132,267.38,131.88,301.71,132,301.09Z" style="fill:none;stroke:#002b53;stroke-miterlimit:10;stroke-width:2px"/><path d="M175.38,301.09s-25.84.59-26.09,0c0,0,0-33.69,0-33.71s26.21.23,26.09,0C175.38,267.38,175.19,300.71,175.38,301.09Z" style="fill:none;stroke:#002b53;stroke-miterlimit:10;stroke-width:2px"/><path d="M45.21,169.13H19.12s.24-34,0-33.7c0,0,26.15-.47,26.09,0C45.21,135.43,45.42,168.57,45.21,169.13Z" style="fill:none;stroke:#002b53;stroke-linejoin:round;stroke-width:2px"/><path d="M88.6,169.13s-26.32.06-26.09,0c0,0-.22-34.18,0-33.7,0,0,26.16-.63,26.09,0C88.6,135.43,88.67,168.79,88.6,169.13Z" style="fill:none;stroke:#002b53;stroke-linejoin:round;stroke-width:2px"/><path d="M132,169.13s-26.12.36-26.09,0c0,0,.19-33.82,0-33.7,0,0,26.16-.05,26.09,0S131.9,168.72,132,169.13Z" style="fill:none;stroke:#002b53;stroke-miterlimit:10;stroke-width:2px"/><path d="M175.27,169c1,0-25.83-.44-26.83.46-.37-.31-.31-33.59.81-33.74-.66-.17,24.95-.78,26.21-.12C175.17,135.37,175.15,168.93,175.27,169Z" style="fill:#ebbe42"/><path d="M46.63,235.32c-1.65-.17-28.9-.56-26-.15-1.77.15-1.88-33.8-2.74-33.67,2-.31,26.51-.13,28.87-.34C46.46,201.41,45.92,234.58,46.63,235.32Z" style="fill:#2693be"/><path d="M88.6,235.11s-25.83-.59-26.09,0c0,0,.14-34.17,0-33.71,0,0,26.08-.12,26.09,0S88.82,234.92,88.6,235.11Z" style="fill:none;stroke:#002b53;stroke-linejoin:round;stroke-width:2px"/><path d="M133.46,235.41c-1.1-.57-28.39-.5-27.49-.53,1.34.42,0-33,.34-33.66-2-.11,24.08,0,27.32-.11C132.36,201.68,131,234.87,133.46,235.41Z" style="fill:none;stroke:#88b1bf;stroke-linejoin:round"/><path d="M175.38,235.11s-25.85-.58-26.09,0c0,0-.25-34.26,0-33.71,0,0,26.14.56,26.09,0C175.38,201.4,175.16,234.53,175.38,235.11Z" style="fill:none;stroke:#002b53;stroke-miterlimit:10;stroke-width:2px"/><path d="M45.21,367.06s-25.89.38-26.09,0c0,0,.06-34.06,0-33.71,0,0,26.12-.21,26.09,0C45.21,333.35,45.07,367.51,45.21,367.06Z" style="fill:none;stroke:#002b53;stroke-linejoin:round;stroke-width:2px"/><path d="M87.05,367.13c1.52.05-23.92-.13-23.64-.12-1.5-.08-.83-34.29,0-33.64-.27.13,26.25-.56,26.22-.24C90.09,333.51,88,367.52,87.05,367.13Z" style="fill:#10787e"/><path d="M133,367c-1.19.05-27.33.46-25.65.07-2.76-.18-2.6-32.73-1.2-33.85.88.41,25.85.39,24.6.09C133.2,333.3,131.1,367.28,133,367Z" style="fill:#aadbf0"/><path d="M175.38,367.06s-25.94-.18-26.09,0c0,0,0-34.31,0-33.71,0,0,26.06.25,26.09,0C175.38,333.35,175.25,367.09,175.38,367.06Z" style="fill:none;stroke:#002b53;stroke-miterlimit:10;stroke-width:2px"/><path d="M45.21,433s-26.34.23-26.09,0c0,0,0-33.4,0-33.71,0,0,25.84.07,26.09,0C45.21,399.33,45.22,433.08,45.21,433Z" style="fill:none;stroke:#3d5782;stroke-miterlimit:10"/><path d="M88.6,433s-26.34-.65-26.09,0c0,0,.13-33.75,0-33.71s25.9.08,26.09,0C88.6,399.33,88.76,432.49,88.6,433Z" style="fill:none;stroke:#002b53;stroke-linejoin:round;stroke-width:2px"/><path d="M132,433s-26.2.62-26.09,0c0,0,.07-33.34,0-33.71,0,0,26.18-.49,26.09,0C132,399.33,131.9,433.65,132,433Z" style="fill:none;stroke:#002b53;stroke-linejoin:round;stroke-width:2px"/><path d="M168.06,433s-18.95-.19-18.77,0c0,0,0-34,0-33.71,0,0,26.26-.12,26.09,0,0,0,.08,15.5,0,15" style="fill:none;stroke:#002b53;stroke-linecap:round;stroke-linejoin:round;stroke-width:2px"/><g style="opacity:0.5"><path d="M119,284.23c0,24-20.06,42.27-43.39,43.39-24,0-43.28-20.35-43.39-43.39,0-24,18.92-41.78,43.39-43.39C99.52,240.84,118.88,258.86,119,284.23Z" style="fill:#fff"/></g><path d="M87.73,300.87c.75,2.61-25-2.87-22.79.41-2.57-2.4-3.37-35.62-.07-34.48-2.81,1.13,26.1-2,22,3.42C90,264.52,91.14,301,87.73,300.87Z" style="fill:#e64d00"/><path d="M117.06,287.23c1.26,20.34-16.82,37.9-42.94,41.07C53.47,324.65,31,309.53,32,285.81c.08-25.55,22-45.5,42.42-43.72C100.64,242.72,118,259.33,117.06,287.23Z" style="fill:none;stroke:#e64d00;stroke-miterlimit:10;stroke-width:2px"/><path d="M215.39,457.11s.18,68.3,0,69c0,0,9,.66,9,0,0,0,.27-69.51,0-69-1.45.29-3.81,1.35-4.49.44C218.35,457.55,217.62,456.83,215.39,457.11Z" style="fill:none;stroke:#002b53;stroke-linecap:round;stroke-linejoin:round;stroke-width:1.7000000000000002px"/><path d="M233.37,452.43s-4.69-8.58-4.85-7.95c0,0-3.71-7.48-4.15-6.8,0,0-1.23-1.19-.83-1.36,0,0,1.74-2.12.83-2.45,0,0,6.2-18,6.15-18.14,0,0,1.72-6.07,2-5.93,0,0,.64-1.37.53-1.54,0,0-7.75-11.67-6.84-11.18,0,0-1.84-4.47-2.67-4.38,0,0,0-2.46.85-2.51,0,0,2.49-6.78,2.41-7.12,0,0,7.44-18.66,6.58-19.42a18.59,18.59,0,0,0-13.5-5.31c-11,0-19.25,9.7-19.89,19.89,0,1.52-.78,2.09.51,4.43-1.24-.32-2.88,0-3.88-.5-8.81,0-15.65,7.6-16,16,0,5,2.84,9,5.89,12.38C177,413,169.09,422.36,170,432c0,12.26,9.63,22.71,22.2,22.2,4.21,0,7.71-.27,11.51-3.22a22,22,0,0,0,11.72,6.14,13.16,13.16,0,0,0,4.49.44c1.54,0,3,.4,4.49-.44,3.45-.67,6-2.88,9.35-4.12C233.72,453,232.86,452.84,233.37,452.43Z" style="fill:none;stroke:#002b53;stroke-linecap:round;stroke-linejoin:round;stroke-width:1.6px"/><path d="M233.37,452.43s.59,1.33.35.56c.12-.09-.67.2.36-.28C233.85,452.62,233,451.72,233.37,452.43Z" style="fill:none;stroke:#002b53;stroke-linecap:round;stroke-linejoin:round;stroke-width:2px"/><path d="M270.65,463.88s-.24,61.7,0,61.17c0,0,8.75.35,9.24,0,0,0,.4-60.26,0-61.17,0,0-4.62,7.82-4.62,7.56C275.27,471.44,271.63,464.44,270.65,463.88Z" style="fill:none;stroke:#002b53;stroke-linecap:round;stroke-linejoin:round;stroke-width:1.7000000000000002px"/><path d="M316.8,427.25s-6.15-19.33-6.81-20.08c0,0,9.68-15.5,9.51-15.57,0,0-21.38-65.92-22.12-65.27,0,0-4.89,15-5,14.73,0,0-16.4-50-17.12-50.54,0,0-15.08,46.23-15.95,47.06,0,0-2.86-11.6-3.82-11.25,0,0-15.57,47.28-16.17,47.73,0,0-.53,3.59-1.45,4.27,0,0-4.51,12.69-4.49,13.27a.7.7,0,0,0,.47.78s1.73,4.95,2.5,4.08c0,0,5.81,11.48,6.53,10.71,0,0-.09-.13-.17.51,0,0-4.16,10.5-3.5,10.31,0,0,0,2.79-.77,2.29,0,0-4.11,15.09-5.06,14.94,0,0,1.76,4.55,2.76,4.54,0,0,3.39,5.59,3.82,6.25,0,0,5.58,7.84,4.9,8,0,0,11.37,17.92,10.63,17.4,0,0,9.43-16.3,9.89-16.18,0,0,4.26,8.32,5.26,8.62,0,0,4.18,8.39,4.62,7.56,0,0,3.86-7.18,4.62-7.56,0,0,7.33-11.53,6.44-10.55,0,0,11.7,19,11.05,18.11,0,0,4.2-6.65,4.62-7.56" style="fill:none;stroke:#002b53;stroke-linecap:round;stroke-linejoin:round;stroke-width:1.6px"/><path d="M371.07,427.16a13.13,13.13,0,0,1,2.05-1.3c.07,0,.11-5.39.05-5A25.83,25.83,0,0,1,376,423c0-.26,3.73-.29,3.67-.2s2.46-2.29,2.49-2.17a53.34,53.34,0,0,1,0,5.36c0,.17,1.9,1.11,1.8,1.19,0-.26-1.69,2.62-1.73,2.59s-4.54,10-4.74,10C377.65,439.58,371,427.16,371.07,427.16Z" style="fill:#edc89a"/><path d="M434.24,424.15a5.58,5.58,0,0,0,2.19.59c.27.07,8.9,6.2,8.52,6.36.53,0,6.84,10.51,7.39,10.48,0,.09,8.1-8.29,8.41-8.13-.13-.35,6,1.57,5.82,1.84-.47-.32,2.17,5.52,2.17,5.64.32.11-12.95,5.33-13.11,5.3.22-.34-22.42-7.43-22.47-7.55S433.78,424.06,434.24,424.15Z" style="fill:#34495e"/><path d="M394.73,424c.57-.11-1.82.65-1.84.72s-11.52,6.15-11.63,6.24c.2,0-4.17,10.7-4.3,10.78,0-.1-8.29-8.54-8.65-8.36.15-.3-7.33,1-6.78,1-.23.29-1.23,6.75-1.46,6.48.13-.11,13.66,5.2,13.5,5.24.12-.23,21.9-7.31,22.29-7.59C395.77,438.56,394.9,424.11,394.73,424Z" style="fill:#34495e"/><path d="M359.44,438.14c.08,0-.63-.34-.59-.21,0-.23.65-14.66.68-14.75.08.07,2.37.71,2.38.82s5.65,3.1,5.53,2.94" style="fill:none;stroke:#002b53;stroke-linecap:round;stroke-linejoin:round;stroke-width:1.6px"/><path d="M367.77,522.51c-.09,0,1.19-5.63,1.11-5.56s4.7,0,4.65,0,1,5.55.94,5.53-3.59,1-3.65.93S367.75,522.54,367.77,522.51Z" style="fill:gray"/><path d="M374.83,489.53c-.06-.6-1.4,29.41-1.43,29.31a34.52,34.52,0,0,1,1,3.91c.06.06-6.52,1.53-6.52,2,0-.22-.14-1.86-.18-2.4a26.19,26.19,0,0,1,1.42-3c0-.26-2.89-29.88-2.89-29.71C366.24,489.35,374.8,489.61,374.83,489.53Z" style="fill:#edc89a"/><path d="M374.48,522.49s-1.87-.67-1.81-.67-1.61,0-1.61,0a13.53,13.53,0,0,1-1.56,0s-1.71.73-1.79.71-.09,2.47-.08,2.49,3.49,0,3.47-.05l3.45,0C374.61,525,374.4,522.51,374.48,522.49Z" style="fill:#287572"/><path d="M387.29,522.45c-.08.09-1.18-5.48-1.25-5.55s-4.6,0-4.64.05-.94,5.58-.83,5.6,3.57.82,3.55.86S387.28,522.51,387.29,522.45Z" style="fill:gray"/><path d="M380.16,489.3c0-.17,1.44,29.75,1.32,29.78,0-.16-1,3.23-1,3.31.09-.12,6.68,2.23,6.59,2a7.19,7.19,0,0,0,.1-1.87c0,.15-1.34-3.5-1.34-3.57s2.78-29.93,2.84-29.77C388.74,489,380.19,489.39,380.16,489.3Z" style="fill:#edc89a"/><path d="M380.51,522.53c.05,0,1.85-.74,1.85-.75s1.57,0,1.46,0l1.65,0c-.06,0,1.7.7,1.71.76s.15,2.38.23,2.42-3.51,0-3.55,0-3.52,0-3.44,0A13.62,13.62,0,0,1,380.51,522.53Z" style="fill:#287572"/><path d="M358.4,455.4c-.06,0,.86-.44.81-.56s7.6-11.73,7.49-11.6c.09,0-8.58-.86-8.63-.8" style="fill:#edc89a"/><path d="M396.49,442.52s3.48,6.75,3.46,6.82c-.2,0,6.17,4.29,6.41,4.36-.31,0-1.83,7-1.84,6.83s-9.19-5.65-9-5.75c-.19,0-7.64-11.48-7.51-11.6C387.82,443.22,396.4,442.35,396.49,442.52Z" style="fill:#edc89a"/><path d="M368.46,407.1s-.92-.44-.88-.52c0,.09-.83.27-.83.35,0-.1,0,4,0,4s2.65,2.47,2.66,2.53S368.45,407.14,368.46,407.1Z" style="fill:#edc89a"/><path d="M386.37,407.16s.89-.58.92-.56.79.25.8.33,0,4.05,0,4-2.61,2.54-2.66,2.54S386.36,407.16,386.37,407.16Z" style="fill:#edc89a"/><path d="M367.93,405.67c0,.09,12.7-5.46,12.53-5.62l3.38-.29c.14-.35,3.33,4.29,3.17,4.13.2.34-2.07,14.93-2.14,15-.1-.23-5.24,4.51-5.4,4.28a19.34,19.34,0,0,1-3.54.17c-.33-.31-5.75-4.82-6-4.65C370.19,418.78,368.23,405.75,367.93,405.67Z" style="fill:#edc89a"/><path d="M384.11,399.41c-.25.19-5.39,4.87-5.48,5.07.08,0-5.91,3.12-5.93,2.84a20.93,20.93,0,0,1-4,2.21,39.28,39.28,0,0,1-1.95-4c.14,0,2.76-6.15,2.79-6.25-.15.1,9.9-4,10.11-4C379.63,395.07,384,399.46,384.11,399.41Z" style="fill:#736357"/><path d="M367.84,411.88c-.09.1-1.61,18.41-1.68,18.42a56.25,56.25,0,0,1,6.82-4.06c0-.3.1-5,0-5.13.08-.09-3-2.51-3-2.55,0,.14-.76-5.15-.84-5.29A15.78,15.78,0,0,1,367.84,411.88Z" style="fill:#736357"/><path d="M387.05,412c.05-.07,1.6,18.32,1.61,18.31s-6.69-3.87-6.59-3.92-.07-5.2,0-5.41c-.06.11,2.79-2.27,2.79-2.23s.85-5.56.74-5.51S387,412.13,387.05,412Z" style="fill:#736357"/><path d="M380.56,402.72c0-.09,5.1,6.35,5.15,6.25,0,.1.91-2,.94-2.06s.38-2.76.4-2.9c0,.15-3-4.52-3-4.41A40.22,40.22,0,0,0,380.56,402.72Z" style="fill:#736357"/><path d="M369.4,413.28a1.36,1.36,0,0,1-1.35,1.34,1.33,1.33,0,0,1-1.33-1.31,1.38,1.38,0,0,1,1.36-1.35A1.35,1.35,0,0,1,369.4,413.28Z" style="fill:#65c8d0"/><path d="M388.08,413.3a1.32,1.32,0,0,1-1.29,1.34,1.4,1.4,0,0,1-1.36-1.33,1.33,1.33,0,0,1,1.32-1.32A1.27,1.27,0,0,1,388.08,413.3Z" style="fill:#65c8d0"/><path d="M367.78,458.48c.29,0-3.25,9.06-2.82,8.87a24.36,24.36,0,0,0-.92,4.33c.25-.09,2.23,21.93,1.9,22.12,0-.44,22.85-.21,22.93-.1-.15.05,1.49-21.53,1.55-21.25a46.14,46.14,0,0,0-.86-5.61c-.16-.25-2.79-8.52-2.78-8.52C386.73,458.13,368,458.24,367.78,458.48Z" style="fill:#287572"/><path d="M396.82,442.63c-.71-.24-6.2-13.3-6.83-13.31.52-.08-5.85-2-6.27-1.79-1.24-1.38-6.21,11.71-6.3,11.58-.31-.35-5.14-12.46-6.8-11.69-.1-.33-6.86,1.95-7.09,2,0-.37-5.1,13.18-5.49,13-.24.13,8.86,1,8.44,1,.38.16,1.15,14.93,1.65,15.16,0-.32,8.72-.32,9.23-.39-.65-.06.1.08,0,.36-.05-.27,9.54-.39,9.28-.11-.12-.08.8-15.41.79-15.09C387.52,443.21,396.5,442.64,396.82,442.63Z" style="fill:#287572"/><path d="M445.05,428.34a7.81,7.81,0,0,0,2.19-1.28c0,.08,0-5.16,0-5-.17,0,2.65,1.9,2.57,2s3.8-.13,3.91.2c0-.21,2.52-2.18,2.45-2.37.07.14,0,5.69,0,5.5.09,0,1.73.91,1.83.95s-1.85,3-1.76,3c-.18,0-4.75,9.59-4.68,9.72S445.1,428.53,445.05,428.34Z" style="fill:#ffddb0"/><path d="M441.81,523.55c0,.05,1.17-5.52,1.22-5.5s4.56-.09,4.67-.08c-.11,0,.82,5.55.83,5.62s-3.55.84-3.59.89S441.84,523.61,441.81,523.55Z" style="fill:#7f8c8d"/><path d="M449,490.19c0,.1-1.35,29.88-1.35,30-.12-.32,1,3.08,1,3.19-.08.35-6.71,2.31-6.72,1.87a8.82,8.82,0,0,1,0-1.81c-.05-.08,1.38-3,1.3-3.4,0-.21-2.87-29.6-2.77-29.57C440.32,490.45,448.83,490.07,449,490.19Z" style="fill:#ffddb0"/><path d="M448.61,523.6c-.05,0-1.86-.73-1.93-.74a8.05,8.05,0,0,1-1.55,0c.12,0-1.54,0-1.5,0a10.77,10.77,0,0,1-1.82.69,17.78,17.78,0,0,1-.16,2.47c.07,0,3.47,0,3.55,0s3.57,0,3.5,0S448.6,523.59,448.61,523.6Z" style="fill:#287572"/><path d="M461.35,523.59c0-.07-1.21-5.52-1.17-5.62,0,.08-4.69,0-4.68.11,0-.09-.88,5.55-.84,5.53s3.56.83,3.65.83C458.24,524.43,461.32,523.54,461.35,523.59Z" style="fill:#7f8c8d"/><path d="M454.3,490.68c.09-.63,1.37,29.56,1.27,29.18,0,.17-.86,3.43-.86,4,0-.21,6.51,1.26,6.61,1.8,0,0,.08-2.23,0-1.8-.09-.29-1.46-3.75-1.47-4.12.07.67,2.95-29.68,2.93-29.46C462.86,490.38,454.32,490.57,454.3,490.68Z" style="fill:#ffddb0"/><path d="M454.59,523.57c.05,0,1.91-.71,1.83-.71s1.57,0,1.6,0a9,9,0,0,1,1.47,0s1.8.67,1.82.65.13,2.47.15,2.48-3.45,0-3.47,0-3.55,0-3.53,0A11,11,0,0,0,454.59,523.57Z" style="fill:#287572"/><path d="M432.06,443.33c.32.28-3.33,7-3.1,7.33-.19,0-6.56,4.1-6.67,3.83a49.94,49.94,0,0,1,1.69,7.13c.23-.09,9.44-5.7,9.36-5.87.19.33,7.67-11.6,7.55-11.59C440.83,444.43,432.16,443.52,432.06,443.33Z" style="fill:#ffddb0"/><path d="M442.6,408.05c0-.08-.94-.47-.92-.56,0,.09-.86.23-.84.27s0,4.06,0,4.09,2.63,2.42,2.65,2.44S442.59,408,442.6,408.05Z" style="fill:#ffddb0"/><path d="M460.5,408a3.82,3.82,0,0,0,.86-.51,7.87,7.87,0,0,0,.84.3s0,4,0,4.09-2.66,2.48-2.68,2.44Z" style="fill:#ffddb0"/><path d="M442,406.35c.34.26,12.72-5.46,12.43-5.06.19,0,3.74-1.06,3.5-.83a21.59,21.59,0,0,1,3.23,4.42c-.05,0-2.21,14.71-2.24,14.67s-5.21,4.72-5.42,4.7a17.11,17.11,0,0,0-3.77-.14c.06.22-5.49-4.35-5.53-4.39S442.19,406.55,442,406.35Z" style="fill:#ffddb0"/><path d="M458.05,400.56c.16-.2-5.4,4.61-5.41,4.6.24.06-6,3.06-6.06,3.26,0-.21-3.65,2.15-4,2.07.2.19-1.77-3.94-1.67-4-.05-.06,2.66-6.41,2.52-6.19-.13,0,10.19-4.29,10.22-4.12A51.48,51.48,0,0,1,458.05,400.56Z" style="fill:#d8a912"/><path d="M442,412.8c0,.13-1.37,9.28-1.36,9.1-.06,0,6.47,1.46,6.51,1.4a10.09,10.09,0,0,1,.06-1.32c-.1,0-3.1-2.31-3.13-2.41s-.75-5.41-.75-5.39S441.92,412.91,442,412.8Z" style="fill:#d8a912"/><path d="M461.25,412.79c0,.17,1.28,9.13,1.32,9.2s-6.39,1.37-6.4,1.29,0-1.38-.05-1.36,2.78-2.35,2.73-2.43.88-5.48,1-5.61A11.86,11.86,0,0,0,461.25,412.79Z" style="fill:#d8a912"/><path d="M454.7,403.5c.05.13,5.18,6.4,5.17,6.36s.91-2,.84-2.07c.06.12.48-2.73.52-2.88a48.63,48.63,0,0,1-3.12-4.56A40.35,40.35,0,0,1,454.7,403.5Z" style="fill:#d8a912"/><path d="M443.5,414.19a1.32,1.32,0,0,1-1.33,1.29,1.3,1.3,0,0,1-1.33-1.31,1.34,1.34,0,0,1,1.31-1.33A1.38,1.38,0,0,1,443.5,414.19Z" style="fill:#ba6767"/><path d="M462.18,414.18a1.32,1.32,0,1,1-2.63,0,1.32,1.32,0,1,1,2.63,0Z" style="fill:#ba6767"/><path d="M442.08,459.32c-.11.5-3.15,9-3,8.8,0,.15-.4,4.77-.68,4.35-.14.34,1.92,22,2,22,.05-.13,22.36-.11,22.54.2,0-.34,1.31-21.29,1.5-21.37-.18.23-.52-5.65-.85-5.78.46.44-2.68-7.93-2.41-8.28C460.92,459.35,442.07,459.7,442.08,459.32Z" style="fill:#a74d4b"/><path d="M470.43,443.3c.09-.1-5.71-12.68-5.37-12.54.16,0-7-2.6-7.06-2.09-1.69-1-6.35,11.52-6.41,11.3-.23.06-5.26-12.73-6.71-11.83-.16.09-7.32,2.78-7.19,2.54.22.46-5.63,12.7-5.48,12.93-.29-.24,8.62.82,8.84.71-.26.08.84,15.46,1.35,15.05-.08.36,8.54.45,8.88,0-.38.45.09.07.71.41-.3,0,8.82-.29,8.73-.21-.29.2,1.11-15.5,1.33-15.33S470.9,443.33,470.43,443.3Z" style="fill:#f56462"/><path d="M462.18,434.3c.09,0,4.21-2.3,4.07-2.24s4.34,8.42,4.27,8.27c0,.14-6.89,2.8-6.88,2.8S462.2,434.3,462.18,434.3Z" style="fill:#ffddb0"/><path d="M462.73,444.17c.1.09,2.85,12.94,2.92,13s-1.17,14.68-1.26,15,3.55,2.27,3.58,2.26c.1-.18,4.18-17.07,4.23-16.65-.09-.48-1.62-14.42-1.53-14.59C470.63,443.15,462.74,444,462.73,444.17Z" style="fill:#ffddb0"/><path d="M343.67,469.27c-.09-.55-8.05-.63-8-.63,0-.2-13.61.5-13.43,0-.06.11-.05,8.42-.13,8.08-.05-.1.8,44.88.92,45.4-.23-.19,11.64-.71,11.78-.66-.25-.15,1.7-38.23,2.22-38.52-.53.21,2-3.23,2.25-3.09.12-.11,1.15-.06,1,.32.37.15,2.24,3.06,2.56,2.32,0,.62,2.05,39.29,1.83,39.74.15,0,11.38-.51,11.62-.45,0,0,1.5-45.12,1.12-45.41.37.81.32-8,.19-7.68C357.6,469,343.94,469.05,343.67,469.27Z" style="fill:none;stroke:#002b53;stroke-linecap:round;stroke-linejoin:round;stroke-width:1.6px"/><path d="M323.83,439.38c0,.85-3.27-16.38-3.41-16.31s-2.1,1.19-1.88,1.9c0-.52-11.59,20.76-11.46,20.75-.17-.39-1.64,4.47-1.85,4.37.25-.42-4.59,19.26-4.61,18.91s10.85,2.38,10.88,2.35,3.84-18.23,3.84-17.36C315.47,453.67,323.81,439.84,323.83,439.38Z" style="fill:none;stroke:#002b53;stroke-linecap:round;stroke-linejoin:round;stroke-width:1.6px"/><path d="M330.4,403.84a4.83,4.83,0,0,0-.9-.52,3.36,3.36,0,0,1-.81.22v4.11s2.66,2.47,2.65,2.49S330.44,403.87,330.4,403.84Z" style="fill:#002b53"/><path d="M349,403.82c0,.06.93-.52.89-.46s.84.17.82.27,0,4,0,4.08-2.66,2.46-2.65,2.46S349,403.9,349,403.82Z" style="fill:#002b53"/><path d="M329.4,397.7c0-.43,13-4.84,13.05-5.29a17.14,17.14,0,0,0,2.28-3c-.14.48,2.78,3.51,2.68,3.35.14.11,2.16,5.45,2.37,5.75.16,0-1.22,19.11-1.37,19.22,0-.12-8.49,2.14-8.52,2.47-.33-.24-8.86-2.53-9.14-2.28C330.73,418,329.45,397.3,329.4,397.7Z" style="fill:none;stroke:#002b53;stroke-linecap:round;stroke-linejoin:round;stroke-width:1.6px"/><path d="M329.71,397.54c-.38,0,12.4-4.83,12.66-5a24.13,24.13,0,0,0,2.22-2.84,43.47,43.47,0,0,1,3.06,3.27c-.11.08,2.31,5.34,2.09,5.29.08.26-.5,7.29-.54,7.25s-1.3-.21-1.17-.27c.26.15-.85-5.76-.49-5.86-.19,0-15.88,1.86-15.72,1.75a24.11,24.11,0,0,1-.86,4.42c.26-.22-1-.06-.81-.14A66.42,66.42,0,0,1,329.71,397.54Z" style="fill:none;stroke:#002b53;stroke-linecap:round;stroke-linejoin:round;stroke-width:1.6px"/><path d="M323.74,525c.05,0,10.05,0,10.12-.08s1.93-4.3-5-5.44C328.86,519.54,322.92,519.8,323.74,525Z" style="fill:none;stroke:#002b53;stroke-linecap:round;stroke-linejoin:round;stroke-width:1.6px"/><path d="M355.64,525s-10.16-.06-10.15,0-1.83-4.41,5-5.43C350.52,519.49,356.4,519.79,355.64,525Z" style="fill:none;stroke:#002b53;stroke-linecap:round;stroke-linejoin:round;stroke-width:1.6px"/><path d="M319.92,424.23c-.05.14.17-.67,0-.68-.35-.28,13.67.16,13.82-.65-.13.63,5.85,2.51,6.05,2.27.27.35,6.22-2.09,5.95-1.88.1.31,13.46-.11,13.7.34.4-.61-2,47.07-2.44,47.07.18.51-35.32,0-34.7.52.05-.24-1.17-23.62-1.58-23.1" style="fill:none;stroke:#002b53;stroke-linecap:round;stroke-linejoin:round;stroke-width:1.6px"/><path d="M302,469.06c0,.06-1.24,6.37-1.14,6.22-.09.1,8.35,3.35,8.36,3.38s0-8.15.05-8.19S302,469.08,302,469.06Z" style="fill:none;stroke:#002b53;stroke-linecap:round;stroke-linejoin:round;stroke-width:1.6px"/><path d="M333.39,418.15c.12,0-.08,5.09,0,5.17.13-.09,6.29,1.32,6.41,1.38-.07,0,6-1.4,6.14-1.4s.06-4.67,0-4.68" style="fill:none;stroke:#002b53;stroke-linecap:round;stroke-linejoin:round;stroke-width:1.6px"/><path d="M408.51,418.44c0,.06,0,6.19.14,6.15-.13.06,6.14.86,6.14.88s6.23-.83,6.39-.82c0,0-.11-5.81-.11-5.8S408.6,418.45,408.51,418.44Z" style="fill:#ffddb0"/><path d="M419,469.47c-.44.77-8.26-.14-8-.08.13.31-13.6.58-14.15.33.22,0,.29,7.42.23,8.25,0-.08,1.31,44.89,1.06,44.67-.18.5,11.47.38,11.69.48-.11-.1,1.85-39.24,2.13-39.46-.26-.09,2.61-3.28,2.22-2.6.37-.63,1.38.12,1.42-.65.14.82,2,3.12,1.88,3.21.15.53,2.7,39,2.16,39.36.2-.11,11.86-.79,11.78-.31,0,.06.95-45.07,1.17-44.95a78.59,78.59,0,0,0-.08-7.93C432.87,470.07,418.74,469.79,419,469.47Z" style="fill:#2d95bf"/><path d="M405.52,404.72s-.89-.5-.92-.48-.78.18-.82.17.05,4.08,0,4.1,2.66,2.49,2.66,2.51S405.53,404.63,405.52,404.72Z" style="fill:#ffddb0"/><path d="M424.09,404.62a6.34,6.34,0,0,1,.93-.48s.8.24.84.21,0,4.13,0,4.14-2.64,2.39-2.66,2.45S424.07,404.57,424.09,404.62Z" style="fill:#ffddb0"/><path d="M404.61,398.11s18.09-4.47,18.27-4.29c-.13-.18,1.94,5.2,1.88,5.58.05-.21-1.28,18.79-1.1,19,0-.27-8.67,2.28-9,2.31.28-.23-8.74-2.07-8.58-2C406.19,418.65,404.43,398.23,404.61,398.11Z" style="fill:#ffddb0"/><path d="M398.92,525.79c-.07,0,9.94,0,9.92,0s2-4.49-4.87-5.46C403.81,520.38,397.92,520.66,398.92,525.79Z" style="fill:#34495e"/><path d="M430.8,525.75c0,.08-10.19,0-10.11,0s-2.06-4.45,5-5.49C425.63,520.36,431.68,520.63,430.8,525.75Z" style="fill:#34495e"/><path d="M432.37,469.76c-.07,0-13.83,0-13.59,0H396.83c.46,0,0,.44.34.45l35.08-.42C432.37,469.8,432.53,469.76,432.37,469.76Z" style="fill:#006db5"/><path d="M432.38,471.36c.17,0-35,0-35-.06-.63.83-2.48-47.16-2.36-47.41.29-.23,10.56.57,9.92.53.23-.57,10.44,1.82,10,1.58.4,0,9.11-1.73,9.82-1.44-.54-.22,9.86-.42,9.79-.35C434.35,424.22,432.63,471.29,432.38,471.36Z" style="fill:#34495e"/><path d="M414.82,471.33c.1.78,0-45.41-.06-46,0-.05-9.6-1.64-9.6-1.27.12.21,7.28,47.58,7.41,48C412.58,471.72,414.88,471.52,414.82,471.33Z" style="fill:#ecf0f1"/><path d="M414.78,472.09c.1-.41,0-46.94,0-46.74,0,.58,9.62-1.49,9.65-1.63,0,.53-7.28,47.55-7.14,48.22C417.24,471.92,414.77,471.45,414.78,472.09Z" style="fill:#ecf0f1"/><path d="M339.71,424.78c.06,0-6.29-1.5-6.37-1.55.2.1,6.22,8,6.3,8-.11.09,6.22-7.89,6.2-7.85S339.69,424.64,339.71,424.78Z" style="fill:none;stroke:#002b53;stroke-linecap:round;stroke-linejoin:round;stroke-width:1.6px"/><path d="M367.53,452.53c-.2.05,19.44,0,19.59,0-.08.07-.47,5.8-.43,5.84-.18,0-18.9,0-18.6,0C367.79,458.34,367.46,452.58,367.53,452.53Z" style="fill:#f56462"/><path d="M461.21,459.57c-.21,0-19.18,0-19.31,0,.17,0,.22-1.29-.08-1.28H461C460.67,458.31,461,459.58,461.21,459.57Z" style="fill:#623604"/><path d="M404.92,397.88c-.32.08,7.68-3,7.94-3-.32,0,10-1.51,10.05-1.51s2.19,5.47,2.07,5.39c0,0-.71,7.12-.76,7.15s-.77-.11-.82-.19a41.84,41.84,0,0,1-.75-5.92c-.17.12-15.54,1.66-15.45,1.83-.31-.08-1.1,4.25-.87,4.12a2.29,2.29,0,0,1-.95,0C405.27,405.8,404.78,397.93,404.92,397.88Z" style="fill:#4c300f"/><path d="M468,473.46s0,4.36.08,4.3c-.11.07-6.11,1.23-6,1.14-.07.05,2.86-7.89,2.82-7.89S468,473.51,468,473.46Z" style="fill:#ffddb0"/><g style="clip-path:url(#clip-path)"><path d="M282.54,435.1c-15.64,8-31.63,15.26-47.07,23.62l10.44,13.53c12.32-10.92,21.1-25,33.79-35.6,11.83-9.9,25-18.56,34.71-30.72,5.19-6.5.56-16.54-8.38-14.4-12,2.87-22.74,9.85-33.46,15.64-12.63,6.82-26.11,12-39,18.3L244,439c15.11-12,31-23,45.83-35.38,3.25-2.72,3.13-8.22.67-11.31-2.89-3.63-7-4-11.11-2.22-17.08,7.31-32.62,18-50.31,23.85l8.39,14.4c8.53-9.42,21.19-16,32.07-22.38,9.45-5.54,23-11.87,25.75-23.59,1.49-6.29-4.09-12.43-10.6-10.59-22.3,6.27-40.93,20.68-62.59,28.45l8.38,14.4c11.44-12.36,27.93-19.12,38.41-32.46,5.84-7.45-1.25-18.32-10.44-13.53-11.67,6.08-22.64,13.72-35.1,18.15l9.73,12.66c3-4.08,3.24-9.37,6.09-13.42,3-4.22,6.85-7.66,9.65-12.06,6-9.38-8.93-18-14.88-8.69-2.77,4.35-6.79,7.75-9.65,12.06s-3.13,9.42-6.08,13.41c-4.42,6,2.93,15.07,9.72,12.66,14-5,26.17-13.1,39.22-19.9L256.69,370c-10.46,13.32-27,20.1-38.41,32.46-5.45,5.88-.19,17.47,8.38,14.4,21.64-7.75,40.41-22.21,62.59-28.45l-10.59-10.6c-.55,2.3-5,5.46-8,7.44-4.5,2.9-9.25,5.38-13.77,8.25-10.77,6.85-22.93,13.12-31.59,22.68-5.42,6-.25,17.28,8.39,14.4,19.15-6.4,35.94-17.69,54.41-25.59l-10.44-13.53c-14.81,12.38-30.71,23.37-45.82,35.38-3.31,2.64-3.09,8.28-.67,11.31,2.79,3.51,7.14,4.15,11.11,2.22,12.48-6.05,25.51-11.1,37.75-17.62,9.88-5.26,19.62-12,30.62-14.58l-8.38-14.4c-9.7,12.16-22.88,20.81-34.71,30.71-12.7,10.63-21.48,24.68-33.79,35.61-7.53,6.68,2.08,18.06,10.44,13.53,15.44-8.37,31.42-15.65,47.06-23.62,9.88-5,1.18-19.9-8.69-14.88Z" style="fill:#287572"/></g><path d="M303.06,202.65c9.37-5,19.95-7.38,28.78-13.41,6.28-4.27.76-14.07-6-10.28-8.54,4.78-17.32,9.1-25.58,14.34-4.5,2.85-3.27,11.92,3,11.09,11-1.46,20.63-6.37,31-9.91,11.32-3.86,22.85-7.08,34.12-11.09l-4.59-10.88c-7.5,4.2-15.82,7.33-23.94,10.15-6.47,2.25-13.87,4.38-18.47,9.78-2.93,3.43-1.86,8.54,2.62,9.95,9.31,2.94,19.1-2.46,27.53-5.79,10.89-4.29,22-10,33.6-11.88l-5.79-9.95c-5.26,4.67-13.63,7-20,9.83-7.65,3.33-15.6,6-22.49,10.8-5.27,3.7-2.27,12.86,4.58,10.88,10.54-3,20.78-7,31.12-10.61,9.38-3.31,19.14-8.51,29.11-9.58l-1.58-11.69A333.11,333.11,0,0,0,362,189.75c-5.53,2.66-2.58,11,3,11.09,10.64.12,20.72-4.73,30.67-7.92,8.89-2.84,18.28-8.83,27.9-7.69l-4.21-10.16c-5.73,6.66-16.6,6.55-20.82,15.17-1.85,3.78.31,9.23,5.14,9,5.78-.33,10.91-2.14,16.14-4.53,5-2.3,10.09-5.44,15.7-6.06l-4.21-10.16c-2.8,3.45-7.94,4.66-11.87,6.41-5.68,2.52-11.53,4.75-16.86,8-5,3-3,11.16,3,11.1,7.31-.09,13.68-3,20.41-5.51,7.78-2.87,16-4.61,24-6.71L443.35,183c-.8,1.35-4.62,2-6,2.52a34.15,34.15,0,0,0-7.66,3.34c-3.94,2.64-3.92,9.78,1.42,10.88,13.1,2.71,24.85-9.19,37.72-7.76l-5.14-9c-1.63,2.57-7.13,3.62-9.76,4.75-4.68,2-9.52,4-13.63,7-4.31,3.17-3.48,11.46,3,11.1s12-3,18-5.21a88.63,88.63,0,0,1,20.91-5.4L478,185.09c-3.69,3.26-9.58,3.91-14.13,5.39-6,2-5.43,12.39,1.58,11.69a42.5,42.5,0,0,0,8.7-1.9c2.42-.76,5.3-2,7.86-1.36l-4.16-7.33-.22.7c-1,3.24,1.23,6.25,4.16,7.32l.67.25-3.56-8.75a19.81,19.81,0,0,1-2.93,3.6c-4.2,4.66,0,10.88,5.79,10a15.75,15.75,0,0,0,5.32-2c6.69-3.74.7-14-6-10.28a4.46,4.46,0,0,1-2.47.8l5.79,10a34.23,34.23,0,0,0,4.8-6c2-3.57.06-7.42-3.56-8.74l-.68-.25,4.16,7.32.22-.69a6,6,0,0,0-4.16-7.32c-7.28-1.93-12.74,2.14-19.72,2.83L467,202c6.85-2.23,13.82-3.54,19.38-8.45,3.66-3.23.92-10.72-4.21-10.16a104.88,104.88,0,0,0-21.32,4.86c-5.72,1.87-11.46,5.39-17.56,5.74l3,11.09c4.53-3.34,9.94-5.48,15.14-7.57,4.84-1.94,9.62-3.9,12.52-8.47,2.66-4.17-.94-8.5-5.14-9-6.32-.7-12.63,1.86-18.5,3.84-2.56.86-5.15,1.58-7.72,2.41-2.35.75-5.84,2.46-8.33,1.94l1.42,10.88c5.79-3.86,14-3.53,17.92-10.13,2.68-4.52-1.74-10-6.72-8.74-7.53,2-15.24,3.66-22.61,6.19-6.09,2.09-12.11,5.52-18.68,5.6l3,11.09c5.57-3.37,11.73-5.78,17.7-8.34,4.75-2.05,10.06-3.75,13.44-7.91,2.82-3.49,1.48-10.79-4.21-10.16a49.93,49.93,0,0,0-16,5c-5.07,2.37-10.13,5.3-15.83,5.62l5.14,9c1.55-3.16,5.9-4.5,8.87-6,3.64-1.79,7.4-3.67,10.09-6.8,3.58-4.17,1-9.55-4.21-10.16-10-1.19-19.54,4-28.62,7.28-9.28,3.32-20,8.44-30,8.32l3,11.1a306.76,306.76,0,0,1,35.2-14.15c6-2,5.48-12.45-1.58-11.69-10.74,1.14-20.42,5.86-30.51,9.38-10.94,3.82-21.74,8-32.88,11.23l4.59,10.88c7.33-5.14,15.87-7.76,23.95-11.45,7.15-3.27,15-5.74,21-11,4.9-4.35-.49-10.8-5.79-9.95-11.09,1.79-21.23,7.29-31.68,11.15-6.47,2.39-16.05,8.75-23.11,6.52l2.63,10c4-4.68,11.15-5.83,16.66-8,7.88-3,16-6,23.34-10.12,5.75-3.23,1.89-13.19-4.59-10.88-10.66,3.8-21.54,6.91-32.27,10.47-9.79,3.25-19.38,8.74-29.7,10.11l3,11.09c8.26-5.24,17-9.56,25.57-14.34l-6-10.28c-8.83,6-19.42,8.44-28.79,13.41-6.77,3.59-.76,13.88,6,10.28Z" style="fill:#cdf1fc"/><path d="M269,186.43c15.29.23,22.22,4.67,33.37,12.36,7.82-12.31,16.41-19.66,29.71-19.48,11.45-.51,15.49,1.8,19.08,5.91,8.47-7.67,14.52-12.6,27.76-12.62,12.16-.31,16,1.75,21,3.71,7.14-3.17,11.55-5.71,21.17-5.7,9.41-.38,24.29,7,27.62,17.76,7.05.74,9.78,3,6.89,5.44,13.26-2.61,8.36-3.34,20.1-3.85,12.23.26,18.06,4.62,21.4,10.48,7.36.31-253.57.32-251.93-.73C253.24,192.56,266.12,187.3,269,186.43Z" style="fill:none;stroke:#002b53;stroke-linecap:round;stroke-linejoin:round;stroke-width:1.7000000000000002px"/><g style="clip-path:url(#clip-path-2)"><path d="M172.49,437.6c6.15-3.64,7.87-11.83,11.07-17.7,4.49-8.26,10.27-9.37,18.94-5.28l-1.21-9.35C187.39,423,167.9,436.12,159,457.44c-1.92,4.61,4.76,9.79,8.75,6.72C182.2,453,194,438.81,208.66,428l-8.14-8.14c-8.36,12.1-18.3,23-26.71,35-3.92,5.6,4.7,12,9.35,7.21,11-11.22,23.75-20.44,34.89-31.47l-10-5.8c-3.17,7.61-8.19,16-14.91,21l7.21,9.35c7.12-9,11.36-19.8,18.37-28.86,3.23-4.18.49-12.1-5.8-9.95-10.35,3.54-18.84,11.72-29.58,13.9l7.53,5.74c1.06-15.9,16.2-26.23,21.25-40.79,1.38-4-3.16-9-7.33-7.33-5.06,2.08-8.56,5.94-13.15,8.74l8.14,8.15c4.56-7.83,13.16-12.22,18-19.95,3.5-5.57-3.16-10.29-8.15-8.15-9.65,4.14-18.58,9.68-28.12,14.06l7.22,9.35c1.5-1.5,3-3,4.58-4.42.75-.65,1.73-1.22,2.41-1.92,1.76-1.83,2.56.46-1.16-1.23,6.92,3.15,13-7.11,6-10.28-8.06-3.67-15,4.22-20.26,9.43-5,5,1.31,12.06,7.21,9.35,9.54-4.38,18.47-9.92,28.12-14.06l-8.14-8.14c-4.83,7.68-13.38,12-18,20-3,5.07,3,11.28,8.15,8.14,3.5-2.14,6.51-6,10.31-7.54L200.69,392c-2.66,7.68-8.24,13.72-12.87,20.25A45.3,45.3,0,0,0,179,436c-.28,4.11,4,6.45,7.53,5.74,11-2.23,19.16-10.33,29.59-13.89l-5.79-9.95c-7,9.06-11.29,19.92-18.36,28.85-3.78,4.77,1.26,13.75,7.21,9.35,9.49-7,15.89-17.31,20.38-28.08,2.4-5.76-6.05-9.65-10-5.79-11.14,11-23.93,20.26-34.89,31.47l9.35,7.22c8.41-12.05,18.35-22.92,26.71-35,3.29-4.77-3.36-11.66-8.15-8.15-14.75,10.84-26.46,25-40.92,36.16l8.74,6.73c7.9-18.91,26.88-31.16,39.24-46.92,2.14-2.72,2.63-7.54-1.2-9.35-10.89-5.13-23.13-6.34-31.43,3.85A51.61,51.61,0,0,0,170.34,420c-.78,1.75-1.53,3.53-2.46,5.21-.37.67-.83,1.29-1.19,2,.19-.36-.33.19-.21.11-6.59,3.9-.6,14.2,6,10.28Z" style="fill:#577e2e"/></g><path d="M33.87,18.11c-.08.11-.19.29-.33.52s-.28.51-.42.81-.27.62-.39.94-.23.6-.31.85A12.9,12.9,0,0,0,32,24.08a4.63,4.63,0,0,0,.63,2.6,1,1,0,0,0,1.31-.1,5.44,5.44,0,0,0,1.22-1.52c.39-.67.77-1.42,1.15-2.25s.72-1.59,1.06-2.28.71-1.46,1.14-2.37.87-1.83,1.33-2.75.92-1.77,1.37-2.56A16.26,16.26,0,0,1,42.44,11a1,1,0,0,1,.54-.35.83.83,0,0,1,.54.06.73.73,0,0,1,.35.42,1.34,1.34,0,0,1,0,.79c0,.11-.05.21-.08.29a2.41,2.41,0,0,0-.08.25h.08c-.06.06-.08.1-.08.12a24.32,24.32,0,0,0-.56,3.73C43,17.61,43,18.79,43,19.9a26.44,26.44,0,0,0,.19,3,18.37,18.37,0,0,0,.33,2,1,1,0,0,0,.17.38c.05.05.12-.07.21-.38a9.84,9.84,0,0,1,.58-1.45c.33-.75.72-1.62,1.18-2.6s1-2,1.52-3.08,1.09-2.05,1.6-3,1-1.65,1.39-2.23.74-.87,1-.87A1.18,1.18,0,0,1,52,12a22.52,22.52,0,0,0-1,4.62,41.43,41.43,0,0,0-.31,4.74,9.07,9.07,0,0,0,.61,3.87,1.78,1.78,0,0,0,1.56,1.2,1.52,1.52,0,0,0,1-.46A5.84,5.84,0,0,0,55,24.39a27.83,27.83,0,0,0,1.37-3.16q.75-2,1.75-5.07c.77,0,1,.51.79,1.54a56.38,56.38,0,0,1-1.65,5.45,19.1,19.1,0,0,1-1.64,3.53,6.14,6.14,0,0,1-1.7,1.91,3.15,3.15,0,0,1-4.6-1.08c-.73-1.11-1.1-3-1.1-5.57,0-.39,0-.81,0-1.27s.07-1,.13-1.48q-1,2-1.83,4a21,21,0,0,0-1.21,3.11,5.92,5.92,0,0,1-.87,2.08,1.36,1.36,0,0,1-1,.54,1.6,1.6,0,0,1-1.27-.7,5.59,5.59,0,0,1-.89-2.33,20.18,20.18,0,0,1-.36-3.93q0-2.36.15-4.68c-.42.8-.83,1.62-1.23,2.43s-.8,1.62-1.19,2.39-.7,1.49-1.1,2.31a19.53,19.53,0,0,1-1.29,2.27,8.3,8.3,0,0,1-1.49,1.74,2.66,2.66,0,0,1-1.81.71,2.4,2.4,0,0,1-1.85-.73,4.27,4.27,0,0,1-1-1.83,8.88,8.88,0,0,1-.31-2.45,13,13,0,0,1,.25-2.6,10.43,10.43,0,0,1,.35-1.29A8.45,8.45,0,0,1,31,18.92a9.14,9.14,0,0,1,.69-1.08,2.75,2.75,0,0,1,.73-.72,1.05,1.05,0,0,1,.72-.3,1.16,1.16,0,0,1,.65.17.79.79,0,0,1,.33.48A.66.66,0,0,1,33.87,18.11Z" style="fill:#002b53"/><path d="M75.17,17.91A13.26,13.26,0,0,1,74,21.09a10.1,10.1,0,0,1-1.66,2.26,7.4,7.4,0,0,1-2,1.42,7.54,7.54,0,0,1-2.12.66,7.37,7.37,0,0,1-2.39,3.39A5.54,5.54,0,0,1,62.4,30a4.86,4.86,0,0,1-4-2q-1.56-2-1.56-6a15.43,15.43,0,0,1,.45-3.64,10.79,10.79,0,0,1,1.38-3.26,5.29,5.29,0,0,1,1.16-3,3.45,3.45,0,0,1,2.75-1.16,4.71,4.71,0,0,1,2.68.79,6.93,6.93,0,0,1,2,2.14A10.89,10.89,0,0,1,68.53,17,16.91,16.91,0,0,1,69,20.94a13.15,13.15,0,0,1-.17,2.21,5.52,5.52,0,0,0,1.6-.59,5.27,5.27,0,0,0,1.46-1.18,9.36,9.36,0,0,0,1.31-2,21.06,21.06,0,0,0,1.21-3C75.15,16.37,75.42,16.88,75.17,17.91ZM62.94,27.47A3.3,3.3,0,0,0,64.73,27a4.33,4.33,0,0,0,1.41-1.52,7.49,7.49,0,0,1-2.26-.81,9,9,0,0,1-2-1.52A10.32,10.32,0,0,1,60.2,21a10.75,10.75,0,0,1-1.13-2.43,10.59,10.59,0,0,0-.23,1.33c0,.45-.06.9-.06,1.38A7.38,7.38,0,0,0,60,25.89,3.61,3.61,0,0,0,62.94,27.47ZM60.36,15.54a6.63,6.63,0,0,0,.58,2.64,9.71,9.71,0,0,0,1.5,2.37,9,9,0,0,0,2.08,1.78,6,6,0,0,0,2.41.9,8,8,0,0,0,.17-1.79,12.89,12.89,0,0,0-.4-3.31,8.79,8.79,0,0,0-1.06-2.57,5.42,5.42,0,0,0-1.54-1.67,3.17,3.17,0,0,0-1.82-.6,1.75,1.75,0,0,0-1.54.71.9.9,0,0,1,.45.5A6.87,6.87,0,0,0,60.36,15.54Z" style="fill:#002b53"/><path d="M92.47,16.37c.77,0,1,.51.79,1.54-.56,2.16-1.09,4-1.61,5.42a20.75,20.75,0,0,1-1.53,3.5,5.71,5.71,0,0,1-1.63,1.87,3.16,3.16,0,0,1-1.76.56,2.8,2.8,0,0,1-2.35-1.19A8.1,8.1,0,0,1,83,25.14a15,15,0,0,1-2.31,3.39,3.67,3.67,0,0,1-2.64,1.35,3.49,3.49,0,0,1-3-2c-.8-1.35-1.2-3.45-1.2-6.27a29.61,29.61,0,0,1,.5-5.47,23.15,23.15,0,0,1,1.2-4.47c.42-1,.94-1.5,1.58-1.5a1.43,1.43,0,0,1,.79.21,12.14,12.14,0,0,0-.64,1.85c-.21.76-.4,1.61-.56,2.53s-.3,1.9-.4,2.89a29.23,29.23,0,0,0-.14,2.92,17.42,17.42,0,0,0,.22,3,10,10,0,0,0,.57,2,2.93,2.93,0,0,0,.77,1.16,1.35,1.35,0,0,0,.89.38A2.65,2.65,0,0,0,80.51,26a14.32,14.32,0,0,0,2.06-3.61,7.81,7.81,0,0,1,0-.83v-.84a15,15,0,0,1,.27-2.85,15.63,15.63,0,0,1,.68-2.47,7.65,7.65,0,0,1,.92-1.75c.33-.44.65-.66.95-.66.53,0,.79.41.79,1.25a16.39,16.39,0,0,1-.43,3.24,30.74,30.74,0,0,1-1.23,4.2,7.41,7.41,0,0,0,.87,3.72A2.19,2.19,0,0,0,87.1,26.6a1.58,1.58,0,0,0,1-.4,5.13,5.13,0,0,0,1.12-1.52,26.46,26.46,0,0,0,1.42-3.11Q91.42,19.56,92.47,16.37ZM79.82.23A4,4,0,0,0,81,3.12a4.7,4.7,0,0,0,2.76,1.35,4.61,4.61,0,0,0,3-.39,4,4,0,0,0,2-2.31A2,2,0,0,1,89.85,2,1,1,0,0,1,90.26,3a3.74,3.74,0,0,1-.79,1.66,5.52,5.52,0,0,1-1.6,1.37,6.79,6.79,0,0,1-2.18.82,8,8,0,0,1-2.75,0,7.22,7.22,0,0,1-2.33-.79A6.84,6.84,0,0,1,78.8,4.7,5.48,5.48,0,0,1,77.7,3a3.65,3.65,0,0,1-.25-1.87A1.2,1.2,0,0,1,78.31.09,2,2,0,0,1,79.82.23Z" style="fill:#002b53"/><path d="M95.08,46.89a5.52,5.52,0,0,0,.82,2.91,7.18,7.18,0,0,0,2.3,2.29,12.84,12.84,0,0,0,3.66,1.52,19.79,19.79,0,0,0,4.91.56,13.7,13.7,0,0,0,6.88-1.62A10.53,10.53,0,0,0,118,47.93a16.17,16.17,0,0,0,1.14-4.18,24.8,24.8,0,0,0,.17-4.22,34.5,34.5,0,0,0-.48-4.26c-.25-1.43-.52-2.87-.79-4.31s-.68-2.89-1-4.2-.65-2.49-.88-3.57a14.39,14.39,0,0,1-3.11,5,5.43,5.43,0,0,1-3.79,1.72,3.88,3.88,0,0,1-3.28-1.7,8.1,8.1,0,0,1-1.25-4.83,17.62,17.62,0,0,1,.69-5,14.37,14.37,0,0,1,1.82-4,8.89,8.89,0,0,1,2.67-2.66,5.85,5.85,0,0,1,3.18-1,4.1,4.1,0,0,1,1.64.31,4.59,4.59,0,0,1,1.27.81,3.45,3.45,0,0,1,.83,1.15,3.2,3.2,0,0,1,.29,1.31c0,.13,0,.27,0,.39s0,.26-.06.4a1.17,1.17,0,0,1,.33-.09c.67,0,1,.6,1,1.79a7.73,7.73,0,0,1-.67,3c.09.67.25,1.57.5,2.71s.54,2.36.86,3.68.65,2.65,1,4,.68,2.62,1,3.78a31,31,0,0,1,.71,6.41,20,20,0,0,1-1,6.51,14.42,14.42,0,0,1-3,5.13,13.41,13.41,0,0,1-4.88,3.37A17.58,17.58,0,0,1,106,56.5a19.56,19.56,0,0,1-5.43-.71,14.08,14.08,0,0,1-4.15-1.91A8.72,8.72,0,0,1,93.78,51a7.06,7.06,0,0,1-.94-3.54,2.09,2.09,0,0,1,.39-1.25,1.9,1.9,0,0,1,.86-.7.75.75,0,0,1,.79.12C95.1,45.84,95.17,46.25,95.08,46.89Zm21-30.73a1.07,1.07,0,0,1-.92-.08,3.35,3.35,0,0,0-.68-2,3,3,0,0,0-.88-.75,2.47,2.47,0,0,0-1.22-.29,3.48,3.48,0,0,0-2,.71,6.44,6.44,0,0,0-1.77,2,12,12,0,0,0-1.25,3,14.37,14.37,0,0,0-.48,3.82A7.06,7.06,0,0,0,107.6,26a2.24,2.24,0,0,0,2,1.22c.89,0,1.88-.6,3-1.81a15.81,15.81,0,0,0,3-5.71,12.58,12.58,0,0,1,.14-2.06A7.24,7.24,0,0,1,116.13,16.16Z" style="fill:#002b53"/><path d="M140.87,17.91a13.26,13.26,0,0,1-1.21,3.18A10.1,10.1,0,0,1,138,23.35a7.35,7.35,0,0,1-1.95,1.42,7.61,7.61,0,0,1-2.13.66,7.37,7.37,0,0,1-2.39,3.39A5.54,5.54,0,0,1,128.1,30a4.87,4.87,0,0,1-4-2q-1.56-2-1.56-6a14.94,14.94,0,0,1,.46-3.64,10.53,10.53,0,0,1,1.37-3.26,5.29,5.29,0,0,1,1.16-3,3.45,3.45,0,0,1,2.75-1.16,4.69,4.69,0,0,1,2.68.79,6.93,6.93,0,0,1,2,2.14A11.18,11.18,0,0,1,134.24,17a16.92,16.92,0,0,1,.43,3.91,13.23,13.23,0,0,1-.16,2.21,5.74,5.74,0,0,0,1.6-.59,5.23,5.23,0,0,0,1.45-1.18,9,9,0,0,0,1.31-2,21.06,21.06,0,0,0,1.21-3C140.86,16.37,141.12,16.88,140.87,17.91Zm-12.23,9.56a3.27,3.27,0,0,0,1.79-.52,4.27,4.27,0,0,0,1.42-1.52,7.45,7.45,0,0,1-2.27-.81,9,9,0,0,1-2-1.52,11.06,11.06,0,0,1-2.76-4.49,7.89,7.89,0,0,0-.23,1.33c0,.45-.07.9-.07,1.38a7.45,7.45,0,0,0,1.21,4.57A3.61,3.61,0,0,0,128.64,27.47Zm-2.57-11.93a6.46,6.46,0,0,0,.58,2.64,9.39,9.39,0,0,0,1.49,2.37,9.26,9.26,0,0,0,2.08,1.78,6,6,0,0,0,2.42.9,8.11,8.11,0,0,0,.16-1.79,13.35,13.35,0,0,0-.39-3.31,9.37,9.37,0,0,0-1.06-2.57,5.67,5.67,0,0,0-1.54-1.67,3.2,3.2,0,0,0-1.83-.6,1.75,1.75,0,0,0-1.54.71.91.91,0,0,1,.46.5A5.82,5.82,0,0,0,126.07,15.54Z" style="fill:#002b53"/><path d="M141.78,18.11c-.08.11-.19.29-.33.52s-.28.51-.42.81-.27.62-.39.94-.23.6-.31.85a13.53,13.53,0,0,0-.38,2.85,4.63,4.63,0,0,0,.63,2.6,1,1,0,0,0,1.31-.1,5.44,5.44,0,0,0,1.22-1.52c.39-.67.77-1.42,1.15-2.25s.73-1.59,1.06-2.28.71-1.46,1.14-2.37.87-1.83,1.33-2.75.92-1.77,1.37-2.56A16.26,16.26,0,0,1,150.35,11a1,1,0,0,1,.54-.35.83.83,0,0,1,.54.06.7.7,0,0,1,.35.42,1.34,1.34,0,0,1,0,.79,1.71,1.71,0,0,1-.08.29,2.41,2.41,0,0,0-.08.25h.08c-.06.06-.08.1-.08.12a24.32,24.32,0,0,0-.56,3.73c-.1,1.26-.14,2.44-.13,3.55a29,29,0,0,0,.19,3,18.37,18.37,0,0,0,.33,2,1,1,0,0,0,.17.38c.05.05.12-.07.21-.38a11.21,11.21,0,0,1,.58-1.45c.33-.75.72-1.62,1.18-2.6s1-2,1.52-3.08,1.09-2.05,1.6-3,1-1.65,1.39-2.23.74-.87,1-.87a1.18,1.18,0,0,1,.87.33,21.9,21.9,0,0,0-1,4.62,39.41,39.41,0,0,0-.32,4.74,9.07,9.07,0,0,0,.61,3.87,1.78,1.78,0,0,0,1.56,1.2,1.56,1.56,0,0,0,1-.46,6.08,6.08,0,0,0,1.14-1.62,27.83,27.83,0,0,0,1.37-3.16q.75-2,1.75-5.07c.77,0,1,.51.79,1.54a56.38,56.38,0,0,1-1.65,5.45,19.1,19.1,0,0,1-1.64,3.53,6.14,6.14,0,0,1-1.7,1.91,3.15,3.15,0,0,1-4.6-1.08c-.73-1.11-1.1-3-1.1-5.57,0-.39,0-.81,0-1.27s.07-1,.13-1.48q-1,2-1.83,4a21,21,0,0,0-1.21,3.11,5.92,5.92,0,0,1-.87,2.08,1.35,1.35,0,0,1-1,.54,1.6,1.6,0,0,1-1.27-.7,5.73,5.73,0,0,1-.89-2.33,20.18,20.18,0,0,1-.36-3.93q0-2.36.15-4.68c-.42.8-.83,1.62-1.23,2.43l-1.18,2.39c-.34.73-.71,1.49-1.11,2.31a19.53,19.53,0,0,1-1.29,2.27,8.3,8.3,0,0,1-1.49,1.74,2.66,2.66,0,0,1-1.81.71,2.4,2.4,0,0,1-1.85-.73,4.27,4.27,0,0,1-1-1.83,8.88,8.88,0,0,1-.31-2.45,13,13,0,0,1,.25-2.6,10.43,10.43,0,0,1,.35-1.29,8.45,8.45,0,0,1,.56-1.27,9.14,9.14,0,0,1,.69-1.08,2.75,2.75,0,0,1,.73-.72,1.05,1.05,0,0,1,.72-.3,1.16,1.16,0,0,1,.65.17.79.79,0,0,1,.33.48A.66.66,0,0,1,141.78,18.11Z" style="fill:#002b53"/><path d="M317.38,282a6.21,6.21,0,0,1-2.48-.5,5.21,5.21,0,0,1-2-1.5,7.18,7.18,0,0,1-1.31-2.51,12.07,12.07,0,0,1-.48-3.6,15.54,15.54,0,0,1,.58-4.2,13.75,13.75,0,0,1,1.6-3.62,9.14,9.14,0,0,1,2.42-2.56,5.12,5.12,0,0,1,3-1,3.14,3.14,0,0,1,2.81,1.33,6,6,0,0,1,.89,3.41,8.49,8.49,0,0,1-.25,2.14,6.85,6.85,0,0,1-.64,1.68,3.62,3.62,0,0,1-.9,1.1,1.52,1.52,0,0,1-1,.4.93.93,0,0,1-.77-.42,2.23,2.23,0,0,1-.36-1.24,6.41,6.41,0,0,1,.44-2.67,5.74,5.74,0,0,1,1.48-2.24,2.65,2.65,0,0,0-.77-.94,2.06,2.06,0,0,0-1.23-.35,3.48,3.48,0,0,0-2,.67,6,6,0,0,0-1.66,1.8,10.69,10.69,0,0,0-1.14,2.67,11.6,11.6,0,0,0-.44,3.22,7.78,7.78,0,0,0,1.21,4.8,4,4,0,0,0,3.32,1.56,5.9,5.9,0,0,0,2.31-.48,6.59,6.59,0,0,0,2.27-1.72,15.72,15.72,0,0,0,2.22-3.41,39.47,39.47,0,0,0,2.23-5.58c.77,0,1,.52.79,1.54a29.67,29.67,0,0,1-2,5.85,15.62,15.62,0,0,1-2.5,3.76,7.54,7.54,0,0,1-5.65,2.58Z" style="fill:#002b53"/><path d="M343.91,269.83A13.26,13.26,0,0,1,342.7,273a9.94,9.94,0,0,1-1.66,2.27,7.35,7.35,0,0,1-2,1.42,7.65,7.65,0,0,1-2.12.66,7.46,7.46,0,0,1-2.4,3.39,5.53,5.53,0,0,1-3.43,1.18,4.86,4.86,0,0,1-4-2,9.67,9.67,0,0,1-1.56-6,14.94,14.94,0,0,1,.46-3.64,10.53,10.53,0,0,1,1.37-3.26,5.23,5.23,0,0,1,1.17-3,3.43,3.43,0,0,1,2.74-1.16,4.69,4.69,0,0,1,2.68.79,6.82,6.82,0,0,1,2,2.14,10.9,10.9,0,0,1,1.27,3.18,16.85,16.85,0,0,1,.43,3.91,13,13,0,0,1-.16,2.2,5.6,5.6,0,0,0,1.6-.58,5.42,5.42,0,0,0,1.45-1.18,9.23,9.23,0,0,0,1.31-2,20.76,20.76,0,0,0,1.21-3C343.9,268.29,344.16,268.81,343.91,269.83Zm-12.23,9.57a3.36,3.36,0,0,0,1.79-.52,4.27,4.27,0,0,0,1.42-1.52,7.45,7.45,0,0,1-2.27-.81,9.5,9.5,0,0,1-2-1.52,11.06,11.06,0,0,1-2.76-4.49,8.82,8.82,0,0,0-.23,1.33c0,.44-.06.9-.06,1.37a7.48,7.48,0,0,0,1.2,4.58A3.62,3.62,0,0,0,331.68,279.4Zm-2.57-11.94a6.39,6.39,0,0,0,.58,2.64,9.08,9.08,0,0,0,1.5,2.37,8.81,8.81,0,0,0,2.07,1.79,6,6,0,0,0,2.42.9,8.11,8.11,0,0,0,.16-1.79,13.3,13.3,0,0,0-.39-3.31,9.58,9.58,0,0,0-1.06-2.58,5.75,5.75,0,0,0-1.54-1.66,3.17,3.17,0,0,0-1.83-.6,1.75,1.75,0,0,0-1.54.7,1,1,0,0,1,.46.5A6.64,6.64,0,0,0,329.11,267.46Z" style="fill:#002b53"/><path d="M348.28,282a6.17,6.17,0,0,1-2.48-.5,5.21,5.21,0,0,1-2-1.5,7,7,0,0,1-1.31-2.51,12.07,12.07,0,0,1-.48-3.6,15.16,15.16,0,0,1,.58-4.2,13.43,13.43,0,0,1,1.6-3.62,9.11,9.11,0,0,1,2.41-2.56,5.17,5.17,0,0,1,3-1,3.15,3.15,0,0,1,2.81,1.33,6,6,0,0,1,.89,3.41,8.49,8.49,0,0,1-.25,2.14,7.27,7.27,0,0,1-.64,1.68,3.77,3.77,0,0,1-.9,1.1,1.53,1.53,0,0,1-1,.4.94.94,0,0,1-.77-.42,2.32,2.32,0,0,1-.35-1.24,6.41,6.41,0,0,1,.44-2.67,5.63,5.63,0,0,1,1.48-2.24,2.76,2.76,0,0,0-.77-.94,2.06,2.06,0,0,0-1.23-.35,3.48,3.48,0,0,0-2,.67,5.9,5.9,0,0,0-1.66,1.8,10.69,10.69,0,0,0-1.15,2.67,11.6,11.6,0,0,0-.43,3.22,7.85,7.85,0,0,0,1.2,4.8,4,4,0,0,0,3.33,1.56A5.94,5.94,0,0,0,351,279a6.47,6.47,0,0,0,2.26-1.72,16.09,16.09,0,0,0,2.23-3.41,39.58,39.58,0,0,0,2.22-5.58c.78,0,1,.52.79,1.54a29.71,29.71,0,0,1-2,5.85,15.62,15.62,0,0,1-2.5,3.76,8,8,0,0,1-2.78,2A7.9,7.9,0,0,1,348.28,282Z" style="fill:#002b53"/><path d="M371.94,268.29c.77,0,1,.52.79,1.54a25.54,25.54,0,0,1-2,5.41,16.87,16.87,0,0,1-2.58,3.78,10,10,0,0,1-2.89,2.23,6.6,6.6,0,0,1-2.87.73,5,5,0,0,1-4.15-2c-1.06-1.33-1.58-3.34-1.58-6a15.89,15.89,0,0,1,.6-4.47,12.92,12.92,0,0,1,1.56-3.51,7.92,7.92,0,0,1,2.2-2.29,4.54,4.54,0,0,1,2.58-.83,3.16,3.16,0,0,1,1.54.35,3.28,3.28,0,0,1,1,1,3.91,3.91,0,0,1,.6,1.41,7.4,7.4,0,0,1,.19,1.73,7.58,7.58,0,0,1-.48,2.74,7.38,7.38,0,0,1-1.25,2.16,5.56,5.56,0,0,1-1.74,1.42,4.37,4.37,0,0,1-2,.5,4.81,4.81,0,0,1-1.68-.32,2.76,2.76,0,0,1-1.31-.89v.33a7.7,7.7,0,0,0,1.18,4.66,3.61,3.61,0,0,0,3,1.58,5.27,5.27,0,0,0,2.22-.56,8.11,8.11,0,0,0,2.39-1.87,16.92,16.92,0,0,0,2.37-3.45A32.77,32.77,0,0,0,371.94,268.29ZM363,265a2.19,2.19,0,0,0-1.25.44,5.27,5.27,0,0,0-1.18,1.18,8.85,8.85,0,0,0-1,1.75,10.36,10.36,0,0,0-.71,2.12,2.23,2.23,0,0,0,1,1.16,2.85,2.85,0,0,0,1.52.42,2.76,2.76,0,0,0,1.16-.27,3.17,3.17,0,0,0,1.06-.83,4.71,4.71,0,0,0,.79-1.38,5.2,5.2,0,0,0,.31-1.89,4.18,4.18,0,0,0-.41-1.89A1.34,1.34,0,0,0,363,265Z" style="fill:#002b53"/><path d="M361,298.82a5.51,5.51,0,0,0,.81,2.91,7.12,7.12,0,0,0,2.31,2.29,12.72,12.72,0,0,0,3.66,1.51,19.23,19.23,0,0,0,4.9.57,13.74,13.74,0,0,0,6.89-1.63,10.48,10.48,0,0,0,4.3-4.61,16.17,16.17,0,0,0,1.14-4.18,23.81,23.81,0,0,0,.17-4.22,34.28,34.28,0,0,0-.48-4.26c-.25-1.43-.51-2.87-.79-4.31s-.68-2.9-1-4.2-.65-2.49-.87-3.58a14.45,14.45,0,0,1-3.12,5,5.41,5.41,0,0,1-3.78,1.73,3.88,3.88,0,0,1-3.29-1.71,8,8,0,0,1-1.25-4.82,17.62,17.62,0,0,1,.69-5,14.67,14.67,0,0,1,1.83-4,9,9,0,0,1,2.66-2.67,5.92,5.92,0,0,1,3.18-.95,4.07,4.07,0,0,1,1.64.31,4.45,4.45,0,0,1,1.27.81,3.41,3.41,0,0,1,.83,1.14,3.08,3.08,0,0,1,.29,1.31,2.61,2.61,0,0,1,0,.4,2.85,2.85,0,0,1-.06.39,1.74,1.74,0,0,1,.33-.08c.67,0,1,.6,1,1.79a7.89,7.89,0,0,1-.66,2.95c.08.67.25,1.57.5,2.7s.53,2.37.85,3.68.66,2.66,1,4,.68,2.62.95,3.78a30.24,30.24,0,0,1,.71,6.41,19.91,19.91,0,0,1-1,6.5,14.5,14.5,0,0,1-3,5.14,13.66,13.66,0,0,1-4.89,3.37,17.54,17.54,0,0,1-6.73,1.2,19.47,19.47,0,0,1-5.43-.7,13.9,13.9,0,0,1-4.16-1.92,8.62,8.62,0,0,1-2.66-2.87,7,7,0,0,1-.94-3.53,2,2,0,0,1,.4-1.25,1.83,1.83,0,0,1,.85-.7.72.72,0,0,1,.79.12C361,297.76,361,298.18,361,298.82Zm21-30.73a1,1,0,0,1-.92-.09,3.39,3.39,0,0,0-.16-1,3.18,3.18,0,0,0-.52-1,2.85,2.85,0,0,0-.87-.75,2.54,2.54,0,0,0-1.23-.29,3.52,3.52,0,0,0-2,.7,6.75,6.75,0,0,0-1.77,2,12.05,12.05,0,0,0-1.24,3,14.45,14.45,0,0,0-.48,3.83,6.89,6.89,0,0,0,.71,3.47,2.23,2.23,0,0,0,2,1.23c.89,0,1.89-.6,3-1.81a15.87,15.87,0,0,0,2.95-5.72,12.66,12.66,0,0,1,.15-2.06A6.61,6.61,0,0,1,382,268.09Z" style="fill:#002b53"/><path d="M407.7,268.29c.78,0,1,.52.79,1.54-.56,2.17-1.09,4-1.6,5.43a20.18,20.18,0,0,1-1.54,3.49,5.39,5.39,0,0,1-1.62,1.87,3.15,3.15,0,0,1-1.77.57,2.82,2.82,0,0,1-2.35-1.19,8.35,8.35,0,0,1-1.35-2.93,14.37,14.37,0,0,1-2.31,3.39,3.63,3.63,0,0,1-2.64,1.35,3.48,3.48,0,0,1-3-2q-1.21-2-1.21-6.28a30.58,30.58,0,0,1,.5-5.47,22.77,22.77,0,0,1,1.21-4.47c.41-1,.94-1.49,1.58-1.49a1.57,1.57,0,0,1,.79.2,11.2,11.2,0,0,0-.65,1.86c-.21.76-.39,1.6-.56,2.53s-.3,1.89-.4,2.89-.14,2-.14,2.91a17.35,17.35,0,0,0,.23,3,10.09,10.09,0,0,0,.56,2,3.12,3.12,0,0,0,.77,1.16,1.37,1.37,0,0,0,.89.38,2.63,2.63,0,0,0,1.85-1.13,14.11,14.11,0,0,0,2.06-3.62,7.56,7.56,0,0,1,0-.83v-.83a15,15,0,0,1,.27-2.85,14.34,14.34,0,0,1,.69-2.47,7.28,7.28,0,0,1,.91-1.75q.5-.66,1-.66c.52,0,.79.41.79,1.24a16.53,16.53,0,0,1-.44,3.25,32.13,32.13,0,0,1-1.22,4.2,7.2,7.2,0,0,0,.87,3.72,2.16,2.16,0,0,0,1.74,1.18,1.6,1.6,0,0,0,1-.39,5.13,5.13,0,0,0,1.13-1.52,29.71,29.71,0,0,0,1.41-3.12Q406.67,271.5,407.7,268.29Z" style="fill:#002b53"/><path d="M543.86,328a2.36,2.36,0,0,1-2-1.08,8.19,8.19,0,0,1-1.21-2.76,22.13,22.13,0,0,1-.6-3.75c-.11-1.37-.17-2.71-.17-4,0-.55,0-1.09,0-1.6s0-1,0-1.52c0-.3,0-.48-.16-.52s-.28.15-.5.56a21.88,21.88,0,0,0-1.27,2.77c-.4,1-.79,2.09-1.16,3.14s-.73,2.06-1.07,3-.62,1.74-.87,2.35a6.12,6.12,0,0,1-1.27,2.1,1.65,1.65,0,0,1-1.06.48,1.73,1.73,0,0,1-1.27-.69,4.34,4.34,0,0,1-.81-2.3,23.2,23.2,0,0,1-.14-2.48c0-1,0-2,.06-3s.15-2,.29-3a14.27,14.27,0,0,1,.5-2.28,2.09,2.09,0,0,1,.64-1,1.39,1.39,0,0,1,.86-.29,1.44,1.44,0,0,1,.75.18.9.9,0,0,1,.37.44,5.12,5.12,0,0,0-.54,1.66q-.28,1.33-.48,3.06c-.12,1.15-.21,2.31-.27,3.47a15.85,15.85,0,0,0,.08,2.87c.06.31.14.48.25.52s.24-.1.38-.43c.3-.67.65-1.56,1-2.69s.8-2.28,1.25-3.49.89-2.36,1.35-3.47a15.2,15.2,0,0,1,1.39-2.7c.8-1.22,1.61-1.83,2.41-1.83a1.14,1.14,0,0,1,1.17.74,5.47,5.47,0,0,1,.29,1.92c0,2,0,3.75.1,5.34a34.11,34.11,0,0,0,.38,4.08,10,10,0,0,0,.7,2.6c.29.6.66.91,1.1.91a1.49,1.49,0,0,0,1-.5,6.41,6.41,0,0,0,1.13-1.73,34.71,34.71,0,0,0,1.35-3.26q.75-2,1.75-5.11,1.15,0,.78,1.53-.82,3.26-1.6,5.49a21.36,21.36,0,0,1-1.56,3.64,6.26,6.26,0,0,1-1.64,2A3,3,0,0,1,543.86,328Z" style="fill:#002b53"/><path d="M561.12,315.17a4.26,4.26,0,0,1-.27,1.81,1,1,0,0,1-.73.61,11.37,11.37,0,0,1-.62,3.57c.28,2.47,1,3.7,2.24,3.7a2,2,0,0,0,1.25-.47,5.42,5.42,0,0,0,1.29-1.65,25,25,0,0,0,1.46-3.12c.52-1.3,1.11-2.95,1.74-4.94.78,0,1,.51.79,1.53a52,52,0,0,1-1.64,5.51,19.37,19.37,0,0,1-1.64,3.5,5.49,5.49,0,0,1-1.73,1.83,3.67,3.67,0,0,1-1.85.52c-1.66,0-2.83-1-3.49-3a10,10,0,0,1-2.29,2.64,4.5,4.5,0,0,1-2.87,1.06,3.82,3.82,0,0,1-3.2-1.83,9.36,9.36,0,0,1-1.29-5.4,15.67,15.67,0,0,1,.63-4.41,14.37,14.37,0,0,1,1.7-3.85,9.55,9.55,0,0,1,2.54-2.7,5.33,5.33,0,0,1,3.12-1,4.59,4.59,0,0,1,2.16.48,4.36,4.36,0,0,1,1.52,1.31,5.63,5.63,0,0,1,.89,1.95A9.82,9.82,0,0,1,561.12,315.17Zm-1.83-.08a4.48,4.48,0,0,0-1-2.72,3,3,0,0,0-2.28-.94,3.73,3.73,0,0,0-2.27.75,6.75,6.75,0,0,0-1.75,1.95,11,11,0,0,0-1.14,2.79,12.58,12.58,0,0,0-.42,3.24,8,8,0,0,0,.85,4,2.46,2.46,0,0,0,2.11,1.41,3.21,3.21,0,0,0,2.18-1,9.24,9.24,0,0,0,1.89-2.62c0-.25,0-.51-.06-.79s0-.57,0-.87a11.44,11.44,0,0,1,.56-4C558.27,315.29,558.74,314.9,559.29,315.09Z" style="fill:#002b53"/><path d="M568.73,346.74a5.43,5.43,0,0,0,.52-1,8.59,8.59,0,0,0,.4-1.31,16.5,16.5,0,0,0,.27-1.83c.06-.71.1-1.54.1-2.52,0-1.33-.06-2.72-.19-4.17s-.27-2.94-.45-4.43-.39-3-.61-4.49-.43-3-.62-4.37a1.1,1.1,0,0,1-.81-.87,5.12,5.12,0,0,1,.35-2.46c-.14-1.05-.25-2.05-.33-3s-.14-1.77-.17-2.5a14.82,14.82,0,0,1,.38-4.15c.27-1,.62-1.46,1-1.46s.56.33.68,1a10.57,10.57,0,0,1-.27,3.45l.09,1.6q0,.81.12,1.68a14.16,14.16,0,0,1,1.71-2.76,13.33,13.33,0,0,1,2.12-2.18,8.81,8.81,0,0,1,2.26-1.38,5.23,5.23,0,0,1,2.14-.41,3.7,3.7,0,0,1,2.08.6,5,5,0,0,1,1.54,1.64,8.22,8.22,0,0,1,.94,2.44,13.4,13.4,0,0,1,.31,3,10.93,10.93,0,0,1-1.77,6.38,7.59,7.59,0,0,1-4.63,3.23,11.87,11.87,0,0,0,1.55.79,4.68,4.68,0,0,0,1.77.33,3.68,3.68,0,0,0,2-.63,7.41,7.41,0,0,0,2-2.12,24.83,24.83,0,0,0,2.17-4,61.14,61.14,0,0,0,2.32-6.21c.78,0,1,.51.8,1.53q-1.71,6.82-4.25,10.3t-5.4,3.47a5.18,5.18,0,0,1-1.67-.25,7,7,0,0,1-1.43-.69,13.15,13.15,0,0,1-1.44-1.06l-1.66-1.37a4.69,4.69,0,0,1-2-.71q.68,4,1.23,7.82a52.81,52.81,0,0,1,.6,7,22.61,22.61,0,0,1-.18,3.1,8.9,8.9,0,0,1-.54,2.08,3.2,3.2,0,0,1-.81,1.18,1.52,1.52,0,0,1-1,.38,1.67,1.67,0,0,1-.69-.17A1.26,1.26,0,0,1,568.73,346.74Zm1.5-23.33a1.69,1.69,0,0,1,.83-.17,2.76,2.76,0,0,1,1.41.54c.47.34,1,.72,1.5,1.17a5.5,5.5,0,0,0,4.68-2.52,7.51,7.51,0,0,0,1-2.39,11.71,11.71,0,0,0,.31-2.7,8.44,8.44,0,0,0-.87-4.16,2.68,2.68,0,0,0-2.42-1.54,3.83,3.83,0,0,0-1.89.58,8.61,8.61,0,0,0-2,1.64,13.5,13.5,0,0,0-1.81,2.5,13.79,13.79,0,0,0-1.33,3.14Z" style="fill:#002b53"/><path d="M589.86,318.17c.41-.8.82-1.71,1.22-2.7a19.46,19.46,0,0,1,1.44-2.89,13.22,13.22,0,0,1,2-2.56,6.73,6.73,0,0,1,2.85-1.71,5,5,0,0,1,3.43,0,4.27,4.27,0,0,1,2.16,1.81,5.28,5.28,0,0,1,.73,2.77,4.75,4.75,0,0,1-.87,2.78,5.24,5.24,0,0,1-.94,1,3.2,3.2,0,0,1-1.31.67,3.82,3.82,0,0,1-1.68,0,6,6,0,0,1-2.06-1,1.4,1.4,0,0,1-.46-.83.64.64,0,0,1,.21-.52.78.78,0,0,1,.5-.21.82.82,0,0,1,.5.1,2.89,2.89,0,0,0,1.1.67,2.63,2.63,0,0,0,1.06.1,2.44,2.44,0,0,0,.9-.29,1.93,1.93,0,0,0,.64-.6,3.18,3.18,0,0,0,.5-1.71,2.74,2.74,0,0,0-1.85-2.66,3.35,3.35,0,0,0-2.14,0,5,5,0,0,0-1.58.86,7.4,7.4,0,0,0-1.4,1.51,17.59,17.59,0,0,0-1.37,2.37c-.46.95-.93,2.05-1.43,3.33a9.71,9.71,0,0,1,3.51.58,4.67,4.67,0,0,1,1.89,1.33,4.25,4.25,0,0,1,.83,1.71c.14.61.27,1.17.4,1.68a4.65,4.65,0,0,0,.5,1.31,1.31,1.31,0,0,0,1.18.58,3.88,3.88,0,0,0,1.77-.33,4.67,4.67,0,0,0,1.73-1.56,19.36,19.36,0,0,0,1.85-3.35,59.48,59.48,0,0,0,2.14-5.73c.78,0,1,.51.79,1.53a42.6,42.6,0,0,1-1.81,5.72,17.84,17.84,0,0,1-1.91,3.62,5.76,5.76,0,0,1-2,1.87,4.88,4.88,0,0,1-2.18.52,4.56,4.56,0,0,1-2.54-.64,3.92,3.92,0,0,1-1.25-1.48,9,9,0,0,1-.62-1.81,4.92,4.92,0,0,0-.67-1.64,5.28,5.28,0,0,0-1.64-1.48,4.34,4.34,0,0,0-2.81-.43,14,14,0,0,0-.45,2.22,16.22,16.22,0,0,0-.17,2.27,10.06,10.06,0,0,0,.21,2,1.59,1.59,0,0,1-.92.34,1.1,1.1,0,0,1-.89-.42,4.21,4.21,0,0,1-.56-1.91c-.11-.67-.21-1.31-.29-1.94s-.16-1.26-.23-1.93-.12-1.38-.15-2.14,0-1.63,0-2.6a20.24,20.24,0,0,1,0-2.21,12.49,12.49,0,0,1,.16-1.74,2,2,0,0,1,.48-1.12,1.59,1.59,0,0,1,.81-.42c.61-.08,1,.07,1.21.46a4.51,4.51,0,0,0-.29,1.64c-.06.85-.08,1.82-.08,2.93a6,6,0,0,1,0,.79c0,.11,0,.2,0,.25v.29C589.81,317.35,589.83,317.67,589.86,318.17Z" style="fill:#002b53"/><path d="M625.87,314.68c.77,0,1,.51.79,1.53q-.84,3.26-1.6,5.43a21,21,0,0,1-1.54,3.49A5.76,5.76,0,0,1,621.9,327a3.21,3.21,0,0,1-1.77.56,2.82,2.82,0,0,1-2.35-1.19,8.18,8.18,0,0,1-1.35-2.93,14.68,14.68,0,0,1-2.31,3.39,3.67,3.67,0,0,1-2.64,1.35,3.5,3.5,0,0,1-3-2q-1.2-2-1.2-6.28a30.39,30.39,0,0,1,.5-5.46,23.47,23.47,0,0,1,1.2-4.48c.42-1,.95-1.49,1.59-1.49a1.42,1.42,0,0,1,.78.21,11.76,11.76,0,0,0-.64,1.85c-.21.76-.39,1.6-.56,2.53s-.3,1.89-.4,2.89-.14,2-.14,2.91a16.44,16.44,0,0,0,.23,3,10.09,10.09,0,0,0,.56,2,3.12,3.12,0,0,0,.77,1.16,1.37,1.37,0,0,0,.89.38,2.65,2.65,0,0,0,1.85-1.13,14.32,14.32,0,0,0,2.06-3.61,7.87,7.87,0,0,1,0-.84V319a15,15,0,0,1,.27-2.85,14.34,14.34,0,0,1,.69-2.47,7.28,7.28,0,0,1,.91-1.75q.5-.66,1-.66c.52,0,.79.41.79,1.24a16.53,16.53,0,0,1-.44,3.25,30.74,30.74,0,0,1-1.23,4.2,7.29,7.29,0,0,0,.88,3.72,2.18,2.18,0,0,0,1.74,1.19,1.62,1.62,0,0,0,1-.4,5.13,5.13,0,0,0,1.12-1.52,27.54,27.54,0,0,0,1.42-3.12C624.57,318.54,625.17,316.81,625.87,314.68Z" style="fill:#002b53"/><path d="M627.86,317.21c0,.14-.05.28-.08.42H628a11.08,11.08,0,0,1,1.62-.25c.61-.06,1.26-.08,1.95-.08s1.33,0,1.92,0c.41,0,.79.07,1.12.12.05-.36.11-.71.17-1,.11-.69.24-1.36.39-2a13.14,13.14,0,0,1,.48-1.63,4.9,4.9,0,0,1,.71-1.18,1.2,1.2,0,0,1,1-.44,1.18,1.18,0,0,1,.88.34,21.31,21.31,0,0,0-1,4.13,28.68,28.68,0,0,0-.31,4.26,9.2,9.2,0,0,0,.6,3.87A1.78,1.78,0,0,0,639,325a1.56,1.56,0,0,0,1-.46,6.08,6.08,0,0,0,1.14-1.62,26.86,26.86,0,0,0,1.37-3.16q.75-2,1.75-5.07c.77,0,1,.51.79,1.53-.56,2.17-1.1,4-1.64,5.45a19.18,19.18,0,0,1-1.65,3.54,6.26,6.26,0,0,1-1.7,1.91,3.15,3.15,0,0,1-4.6-1.08q-1.1-1.66-1.1-5.57v-1h-.41c-.59,0-1.22,0-1.92,0H627.7a5.6,5.6,0,0,1,0,.74c0,1.22.1,2.44.23,3.64s.27,2.28.43,3.23a5.34,5.34,0,0,0,.5,1.74.85.85,0,0,1-.37.44,1.41,1.41,0,0,1-.75.19,1.43,1.43,0,0,1-.85-.29,2.12,2.12,0,0,1-.65-1,13,13,0,0,1-.47-2.29c-.13-.94-.23-1.93-.3-2.95s-.09-2-.08-3a22.67,22.67,0,0,1,.15-2.47,21.1,21.1,0,0,1,.27-2.19,11.31,11.31,0,0,1,.39-1.72,2,2,0,0,1,.65-1,1.35,1.35,0,0,1,.85-.29,1.44,1.44,0,0,1,.75.18.85.85,0,0,1,.37.44,5,5,0,0,0-.52,1.58Q628.07,315.54,627.86,317.21Z" style="fill:#002b53"/><path d="M652.32,309a3.65,3.65,0,0,1,2.37,1.43,3.49,3.49,0,0,1,.43,2.23,9.09,9.09,0,0,1-.75,2.62c-.4.91-.81,1.8-1.22,2.66s-.75,1.43-1.15,2.14a15.94,15.94,0,0,0-1,2,4.5,4.5,0,0,0-.44,2.49,1.38,1.38,0,0,0,.94,1.19,2.64,2.64,0,0,0,1.93-.4,9.16,9.16,0,0,0,2.56-2.24,21.88,21.88,0,0,0,2.26-3.41,29.91,29.91,0,0,0,2.1-5c.78,0,1,.51.79,1.53a24.81,24.81,0,0,1-2,5.51,16.54,16.54,0,0,1-2.54,3.66,9.72,9.72,0,0,1-2.6,2,4.65,4.65,0,0,1-2.23.58,4.59,4.59,0,0,1-2.78-.75,2.8,2.8,0,0,1-1.1-1.83,5.59,5.59,0,0,1,.22-2.51,14,14,0,0,1,1.25-2.85c.42-.72.86-1.5,1.31-2.35a21.54,21.54,0,0,0,1.15-2.47,6.7,6.7,0,0,0,.47-2.19,1.77,1.77,0,0,0-.64-1.51,4,4,0,0,0-2.2.33,5.6,5.6,0,0,0-1.9,1.49,13.61,13.61,0,0,0-1.72,2.69c-.56,1.09-1.14,2.39-1.75,3.88a1,1,0,0,1-.85-.37,1.38,1.38,0,0,1-.06-1.16q1.49-5,3.89-7.18A7.55,7.55,0,0,1,652.32,309Z" style="fill:#002b53"/></g></svg>