<svg xmlns="http://www.w3.org/2000/svg" viewBox="0 0 285.21 188.11"><title>Монтажная область 1 копия 4</title><g id="НАПОЛНЕНИЕ"><path d="M61.5,180.15c-33.91,0-61.5-27.81-61.5-62s27.59-62,61.5-62S123,84,123,118.17,95.41,180.15,61.5,180.15Zm0-115c-29,0-52.55,23.79-52.55,53s23.57,53,52.55,53,52.55-23.8,52.55-53S90.48,65.13,61.5,65.13Z" style="fill:#aadbf0"/><path d="M64.69,19.72V15.43H62.1v4.29H39.5V14.57h7.84V12.69H26.5v1.88h7.84v5.15H22.4V153.56a52.15,52.15,0,0,0,78.2,0V19.72Z" style="fill:#a1b1b2"/><rect x="29.65" y="90.59" width="10.64" height="13.74" style="fill:#3d5782"/><rect x="65.03" y="90.59" width="10.64" height="13.74" style="fill:#3d5782"/><rect x="82.71" y="90.59" width="10.64" height="13.74" style="fill:#3d5782"/><rect x="29.65" y="36.8" width="10.64" height="13.74" style="fill:#3d5782"/><rect x="47.34" y="36.8" width="10.64" height="13.74" style="fill:#3d5782"/><rect x="65.03" y="36.8" width="10.64" height="13.74" style="fill:#3d5782"/><rect x="82.71" y="36.8" width="10.64" height="13.74" style="fill:#ebbe42"/><rect x="29.65" y="63.7" width="10.64" height="13.74" style="fill:#2693be"/><rect x="47.34" y="63.7" width="10.64" height="13.74" style="fill:#3d5782"/><rect x="65.03" y="63.7" width="10.64" height="13.74" style="fill:#88b1bf"/><rect x="82.71" y="63.7" width="10.64" height="13.74" style="fill:#3d5782"/><rect x="29.65" y="117.49" width="10.64" height="13.74" style="fill:#3d5782"/><rect x="47.34" y="117.49" width="10.64" height="13.74" style="fill:#10787e"/><rect x="65.03" y="117.49" width="10.64" height="13.74" style="fill:#aadbf0"/><rect x="82.71" y="117.49" width="10.64" height="13.74" style="fill:#3d5782"/><rect x="29.65" y="144.39" width="10.64" height="13.74" style="fill:#3d5782"/><rect x="47.34" y="144.39" width="10.64" height="13.74" style="fill:#34495e"/><rect x="65.03" y="144.39" width="10.64" height="13.74" style="fill:#3d5782"/><rect x="82.71" y="144.39" width="10.64" height="13.74" style="fill:#3d5782"/><g style="opacity:0.5"><circle cx="52.66" cy="97.47" r="17.69" style="fill:#fff"/></g><rect x="47.34" y="90.59" width="10.64" height="13.74" style="fill:#e64d00"/><path d="M52.66,115.71A18.25,18.25,0,1,1,70.9,97.47,18.26,18.26,0,0,1,52.66,115.71Zm0-35.37A17.13,17.13,0,1,0,69.78,97.47,17.14,17.14,0,0,0,52.66,80.34Z" style="fill:#e64d00"/><path d="M261.14,0H135.38a24.07,24.07,0,0,0-24.07,24.07V44.13L53,100.38l84.3-41.19H261.14a24.06,24.06,0,0,0,24.07-24.06V24.07A24.06,24.06,0,0,0,261.14,0Z" style="fill:#b5dfd7"/><path d="M139.34,30.59c-.08-1.65-.21-3.89-.16-5.74h-.08c-.3,1.85-.77,4-1.1,5.33l-1.5,6.21h-2.39l-1.45-6.11c-.33-1.39-.8-3.55-1-5.43h-.08c-.05,1.88-.15,4.07-.26,5.79l-.28,6h-2.91l1.26-17.36h3.56l1.39,6.28c.49,2.19.92,4.13,1.23,6.08h0c.26-1.93.65-3.89,1.11-6.08l1.37-6.28h3.55l1.06,17.36h-3Z" style="fill:#fff"/><path d="M156,27.68c0,6.54-2.32,9.2-5.61,9.2-3.95,0-5.49-4.18-5.49-8.94s1.88-8.84,5.72-8.84C154.82,19.1,156,23.71,156,27.68Zm-7.6.31c0,3.94.75,5.95,2.12,5.95s1.95-2.58,1.95-6.1c0-3-.46-5.8-2-5.8C149.15,22,148.4,24.25,148.4,28Z" style="fill:#fff"/><path d="M157.52,36.67a17.57,17.57,0,0,0,.67-1.85c.46-1.75.46-4.18,1.75-5.54a2.72,2.72,0,0,1,1.24-.75v-.05a4.06,4.06,0,0,1-3-4.17,4.71,4.71,0,0,1,1.6-3.79,6.89,6.89,0,0,1,4.4-1.29,17.62,17.62,0,0,1,3.69.34v17.1H164.5V29.74h-.36a1.7,1.7,0,0,0-1.39.65c-.75.95-.88,3.47-1.16,4.76a8.16,8.16,0,0,1-.49,1.52Zm7-14.73a3.5,3.5,0,0,0-.67-.08,2.28,2.28,0,0,0-2.24,2.57A2.43,2.43,0,0,0,164,27.14a2.27,2.27,0,0,0,.46,0Z" style="fill:#fff"/><path d="M179.7,19.31v7.55H180l2.83-7.55h3.71l-4,8c1.78.67,2.37,2.29,2.86,4.4.38,1.68.67,3.33,1.18,4.92h-3.37a38.17,38.17,0,0,1-1-4c-.41-2-.87-3.35-2.26-3.35h-.26v7.37h-3.3V19.31Z" style="fill:#fff"/><path d="M188.82,19.57a17.76,17.76,0,0,1,3.84-.34,6.52,6.52,0,0,1,4.4,1.24,4,4,0,0,1,1.32,3.14,4,4,0,0,1-2.53,3.79v.1a4.15,4.15,0,0,1,3.09,4.15,4.68,4.68,0,0,1-1.28,3.4c-1,1.13-2.79,1.75-5.7,1.75a25.09,25.09,0,0,1-3.14-.18Zm3.37,6.87h.72A2.24,2.24,0,0,0,195.05,24c0-1.27-.59-2.24-2-2.24a2.69,2.69,0,0,0-.88.1Zm0,7.71a3.31,3.31,0,0,0,.75.05,2.37,2.37,0,0,0,2.5-2.6,2.49,2.49,0,0,0-2.53-2.66h-.72Z" style="fill:#fff"/><path d="M204.74,32.7l-.77,4h-3.28l3.76-17.36h4.05l3.37,17.36H208.6l-.74-4Zm2.81-2.62L207,26.44c-.18-1.05-.41-2.78-.57-3.94h-.07c-.18,1.16-.44,3-.62,4l-.65,3.61Z" style="fill:#fff"/><path d="M214.5,19.57a17.32,17.32,0,0,1,3.53-.34c2,0,3.58.28,4.72,1.34a5,5,0,0,1,1.49,3.81,5.87,5.87,0,0,1-1.47,4.18,6.09,6.09,0,0,1-4.22,1.65h-.67v6.46H214.5Zm3.38,7.88a1.77,1.77,0,0,0,.54.05c1.7,0,2.47-1.21,2.47-2.83S220.27,22,218.7,22a2.39,2.39,0,0,0-.82.13Z" style="fill:#fff"/><path d="M229,22.42h-3.06V19.31h9.53v3.11h-3.09V36.67H229Z" style="fill:#fff"/><path d="M240.91,19.31v3.84c0,3.19-.21,6.18-.34,8h.05c.49-1.49,1.37-3.76,1.88-5.1l2.55-6.72h3.07V36.67h-3V32.76c0-3.48.12-6.06.2-7.81h-.05a45.59,45.59,0,0,1-1.73,5.1L241,36.67h-3.11V19.31Z" style="fill:#fff"/><path d="M251.85,19.57a17.39,17.39,0,0,1,3.53-.34c2,0,3.58.28,4.72,1.34a5,5,0,0,1,1.49,3.81,5.87,5.87,0,0,1-1.47,4.18,6.09,6.09,0,0,1-4.22,1.65h-.67v6.46h-3.38Zm3.38,7.88a1.77,1.77,0,0,0,.54.05c1.7,0,2.47-1.21,2.47-2.83S257.62,22,256.05,22a2.39,2.39,0,0,0-.82.13Z" style="fill:#fff"/><path d="M266,32.7l-.77,4h-3.28l3.77-17.36h4l3.38,17.36h-3.28l-.74-4Zm2.81-2.62-.57-3.64c-.18-1.05-.41-2.78-.57-3.94h-.07c-.18,1.16-.44,3-.62,4l-.65,3.61Z" style="fill:#fff"/><path d="M172.75,81a8.49,8.49,0,1,1,11.07,4.66A8.5,8.5,0,0,1,172.75,81Zm11.46-4.67a3.88,3.88,0,1,0-2.13,5.06A3.89,3.89,0,0,0,184.21,76.28Z" style="fill:#edc043"/><polygon points="156.84 90.32 152.78 80.35 157.05 78.61 159.37 84.31 174.9 77.97 176.64 82.25 156.84 90.32" style="fill:#edc043"/><rect x="161.68" y="76.12" width="4.61" height="8.45" transform="translate(-18.2 67.84) rotate(-22.17)" style="fill:#edc043"/><polygon points="217.52 105.36 219.47 105.88 228.52 110.92 232.13 119.68 239.06 112.78 245.05 113.85 245.76 119.1 235.08 123.23 216.99 117.21 217.52 105.36" style="fill:#e67e22"/><polygon points="226.67 108.58 228.32 107.61 228.32 103.37 230.52 105.11 233.65 105.11 235.65 103.37 235.65 107.79 237.13 108.58 235.65 110.89 231.9 118.82 226.67 108.58" style="fill:#ffddb0"/><polygon points="224 186.06 224.96 181.53 228.73 181.53 229.46 186.06 226.5 186.77 224 186.06" style="fill:#7f8c8d"/><polygon points="229.72 159.01 228.65 183.24 229.46 186.06 224.07 187.61 224 186.06 225.12 183.24 222.82 159.01 229.72 159.01" style="fill:#ffddb0"/><polygon points="229.46 186.06 227.99 185.49 226.73 185.49 225.47 185.49 224 186.06 223.87 188.05 226.73 188.05 229.59 188.05 229.46 186.06" style="fill:#287572"/><polygon points="239.87 186.06 238.91 181.53 235.15 181.53 234.41 186.06 237.37 186.77 239.87 186.06" style="fill:#7f8c8d"/><polygon points="234.15 159.01 235.22 183.24 234.41 186.06 239.8 187.61 239.87 186.06 238.75 183.24 241.05 159.01 234.15 159.01" style="fill:#ffddb0"/><polygon points="234.41 186.06 235.88 185.49 237.14 185.49 238.4 185.49 239.87 186.06 240 188.05 237.14 188.05 234.28 188.05 234.41 186.06" style="fill:#287572"/><polygon points="216.15 120.84 213.4 126.58 208.22 129.97 209.51 135.64 217.1 130.99 223.19 121.52 216.15 120.84" style="fill:#ffddb0"/><polygon points="224.6 92.01 223.86 91.6 223.19 91.8 223.19 95.11 225.35 97.14 224.6 92.01" style="fill:#ffddb0"/><polygon points="239.17 92.01 239.9 91.6 240.58 91.8 240.58 95.11 238.41 97.14 239.17 92.01" style="fill:#ffddb0"/><polygon points="224.27 90.73 234.36 86.37 237.22 85.84 239.76 89.53 237.88 101.42 233.65 105.11 230.52 105.11 225.86 101.42 224.27 90.73" style="fill:#ffddb0"/><polygon points="237.22 85.84 232.93 89.77 227.95 92.28 224.76 94.06 223.19 90.73 225.35 85.66 233.56 82.26 237.22 85.84" style="fill:#d8a912"/><polygon points="224.07 95.94 222.99 103.37 228.32 104.48 228.32 103.37 225.86 101.42 225.2 97 224.07 95.94" style="fill:#d8a912"/><polygon points="239.78 95.94 240.86 103.37 235.65 104.43 235.65 103.37 237.88 101.42 238.6 96.85 239.78 95.94" style="fill:#d8a912"/><polygon points="234.47 88.36 238.64 93.53 239.38 91.89 239.76 89.53 237.22 85.84 234.47 88.36" style="fill:#d8a912"/><circle cx="224.27" cy="97.02" r="1.08" style="fill:#ba6767"/><path d="M240.58,97a1.09,1.09,0,1,1-1.09-1.08A1.08,1.08,0,0,1,240.58,97Z" style="fill:#ba6767"/><polygon points="224.17 133.97 221.71 141.16 221.22 144.53 222.74 162.54 241.05 162.54 242.41 145.09 241.54 140.5 239.34 133.88 224.17 133.97" style="fill:#287572"/><path d="M247.39,120.84l-4.5-10.25-5.76-2c-1.16-.72-5.36,9.51-5.36,9.51s-4.21-10.23-5.36-9.51l-5.68,2-4.58,10.25,7,.68,1,12.45h15.2l1-12.45Z" style="fill:#287572"/><polygon points="240.58 113.41 243.93 111.55 247.39 118.35 241.79 120.49 240.58 113.41" style="fill:#ffddb0"/><polygon points="241.06 121.45 243.34 131.94 242.38 144.1 245.7 144.59 248.61 131.38 247.39 120.84 241.06 121.45" style="fill:#ffddb0"/><polygon points="204.63 142.51 198.17 142.51 186.98 142.51 186.98 148.9 187.84 185.54 197.31 185.54 199.03 153.88 200.92 151.51 201.88 151.51 203.76 153.87 205.49 185.54 214.95 185.54 215.81 148.9 215.81 142.51 204.63 142.51" style="fill:#2d95bf"/><polygon points="189.01 109.23 189.11 122.95 187.34 122.18 174.82 107.52 172.7 104.33 165.93 89.84 174.09 86.46 180.16 99.68 189.01 109.23" style="fill:#e67e22"/><polygon points="193.83 89.54 193.09 89.13 192.42 89.33 192.42 92.65 194.58 94.67 193.83 89.54" style="fill:#ffddb0"/><polygon points="208.97 89.54 209.7 89.13 210.38 89.33 210.38 92.65 208.22 94.67 208.97 89.54" style="fill:#ffddb0"/><polygon points="193.09 84.41 203.5 80.35 205.39 77.98 207.82 80.68 209.58 85.11 208.56 100.67 201.4 102.65 194.23 100.84 193.09 84.41" style="fill:#ffddb0"/><polygon points="193.09 84.41 203.5 80.35 205.39 77.98 207.82 80.68 209.58 85.11 209.05 90.81 208.22 90.81 207.61 85.96 194.99 87.35 194.37 90.81 193.58 90.81 193.09 84.41" style="fill:#c16800"/><path d="M188.4,188.11h8.17s1.58-3.59-4.09-4.45C192.48,183.66,187.68,184,188.4,188.11Z" style="fill:#a74d4b"/><path d="M214.32,188.11h-8.18s-1.57-3.59,4.09-4.45C210.23,183.66,215,184,214.32,188.11Z" style="fill:#a74d4b"/><polygon points="215.81 142.51 204.63 142.51 198.17 142.51 186.98 142.51 186.98 142.88 215.81 142.54 215.81 142.51" style="fill:#006db5"/><polygon points="215.8 144.09 186.98 144.09 185.25 105.36 196.26 105.36 201.4 107.15 206.4 105.36 217.52 105.36 215.8 144.09" style="fill:#a74d4b"/><polygon points="166.84 89.47 164.86 84.72 171.05 80.69 172.4 87.15 166.84 89.47" style="fill:#ffddb0"/><polygon points="196.27 100.34 196.27 105.36 201.4 107.58 206.4 105.36 206.4 100.67 196.27 100.34" style="fill:#ffddb0"/><polygon points="223.79 129.23 239.75 129.23 239.36 133.92 224.16 133.92 223.79 129.23" style="fill:#f56462"/><polygon points="245.69 143.05 245.8 147.17 240.11 148.43 242.64 140.84 245.69 143.05" style="fill:#ffddb0"/></g></svg>