<svg xmlns="http://www.w3.org/2000/svg" viewBox="0 0 22.34 23"><title>Монтажная область 62 копия</title><g id="НАПОЛНЕНИЕ"><path d="M16.36,21.81a13.61,13.61,0,0,1-6,1.19A10,10,0,0,1,0,12.59C0,5.85,4.89,0,12.36,0c5.81,0,10,4,10,9.55,0,4.82-2.71,7.87-6.28,7.87a2.59,2.59,0,0,1-2.84-2.55h-.07a4.84,4.84,0,0,1-4.26,2.55c-2.15,0-3.7-1.59-3.7-4.3a7.54,7.54,0,0,1,7.73-7.7,9.14,9.14,0,0,1,3.93.83l-1,6.11c-.33,2-.1,2.84.83,2.87,1.42,0,3.2-1.78,3.2-5.58C19.89,5.35,17.12,2,12,2S2.51,6,2.51,12.29C2.51,17.81,6.05,21,11,21a10.64,10.64,0,0,0,4.79-1.06ZM13.42,8.16a4.48,4.48,0,0,0-1-.13c-2.18,0-3.9,2.15-3.9,4.69,0,1.26.56,2,1.65,2S12.66,13.22,13,11.3Z" style="fill:#70706f"/></g></svg>