<svg xmlns="http://www.w3.org/2000/svg" xmlns:xlink="http://www.w3.org/1999/xlink" viewBox="0 0 126.72 147.37"><defs><linearGradient id="Безымянный_градиент_89" x1="58.76" y1="15.53" x2="71.64" y2="15.53" gradientUnits="userSpaceOnUse"><stop offset="0.3" stop-color="#f26522"/><stop offset="1" stop-color="#fd7801"/></linearGradient></defs><title>Монтажная область 50</title><g id="НАПОЛНЕНИЕ"><polygon points="57.91 57.9 57.91 63.04 63.1 63.74 68.3 63.04 68.3 58.23 57.91 57.9" style="fill:#ffddb0"/><polygon points="66.4 100.66 59.78 100.66 48.32 100.66 48.32 107.2 49.2 144.75 58.9 144.75 60.67 112.31 62.6 109.88 63.59 109.88 65.52 112.3 67.28 144.75 76.98 144.75 77.86 107.2 77.86 100.66 66.4 100.66" style="fill:#2d95bf"/><polygon points="55.34 46.39 54.58 45.98 53.89 46.18 53.89 49.57 56.11 51.65 55.34 46.39" style="fill:#ffddb0"/><polygon points="70.82 46.34 71.57 45.92 72.26 46.13 72.26 49.52 70.05 51.6 70.82 46.34" style="fill:#ffddb0"/><polygon points="54.58 41.13 69.68 37.32 71.48 41.85 70.43 57.79 63.09 59.82 55.75 57.97 54.58 41.13" style="fill:#ffddb0"/><polygon points="54.58 41.13 61.24 38.54 69.68 37.32 71.48 41.85 70.93 47.69 70.08 47.69 69.46 42.73 56.53 44.15 55.89 47.69 55.09 47.69 54.58 41.13" style="fill:#4c300f"/><path d="M49.78,147.37h8.37s1.61-3.67-4.19-4.55C54,142.82,49,143.12,49.78,147.37Z" style="fill:#34495e"/><path d="M76.33,147.37H68s-1.62-3.67,4.18-4.55C72.14,142.82,77.06,143.12,76.33,147.37Z" style="fill:#34495e"/><polygon points="77.86 100.66 66.4 100.66 59.78 100.66 48.32 100.66 48.32 101.04 77.86 100.69 77.86 100.66" style="fill:#006db5"/><polygon points="77.84 102.27 48.32 102.27 46.56 62.6 55.09 62.6 63.26 64.12 71.12 62.6 79.61 62.6 77.84 102.27" style="fill:#34495e"/><polygon points="63.1 102.27 63.1 63.74 55.09 62.6 61.13 102.27 63.1 102.27" style="fill:#ecf0f1"/><polygon points="63.1 102.27 63.1 63.74 71.12 62.6 65.07 102.27 63.1 102.27" style="fill:#ecf0f1"/><polygon points="63.03 52.97 121.28 29.95 121.28 110.85 63.03 134.92 63.03 52.97" style="fill:#a6c9c2"/><polygon points="63.03 52.97 6.69 29.95 6.69 110.85 63.03 134.92 63.03 52.97" style="fill:#95b7b1"/><polygon points="63.03 52.59 124.05 34.76 124.05 115.65 63.03 134.54 63.03 52.59" style="fill:#b5dfd7"/><polygon points="63.03 52.59 2.01 34.76 2.01 115.65 63.03 134.54 63.03 52.59" style="fill:#a6c9c2"/><polygon points="71.05 71.73 73.1 71.12 73.1 75.26 75.06 74.67 75.06 64.76 73.1 65.35 73.1 69.32 71.05 69.94 71.05 65.97 69.08 66.56 69.08 76.47 71.05 75.88 71.05 71.73" style="fill:#3d5782"/><path d="M79.8,73.37c1.92-.58,3.26-2.5,3.26-6.23,0-2.27-.69-4.69-3.13-4-2.23.67-3.33,3.34-3.32,6S77.51,74.06,79.8,73.37Zm.06-8.49c.88-.27,1.15,1.23,1.15,3,0,2-.31,3.58-1.14,3.83s-1.23-.78-1.23-3S79.08,65.11,79.86,64.88Z" style="fill:#3d5782"/><path d="M89.75,69.34a3.49,3.49,0,0,0,.74-2.17,1.66,1.66,0,0,0-1.79-1.83v-.06a3.28,3.28,0,0,0,1.46-2.6,1.63,1.63,0,0,0-.76-1.56,3.45,3.45,0,0,0-2.56.06,13.54,13.54,0,0,0-2.23.86v9.74a15.74,15.74,0,0,0,1.83-.45A6,6,0,0,0,89.75,69.34Zm-3.18-6.58a1.91,1.91,0,0,1,.51-.21c.81-.24,1.15.21,1.15.93A1.87,1.87,0,0,1,87,65.25l-.42.13Zm0,4,.42-.12c.78-.22,1.47.09,1.47,1.07A2,2,0,0,1,87,69.67a1.44,1.44,0,0,1-.43.1Z" style="fill:#3d5782"/><path d="M98,62.65c0-2.27-.7-4.69-3.14-4-2.23.67-3.32,3.34-3.32,6s.9,4.84,3.19,4.15C96.67,68.3,98,66.38,98,62.65Zm-3.19,4.53c-.8.24-1.23-.78-1.23-3s.43-3.53,1.21-3.76,1.15,1.23,1.15,3C96,65.37,95.65,66.93,94.83,67.18Z" style="fill:#3d5782"/><path d="M102.87,66.41a5.27,5.27,0,0,0,1.53-.7l-.2-1.55a4.83,4.83,0,0,1-.94.43c-1.2.36-2.11-.3-2.11-2.66s1-3.7,2.11-4a2,2,0,0,1,.91-.09l.33-1.71a2.46,2.46,0,0,0-1.36.14c-2,.59-4.08,2.68-4.08,6.42C99.06,65.46,100.29,67.18,102.87,66.41Z" style="fill:#3d5782"/><polygon points="107.27 65 109.24 64.41 109.23 56.28 111.03 55.74 111.03 53.96 105.49 55.62 105.49 57.4 107.27 56.87 107.27 65" style="fill:#3d5782"/><path d="M115.66,58.7c.33-.92.78-2.25,1-3.21h0c0,1-.12,2.5-.12,4.49V62.2l1.72-.51V51.78l-1.78.53L115,56.59c-.3.86-.8,2.31-1.09,3.24h0c.08-1.05.2-2.79.2-4.61V53l-1.73.53v9.91l1.81-.55Z" style="fill:#3d5782"/><polygon points="68.22 86.69 91.12 79.82 91.12 77.67 68.22 84.55 68.22 86.69" style="fill:#3d5782"/><polygon points="95.95 76.22 95.95 78.36 118.85 71.49 118.85 69.34 95.95 76.22" style="fill:#3d5782"/><polygon points="68.22 91.58 91.12 84.7 91.12 82.56 68.22 89.43 68.22 91.58" style="fill:#3d5782"/><polygon points="95.95 83.25 118.85 76.38 118.85 74.23 95.95 81.11 95.95 83.25" style="fill:#3d5782"/><polygon points="68.22 96.47 91.12 89.59 91.12 87.44 68.22 94.32 68.22 96.47" style="fill:#3d5782"/><polygon points="95.95 88.14 118.85 81.26 118.85 79.11 95.95 85.99 95.95 88.14" style="fill:#3d5782"/><polygon points="68.22 101.36 91.12 94.48 91.12 92.33 68.22 99.21 68.22 101.36" style="fill:#3d5782"/><polygon points="95.95 93.03 118.85 86.15 118.85 84 95.95 90.88 95.95 93.03" style="fill:#3d5782"/><polygon points="68.22 106.24 91.12 99.37 91.12 97.22 68.22 104.1 68.22 106.24" style="fill:#3d5782"/><polygon points="95.95 97.92 118.85 91.04 118.85 88.89 95.95 95.77 95.95 97.92" style="fill:#3d5782"/><polygon points="68.22 111.13 91.12 104.25 91.12 102.11 68.22 108.98 68.22 111.13" style="fill:#3d5782"/><polygon points="95.95 102.8 118.85 95.93 118.85 93.78 95.95 100.66 95.95 102.8" style="fill:#3d5782"/><polygon points="68.22 116.02 91.13 109.14 91.13 106.99 68.22 113.87 68.22 116.02" style="fill:#3d5782"/><polygon points="95.95 107.69 118.85 100.81 118.85 98.67 95.95 105.54 95.95 107.69" style="fill:#3d5782"/><polygon points="68.23 120.91 91.13 114.03 91.13 111.88 68.23 118.76 68.23 120.91" style="fill:#3d5782"/><polygon points="95.96 112.58 118.86 105.7 118.86 103.55 95.95 110.43 95.96 112.58" style="fill:#3d5782"/><polygon points="68.23 125.8 91.13 118.92 91.13 116.77 68.23 123.65 68.23 125.8" style="fill:#3d5782"/><polygon points="95.96 117.47 118.86 110.59 118.86 108.44 95.96 115.32 95.96 117.47" style="fill:#3d5782"/><polygon points="31.3 52.74 10.41 46.49 10.34 48.82 31.23 55.07 31.3 52.74" style="fill:#3d5782"/><polygon points="35.71 54.06 35.64 56.39 56.53 62.64 56.6 60.3 35.71 54.06" style="fill:#3d5782"/><polygon points="31.14 58.05 10.25 51.8 10.18 54.13 31.08 60.38 31.14 58.05" style="fill:#3d5782"/><polygon points="35.48 61.7 56.38 67.95 56.45 65.61 35.55 59.37 35.48 61.7" style="fill:#3d5782"/><polygon points="30.99 63.36 10.09 57.11 10.02 59.44 30.92 65.69 30.99 63.36" style="fill:#3d5782"/><polygon points="35.33 67.01 56.22 73.26 56.29 70.92 35.4 64.68 35.33 67.01" style="fill:#3d5782"/><polygon points="20.73 65.65 9.94 62.42 9.87 64.75 20.66 67.98 20.73 65.65" style="fill:#3d5782"/><polygon points="35.17 72.32 56.06 78.57 56.13 76.23 35.24 69.99 35.17 72.32" style="fill:#3d5782"/><polygon points="20.58 70.96 9.78 67.73 9.71 70.06 20.51 73.29 20.58 70.96" style="fill:#3d5782"/><polygon points="35.01 77.63 55.91 83.88 55.98 81.55 35.08 75.3 35.01 77.63" style="fill:#3d5782"/><polygon points="20.42 76.27 9.62 73.04 9.55 75.37 20.35 78.6 20.42 76.27" style="fill:#3d5782"/><polygon points="34.85 82.94 55.75 89.19 55.82 86.86 34.92 80.61 34.85 82.94" style="fill:#3d5782"/><polygon points="30.36 84.6 9.46 78.35 9.39 80.68 30.29 86.93 30.36 84.6" style="fill:#3d5782"/><polygon points="34.7 88.25 55.59 94.5 55.66 92.17 34.77 85.92 34.7 88.25" style="fill:#3d5782"/><polygon points="30.2 89.91 9.31 83.66 9.24 85.99 30.13 92.24 30.2 89.91" style="fill:#3d5782"/><polygon points="34.54 93.56 55.43 99.81 55.5 97.48 34.61 91.23 34.54 93.56" style="fill:#3d5782"/><polygon points="30.04 95.22 9.15 88.97 9.08 91.3 29.98 97.55 30.04 95.22" style="fill:#3d5782"/><polygon points="34.38 98.87 55.28 105.12 55.35 102.79 34.45 96.54 34.38 98.87" style="fill:#3d5782"/><polygon points="29.89 100.53 8.99 94.28 8.92 96.61 29.82 102.86 29.89 100.53" style="fill:#3d5782"/><polygon points="34.23 104.18 55.12 110.43 55.19 108.1 34.29 101.85 34.23 104.18" style="fill:#3d5782"/><polygon points="29.73 105.84 8.84 99.59 8.77 101.92 29.66 108.17 29.73 105.84" style="fill:#3d5782"/><polygon points="34.07 109.49 54.96 115.74 55.03 113.41 34.14 107.16 34.07 109.49" style="fill:#3d5782"/><polygon points="29.56 111.42 8.67 105.17 8.6 107.5 29.5 113.75 29.56 111.42" style="fill:#3d5782"/><polygon points="33.9 115.07 54.8 121.32 54.87 118.98 33.97 112.74 33.9 115.07" style="fill:#3d5782"/><polygon points="29.4 117 8.5 110.75 8.44 113.08 29.33 119.33 29.4 117" style="fill:#3d5782"/><polygon points="33.74 120.65 54.63 126.9 54.7 124.56 33.81 118.32 33.74 120.65" style="fill:#3d5782"/><polygon points="22.41 78.93 30.46 81.33 30.82 68.96 22.78 66.55 22.41 78.93" style="fill:#3d5782"/><polygon points="0.36 66.34 5.05 65.38 6.69 57.98 0 59.02 0.36 66.34" style="fill:#ffddb0"/><polygon points="126.72 59.71 121.45 59.8 119.96 52.38 126.62 53.54 126.72 59.71" style="fill:#ffddb0"/><path d="M61.37,21.34l-.09-.81c-.31-2.66.72-5,2.39-7.65,1.3-1.94,1.93-3.29,1.93-5a2.69,2.69,0,0,0-3-2.79,4.77,4.77,0,0,0-2.88.81l-1-4.55A10.64,10.64,0,0,1,64,0C70,0,71.64,3.92,71.64,6.93s-1.76,5.63-3.33,7.93a9.13,9.13,0,0,0-1.94,5.53v.95Zm-.81,6.12a3.51,3.51,0,0,1,3.33-3.69,3.4,3.4,0,0,1,3.38,3.69,3.29,3.29,0,0,1-3.33,3.6A3.4,3.4,0,0,1,60.56,27.46Z" style="fill:url(#Безымянный_градиент_89)"/></g></svg>