<svg xmlns="http://www.w3.org/2000/svg" viewBox="0 0 22.55 26.89"><title>Монтажная область 66 копия</title><g id="НАПОЛНЕНИЕ"><path d="M21.61,5.12l-1-.51,1.3-2.53a.9.9,0,1,0-1.6-.82L19,3.79,12,.19A1.72,1.72,0,0,0,9.7.93L.19,19.46a1.72,1.72,0,0,0,.74,2.31l9.6,4.93A1.73,1.73,0,0,0,12.85,26L22.36,7.43A1.71,1.71,0,0,0,21.61,5.12ZM5.44,19.25a.4.4,0,0,1-.54.18l-1.54-.79a.42.42,0,0,1-.18-.55l.3-.58A.41.41,0,0,1,4,17.33l1.54.79a.4.4,0,0,1,.17.55Zm1.32-2.57a.39.39,0,0,1-.54.17l-1.54-.79a.41.41,0,0,1-.18-.55l.3-.58a.4.4,0,0,1,.55-.17l1.54.79a.4.4,0,0,1,.17.55ZM8,14.23a.41.41,0,0,1-.55.18l-1.54-.79a.4.4,0,0,1-.17-.55l.3-.58a.4.4,0,0,1,.54-.18l1.54.79a.41.41,0,0,1,.18.55ZM8.84,21a.41.41,0,0,1-.55.18l-1.54-.79a.4.4,0,0,1-.17-.55l.29-.58a.42.42,0,0,1,.55-.18L9,19.86a.42.42,0,0,1,.18.55Zm1.32-2.57a.41.41,0,0,1-.55.18l-1.54-.79a.4.4,0,0,1-.17-.55l.3-.58a.4.4,0,0,1,.54-.18l1.54.79a.41.41,0,0,1,.18.55ZM11.42,16a.41.41,0,0,1-.55.18l-1.54-.79a.41.41,0,0,1-.18-.55l.3-.58a.42.42,0,0,1,.55-.18l1.54.79a.42.42,0,0,1,.18.55Zm.82,6.77a.4.4,0,0,1-.55.17l-1.54-.79a.4.4,0,0,1-.18-.54l.3-.59a.4.4,0,0,1,.55-.17l1.54.79a.41.41,0,0,1,.18.55Zm1.32-2.57a.41.41,0,0,1-.55.17l-1.54-.79a.41.41,0,0,1-.18-.55l.3-.58a.41.41,0,0,1,.55-.18l1.54.8a.4.4,0,0,1,.18.54Zm1.25-2.45a.39.39,0,0,1-.54.17l-1.54-.79a.4.4,0,0,1-.18-.54l.3-.59a.4.4,0,0,1,.55-.17l1.54.79a.4.4,0,0,1,.17.55Zm1.82-3.54a1.19,1.19,0,0,1-1.61.51L8.09,11.14a1.19,1.19,0,0,1-.51-1.61l3.21-6.26a1.19,1.19,0,0,1,1.61-.52L19.33,6.3a1.21,1.21,0,0,1,.52,1.62Z" style="fill:#70706f"/></g></svg>