<svg id="ФОН" xmlns="http://www.w3.org/2000/svg" viewBox="0 0 70.33 113.12"><title>Монтажная область 63</title><polygon points="35.21 58.19 39.2 57.07 39.66 50.88 33.56 51.07 35.21 58.19" style="fill:#edc89a"/><path d="M39.07,57.65V50.84l10.73-2,9.55-17.66,6.83,1.2s-1.19,6.83-1.54,8L56,53.63l-4.18,1.9Z" style="fill:#95a5a6"/><path d="M3.16,109.13l.25,4,16-.08s-.29-5.33-6.69-2.89L10.93,110Z" style="fill:#34495e"/><polygon points="15.04 11.09 22.57 20.25 18.07 21.92 18.88 27.52 10.66 28.55 6.87 28.77 1.8 13.66 0 10.37 12.71 5.43 14.79 3.31 16.75 2.6 17.83 7.53 15.04 11.09" style="fill:#ffddb0"/><polygon points="12.68 30.23 4.89 29.88 1.72 36.84 1 65.98 19.41 65.98 19.73 29.82 12.68 30.23" style="fill:#34495e"/><polygon points="5.58 13.64 6.74 18.5 4.18 20.78 1.79 13.86 0 10.37 12.7 5.47 14.78 3.32 15.49 0 16.74 2.58 17.88 7.54 5.58 13.64" style="fill:#4c300f"/><polygon points="3.16 65.98 3.16 109.13 10.93 109.99 17.88 65.58 3.16 65.98" style="fill:#2d95bf"/><polygon points="35.12 58.19 31.13 57.07 30.67 50.88 36.77 51.07 35.12 58.19" style="fill:#ffddb0"/><path d="M31.26,57.65V50.84l-10.73-2L11,31.16l-6.83,1.2s1.19,6.83,1.54,8l8.64,13.29,4.18,1.9Z" style="fill:#e67e22"/><path d="M67.17,109.13l-.25,4-16-.08s.29-5.33,6.69-2.89L59.4,110Z" style="fill:#a74d4b"/><polygon points="55.29 11.09 47.76 20.25 52.26 21.92 51.45 27.52 59.67 28.55 63.46 28.77 68.53 13.66 70.33 10.37 57.62 5.43 55.54 3.31 53.58 2.6 52.5 7.53 55.29 11.09" style="fill:#edc89a"/><polygon points="57.65 30.23 65.44 29.88 68.61 36.84 69.33 65.98 50.92 65.98 50.6 29.82 57.65 30.23" style="fill:#f0c419"/><polygon points="64.75 13.64 63.59 18.5 66.15 20.78 68.54 13.86 70.33 10.37 57.63 5.47 55.55 3.32 55.84 0 53.59 2.58 52.45 7.54 64.75 13.64" style="fill:#865d41"/><polygon points="67.17 65.98 67.17 109.13 59.4 109.99 52.45 65.58 67.17 65.98" style="fill:#287572"/><polygon points="64.73 69.09 64.4 64.38 58.95 64.99 56.95 70.28 64.73 69.09" style="fill:#ffddb0"/><path d="M65.11,64.75l-8.29,2.58-.22-33,6.32-2.88s2.9,6.29,3.25,7.44Z" style="fill:#95a5a6"/></svg>