<svg width="20" height="8" viewBox="0 0 20 8" fill="none" xmlns="http://www.w3.org/2000/svg">
<circle cx="10.25" cy="4" r="3.25" fill="#F07E1A"/>
<path d="M1 4.16713H0.65V4.32603L0.769626 4.43062L1 4.16713ZM1 3.70862L0.783564 3.43356L0.65 3.53866V3.70862H1ZM19 3.70861H19.35V3.54971L19.2304 3.44512L19 3.70861ZM19 4.37168L19.2164 4.64674L19.35 4.54164V4.37168H19ZM1.35 4.16713V3.70862H0.65V4.16713H1.35ZM1.21644 3.98367C6.40471 -0.098869 13.8668 -0.31449 18.7696 3.9721L19.2304 3.44512C14.0426 -1.0906 6.20229 -0.830318 0.783564 3.43356L1.21644 3.98367ZM18.65 3.70861V4.37168H19.35V3.70861H18.65ZM18.7836 4.09663C13.6031 8.173 6.14024 8.19638 1.23037 3.90363L0.769626 4.43062C5.95035 8.96018 13.7899 8.91679 19.2164 4.64674L18.7836 4.09663Z" fill="#F07E1A"/>
</svg>
